<svg xmlns="http://www.w3.org/2000/svg" width="321" height="200" fill="none" viewBox="0 0 321 200"><rect width="321" height="200" fill="#C9EAFE" rx="26"/><path fill="#fff" d="M143.792 79.8987C143.572 79.0955 143.289 78.3126 142.969 77.5459C142.633 76.767 142.263 76.0409 141.865 75.3269C141.071 73.9031 140.182 72.5401 139.285 71.2177C138.388 69.8993 137.466 68.6256 136.706 67.3478C135.958 66.1227 135.352 64.7191 134.849 63.3277C134.6 62.63 134.376 61.9201 134.193 61.2062C134.102 60.8492 134.019 60.4922 133.944 60.1352C133.873 59.7904 133.807 59.397 133.774 59.1252L133.392 55.7745L131.016 58.1881C130.646 58.5654 130.385 58.8655 130.098 59.2104C129.82 59.547 129.55 59.8878 129.292 60.2326C128.781 60.9263 128.291 61.6362 127.855 62.3785C126.983 63.8551 126.235 65.4047 125.662 67.0232C125.376 67.8305 125.135 68.654 124.931 69.4855C124.724 70.3212 124.574 71.1487 124.466 72.0249C124.35 72.8687 124.308 73.7043 124.275 74.5481V75.8137C124.283 76.2356 124.312 76.6575 124.329 77.0794C124.383 77.9231 124.499 78.7628 124.641 79.5985L124.894 80.8438C125.002 81.2535 125.093 81.6673 125.214 82.073C125.45 82.8843 125.716 83.6915 126.065 84.4663C126.393 85.2452 126.775 86.0037 127.195 86.7339C127.602 87.4722 128.084 88.1699 128.59 88.8352C129.097 89.5045 129.654 90.1373 130.235 90.7377C130.829 91.33 131.456 91.8816 132.117 92.3887C132.781 92.8877 133.475 93.3542 134.222 93.7152C132.985 92.6402 131.942 91.403 131.045 90.0968C130.592 89.4477 130.173 88.7784 129.807 88.0847C129.625 87.7399 129.446 87.3911 129.284 87.0341C129.114 86.6852 128.956 86.3283 128.806 85.9713C128.511 85.2533 128.254 84.5272 128.046 83.7848C127.934 83.4157 127.843 83.0425 127.76 82.6693C127.66 82.3001 127.594 81.9229 127.515 81.5456C127.44 81.1724 127.394 80.7911 127.332 80.4138L127.207 79.274C127.187 78.8926 127.153 78.5113 127.145 78.13L127.128 76.9861C127.137 76.6048 127.137 76.2234 127.153 75.8421L127.228 74.6982L127.344 73.5542C127.39 73.2216 127.444 72.747 127.51 72.4225C127.631 71.7085 127.801 70.95 127.996 70.2319C128.192 69.5058 128.424 68.7838 128.694 68.0779C129.234 66.6663 129.89 65.2911 130.68 63.993C130.908 63.6157 131.149 63.2425 131.394 62.8775C131.556 63.3805 131.726 63.8794 131.913 64.3743C132.216 65.1491 132.561 65.9077 132.926 66.6541C133.296 67.3964 133.707 68.1347 134.181 68.8568C134.642 69.5586 135.128 70.2157 135.614 70.8607L137.067 72.7511C138.035 73.9883 138.965 75.2255 139.8 76.5074C140.22 77.1483 140.614 77.8095 140.955 78.4505C141.312 79.1076 141.636 79.7851 141.902 80.4787C142.446 81.8661 142.778 83.3264 142.87 84.8071C142.961 86.2877 142.712 87.7805 142.122 89.1678C141.52 90.5511 140.502 91.7843 139.219 92.7457C140.673 92.0561 141.968 90.9486 142.853 89.541C143.754 88.1415 144.224 86.4824 144.344 84.8233C144.477 83.1723 144.228 81.501 143.792 79.8987Z"/><path fill="#fff" d="M201.224 88.1253C200.992 88.32 200.676 88.5594 200.39 88.7703C200.095 88.9894 199.787 89.2003 199.48 89.4072C198.861 89.821 198.226 90.2145 197.574 90.5795C196.274 91.3178 194.916 91.9669 193.52 92.5104C191.111 93.4597 188.573 94.0722 186.007 94.2507C188.374 91.9547 192.556 88.462 194.542 85.9591C196.249 83.8132 198.209 79.5742 199.347 77.1727C199.8 76.2153 200.315 75.3148 200.178 74.8321C199.908 73.8747 198.359 73.9477 197.657 74.256C196.058 74.9538 192.556 80.2759 189.848 82.0365C187.145 83.797 180.279 87.7197 175.943 87.4803C171.603 87.241 169.136 86.1539 169.136 86.1539C169.136 86.1539 173.069 84.7544 174.543 84.0404C176.018 83.3224 179.216 80.5964 179.872 79.1563C180.528 77.7163 179.345 75.9192 175 77.9962C170.656 80.0731 168.068 78.9981 159.055 81.3185C154.105 82.5922 151.804 85.0951 150.732 87.0909C149.864 88.7095 148.39 89.9386 146.624 90.5511L145.515 91.0258C144.793 91.3665 144.078 91.7235 143.393 92.1332C142.022 92.9445 140.743 93.9221 139.667 95.0823C138.588 96.2384 137.703 97.573 137.121 99.0212C136.548 100.465 136.216 102.023 136.324 103.56C136.303 102.019 136.71 100.502 137.35 99.1145C137.998 97.7272 138.924 96.4818 140.029 95.419C141.129 94.3521 142.409 93.48 143.763 92.7498C144.44 92.3847 145.146 92.0683 145.856 91.7681L146.932 91.3625L148.041 90.9974C149.515 90.5593 151.035 90.2794 152.564 90.1739C154.092 90.0684 155.629 90.1252 157.153 90.3037C160.206 90.6647 163.188 91.5288 166.153 92.4942C169.123 93.4637 172.101 94.5265 175.195 95.3581C176.74 95.776 178.319 96.141 179.922 96.4047C180.723 96.5386 181.529 96.6481 182.368 96.7292C182.796 96.782 183.17 96.7942 183.569 96.8266L183.863 96.8469L183.938 96.8509L184.042 96.855L184.2 96.8591L184.827 96.8712C188.166 96.8996 191.477 96.2384 194.562 95.1066C196.108 94.5428 197.599 93.8532 199.04 93.0703C199.227 92.9688 199.414 92.8593 199.601 92.7498C199.256 93.5895 198.857 94.417 198.429 95.2283C197.358 97.2282 196.07 99.1307 194.616 100.916C193.163 102.7 191.564 104.38 189.853 105.946C188.985 106.749 188.162 107.459 187.207 108.238C186.318 108.964 185.392 109.653 184.449 110.315C180.653 112.923 176.4 114.858 171.923 115.969C167.445 117.081 162.764 117.365 158.154 116.951C155.849 116.744 153.548 116.343 151.326 115.775C149.083 115.195 146.874 114.424 144.743 113.527C140.465 111.751 136.528 109.276 133.126 106.25C129.704 103.24 126.875 99.6053 124.773 95.5975C122.668 91.5896 121.297 87.2126 120.666 82.722C120.043 78.2355 120.109 73.6313 120.861 69.1407C121.592 64.642 123.104 60.3178 125.388 56.3586C127.668 52.4116 130.621 48.8134 134.135 45.7994C137.641 42.7814 141.674 40.3272 146.01 38.5585C150.337 36.7655 154.977 35.6622 159.691 35.3295C160.87 35.2484 162 35.1997 163.238 35.2159C164.413 35.2038 165.589 35.2849 166.764 35.3985C167.939 35.508 169.111 35.6784 170.278 35.8974C171.445 36.1124 172.599 36.3802 173.746 36.6966C178.331 37.9582 182.738 39.9175 186.754 42.4853C190.75 45.0733 194.396 48.282 197.154 52.2007C194.691 48.1036 191.248 44.5703 187.311 41.7145C183.377 38.8425 178.946 36.6073 174.253 35.078C173.081 34.6926 171.889 34.356 170.681 34.0761C169.476 33.788 168.255 33.5487 167.017 33.3783C165.784 33.208 164.538 33.0781 163.283 33.0457C162.096 32.9848 160.796 32.9889 159.554 33.0335C154.574 33.212 149.611 34.1978 144.934 35.9542C140.245 37.7269 135.855 40.242 131.992 43.3939C128.138 46.5499 124.778 50.3387 122.244 54.6265C119.686 58.8899 117.937 63.6523 117.069 68.5039L116.907 69.3841L116.77 70.3131C116.674 70.9337 116.587 71.5544 116.533 72.1669C116.392 73.392 116.317 74.6252 116.276 75.8543C116.193 78.3207 116.305 80.7992 116.645 83.2534C117.31 88.1618 118.784 92.9851 121.085 97.427C123.382 101.869 126.497 105.929 130.281 109.28C134.069 112.619 138.434 115.312 143.102 117.223C145.436 118.188 147.812 119 150.267 119.624C152.742 120.245 155.238 120.667 157.772 120.882C162.822 121.332 167.968 120.914 172.89 119.628C177.808 118.334 182.464 116.128 186.563 113.223C187.585 112.489 188.573 111.73 189.537 110.919C190.434 110.169 191.418 109.296 192.299 108.453C194.097 106.745 195.759 104.895 197.279 102.932C198.795 100.964 200.149 98.867 201.266 96.6359C204.144 90.8797 204.144 85.6792 204.144 85.6792L201.224 88.1253Z"/><path fill="#fff" d="M178.95 86.6771C178.95 86.6771 183.706 83.294 186.41 80.8925C188.947 78.6371 191.473 75.3878 192.619 74.6293C193.765 73.8707 195.489 73.5097 196.183 74.6293C196.183 74.6293 192.361 79.1929 190.887 80.5437C189.741 81.5903 187.967 82.649 185.753 83.8173C182.863 85.3385 178.95 86.6771 178.95 86.6771Z"/><path fill="#fff" d="M190.388 76.0896C190.388 76.0896 188.881 75.0673 186.871 76.7508C185.496 77.8988 182.784 81.075 182.784 81.075L178.065 86.8029C178.065 86.8029 182.397 83.7037 185.159 81.3184C187.826 79.0143 190.388 76.0896 190.388 76.0896Z"/><path fill="#fff" d="M189.728 59.0116C189.234 61.7781 187.012 63.8267 184.337 64.285V64.2891C184.337 64.2891 182.381 64.5082 181.994 65.7373C181.99 65.7616 181.982 65.7819 181.978 65.7981L181.974 65.8022C181.65 66.5405 180.931 67.0719 180.03 67.1895C176.076 67.7128 175.985 64.7353 175.976 64.6948C175.976 64.6866 175.972 64.6785 175.972 64.6745C175.972 64.6704 175.972 64.6664 175.972 64.6664C175.706 63.3236 175.158 62.2243 174.531 61.3441C174.531 61.3441 174.531 61.3441 174.527 61.336C174.527 61.336 173.21 56.8941 177.231 54.6954C177.006 54.7319 173.177 55.4986 173.497 60.1271C172.425 59.0683 171.412 58.5572 171.279 58.5004C175.47 62.5489 175.403 66.1794 173.858 68.8405C172.691 70.8526 170.049 72.5604 166.573 72.0614C166.361 72.033 166.166 71.9965 165.975 71.96C162.706 71.3028 161.61 69.5261 161.402 69.1326C164.903 67.3802 163.313 64.3946 163.122 64.0782C163.234 64.4189 164.102 67.2869 161.053 68.5485C157.992 69.8141 156.281 67.3477 156.281 67.3477C156.871 69.5139 159.325 69.7289 160.767 69.3679C161.016 69.8384 162.013 71.457 164.081 72.2642C164.002 72.3089 163.927 72.3575 163.861 72.4062C162.312 73.469 160.729 76.5074 159.861 79.0914C159.762 79.3834 159.5 79.5903 159.188 79.6187C158.291 79.7161 157.519 79.8337 156.871 79.9514C156.401 80.0365 155.945 79.6958 155.953 79.2212C155.965 78.491 155.762 77.8176 155.126 77.3836C154.279 76.8116 153.208 76.7021 152.169 76.7183C151.505 76.7224 150.815 76.6007 150.13 76.341C148.547 75.7204 147.443 74.3777 147.056 72.751C146.899 72.0817 146.882 71.4529 146.973 70.8688C147.052 70.3861 146.658 69.9317 146.151 69.9398C145.399 69.9398 144.602 69.7816 143.833 69.4166C143.086 69.0596 142.43 68.5079 142.014 67.798C140.926 65.9117 141.204 63.6401 141.57 62.6584C142.484 60.2204 145.428 56.2207 151.762 57.9001C151.667 57.8392 150.844 57.3768 149.64 57.0725C149.897 52.8497 145.831 52.728 145.831 52.728C148.884 53.4703 148.93 56.0138 148.846 56.8981C147.256 56.6304 145.225 56.7075 143.293 58.038C142.11 58.8493 140.947 59.9121 140.22 61.7619C139.202 60.1677 138.758 58.2286 139.111 56.2369C139.551 53.8111 141.084 51.8274 143.127 50.7078C143.464 50.5294 143.58 50.1562 143.484 49.7951C143.202 48.7039 143.314 45.986 145.046 44.2296C145.877 43.3858 147.119 42.6678 148.963 42.3757C149.087 42.3473 149.212 42.3311 149.332 42.3189C149.332 42.3189 149.332 42.3189 149.337 42.3189C149.607 42.2987 149.885 42.3027 150.167 42.3473C150.213 42.3555 150.25 42.3757 150.284 42.3798C151.401 40.7977 153.394 39.8972 155.459 40.2542C155.882 40.3312 156.285 40.4489 156.659 40.6111C157.033 40.7653 157.477 40.6679 157.701 40.3353C157.701 40.3353 158.939 37.9785 162.789 37.7635C165.514 37.6012 167.395 38.518 168.525 39.3333C168.907 39.5605 169.244 39.8485 169.522 40.1812C169.526 40.1852 169.53 40.1893 169.543 40.1974L169.555 40.2136C169.634 40.311 169.705 40.4124 169.775 40.5178C166.174 42.4163 166.623 46.0144 166.623 46.0144C167.454 43.2154 168.762 40.8829 172.093 41.0776C174.423 41.2075 175.902 42.7773 176.03 43.5035C176.097 43.8848 176.462 44.1322 176.857 44.1038C177.376 44.0673 177.912 44.0876 178.448 44.1809C180.91 44.6068 182.8 46.2984 183.569 48.4443C183.668 48.7201 183.947 48.8824 184.25 48.8743C184.889 48.854 185.566 49.0568 186.185 49.568C186.493 49.8235 186.725 50.1643 186.85 50.5456C187.016 51.0729 187.045 51.5557 186.958 51.9857C186.9 52.2818 186.987 52.5779 187.228 52.7523C189.138 54.1762 190.172 56.5492 189.728 59.0116Z"/><path fill="url(#paint0_linear_418_8843)" d="M137.209 106.692C139.439 107.994 141.736 109.077 144.091 109.982C146.454 110.862 148.867 111.568 151.326 112.071C156.231 113.069 161.315 113.426 166.299 112.878C167.545 112.749 168.783 112.55 170.016 112.323C171.241 112.063 172.467 111.791 173.671 111.43C176.084 110.741 178.431 109.82 180.694 108.72C181.824 108.165 182.933 107.568 184.013 106.919C185.089 106.262 186.14 105.564 187.165 104.826C189.201 103.329 191.128 101.674 192.806 99.7554C192.129 100.83 191.344 101.845 190.488 102.802C189.641 103.767 188.719 104.672 187.755 105.528C185.836 107.26 183.689 108.745 181.438 110.067C176.902 112.651 171.806 114.367 166.556 115.012C163.936 115.345 161.282 115.418 158.644 115.272C156.011 115.105 153.386 114.761 150.832 114.087C148.277 113.43 145.794 112.489 143.484 111.26C141.175 110.027 139.015 108.518 137.209 106.692Z"/><path fill="#fff" d="M112.779 156.711C113.073 156.954 113.223 157.287 113.223 157.708C113.223 158.13 113.073 158.463 112.779 158.706C112.48 158.95 112.073 159.067 111.558 159.067H110.569V160.248H110V156.345H111.558C112.077 156.35 112.484 156.471 112.779 156.711ZM112.367 158.358C112.558 158.207 112.654 157.992 112.654 157.708C112.654 157.425 112.558 157.21 112.367 157.059C112.176 156.909 111.902 156.832 111.541 156.832H110.569V158.581H111.541C111.902 158.585 112.176 158.508 112.367 158.358Z"/><path fill="#fff" d="M117.646 159.765V160.247H114.747V156.345H117.567V156.827H115.32V158.024H117.322V158.499H115.32V159.76H117.646V159.765Z"/><path fill="#fff" d="M119.258 156.349H120.94C121.364 156.349 121.737 156.43 122.066 156.592C122.394 156.754 122.647 156.986 122.83 157.282C123.008 157.578 123.1 157.915 123.1 158.3C123.1 158.685 123.008 159.022 122.83 159.318C122.647 159.614 122.394 159.841 122.066 160.008C121.737 160.17 121.364 160.251 120.94 160.251H119.258V156.349ZM120.907 159.764C121.231 159.764 121.513 159.704 121.758 159.582C122.003 159.46 122.194 159.286 122.327 159.067C122.46 158.848 122.527 158.592 122.527 158.3C122.527 158.012 122.46 157.756 122.327 157.533C122.194 157.31 122.003 157.14 121.758 157.018C121.513 156.896 121.227 156.836 120.907 156.836H119.827V159.768H120.907V159.764Z"/><path fill="#fff" d="M125.064 159.85C124.77 159.553 124.62 159.123 124.62 158.568V156.349H125.189V158.543C125.189 159.379 125.563 159.797 126.315 159.797C126.68 159.797 126.958 159.695 127.154 159.489C127.349 159.282 127.444 158.969 127.444 158.543V156.349H127.997V158.568C127.997 159.127 127.847 159.557 127.552 159.854C127.253 160.15 126.842 160.296 126.306 160.296C125.779 160.296 125.363 160.146 125.064 159.85Z"/><path fill="#fff" d="M129.853 156.349H130.422V159.764H132.586V160.247H129.853V156.349Z"/><path fill="#fff" d="M133.928 156.349H134.497V160.251H133.928V156.349Z"/><path fill="#fff" d="M139.904 158.515L139.174 159.241V160.251H138.604V156.349H139.174V158.527L141.342 156.349H141.994L140.287 158.105L142.102 160.251H141.433L139.904 158.515Z"/><path fill="#fff" d="M146.292 159.765V160.247H143.393V156.345H146.213V156.827H143.966V158.024H145.968V158.499H143.966V159.76H146.292V159.765Z"/><path fill="#fff" d="M148.195 160.157C147.916 160.068 147.696 159.946 147.534 159.804L147.746 159.37C147.9 159.504 148.095 159.614 148.332 159.695C148.568 159.78 148.813 159.821 149.067 159.821C149.399 159.821 149.644 159.764 149.81 159.654C149.972 159.545 150.055 159.399 150.055 159.216C150.055 159.082 150.01 158.973 149.922 158.892C149.831 158.806 149.723 158.746 149.59 158.701C149.457 158.656 149.274 158.608 149.034 158.551C148.735 158.482 148.489 158.409 148.307 158.34C148.124 158.271 147.966 158.161 147.833 158.015C147.7 157.869 147.638 157.671 147.638 157.423C147.638 157.216 147.692 157.026 147.808 156.859C147.92 156.693 148.091 156.559 148.319 156.458C148.548 156.356 148.83 156.308 149.171 156.308C149.407 156.308 149.64 156.336 149.868 156.397C150.097 156.458 150.292 156.543 150.458 156.652L150.271 157.099C150.105 156.993 149.927 156.916 149.735 156.863C149.544 156.811 149.358 156.782 149.175 156.782C148.851 156.782 148.61 156.839 148.448 156.957C148.286 157.07 148.207 157.22 148.207 157.403C148.207 157.537 148.253 157.646 148.344 157.727C148.435 157.813 148.548 157.877 148.685 157.922C148.822 157.967 149.004 158.019 149.237 158.068C149.536 158.137 149.777 158.21 149.964 158.279C150.147 158.348 150.304 158.458 150.433 158.604C150.566 158.75 150.628 158.944 150.628 159.188C150.628 159.391 150.57 159.577 150.458 159.748C150.346 159.918 150.172 160.052 149.939 160.149C149.706 160.247 149.42 160.295 149.083 160.295C148.764 160.295 148.473 160.247 148.195 160.157Z"/><path fill="#fff" d="M155.027 159.765V160.247H152.128V156.345H154.948V156.827H152.701V158.024H154.703V158.499H152.701V159.76H155.027V159.765Z"/><path fill="#fff" d="M160.073 156.349V160.251H159.504V158.511H157.211V160.251H156.642V156.349H157.211V158.028H159.504V156.349H160.073Z"/><path fill="#fff" d="M164.501 159.274H162.378L161.938 160.247H161.348L163.159 156.345H163.724L165.539 160.247H164.941L164.501 159.274ZM164.301 158.827L163.437 156.917L162.578 158.827H164.301Z"/><path fill="#fff" d="M167.412 156.832H166.042V156.349H169.348V156.832H167.977V160.247H167.412V156.832Z"/><path fill="#fff" d="M172.998 159.274H170.876L170.436 160.247H169.846L171.657 156.345H172.222L174.037 160.247H173.439L172.998 159.274ZM172.799 158.827L171.939 156.917L171.075 158.827H172.799Z"/><path fill="#fff" d="M178.751 156.349V160.251H178.282L175.885 157.343V160.251H175.316V156.349H175.785L178.182 159.257V156.349H178.751Z"/><path fill="#fff" d="M186.559 160.251L186.555 157.408L185.11 159.777H184.848L183.403 157.424V160.251H182.854V156.349H183.324L184.989 159.091L186.634 156.349H187.103L187.107 160.251H186.559Z"/><path fill="#fff" d="M191.888 159.765V160.247H188.989V156.345H191.809V156.827H189.562V158.024H191.564V158.499H189.562V159.76H191.888V159.765Z"/><path fill="#fff" d="M196.934 156.349V160.251H196.465L194.068 157.343V160.251H193.499V156.349H193.969L196.365 159.257V156.349H196.934Z"/><path fill="#fff" d="M199.609 156.832H198.238V156.349H201.544V156.832H200.174V160.247H199.609V156.832Z"/><path fill="#fff" d="M205.2 159.274H203.077L202.637 160.247H202.047L203.858 156.345H204.423L206.238 160.247H205.64L205.2 159.274ZM204.996 158.827L204.136 156.917L203.272 158.827H204.996Z"/><path fill="#fff" d="M207.513 156.349H208.082V159.764H210.246V160.247H207.513V156.349Z"/><path fill="#fff" d="M120.425 165.962H118.303L117.862 166.936H117.273L119.083 163.034H119.648L121.463 166.936H120.865L120.425 165.962ZM120.226 165.516L119.362 163.605L118.502 165.516H120.226Z"/><path fill="#fff" d="M126.177 163.037V166.94H125.708L123.312 164.031V166.94H122.743V163.037H123.212L125.608 165.946V163.037H126.177Z"/><path fill="#fff" d="M130.605 165.962H128.483L128.042 166.936H127.453L129.263 163.034H129.828L131.643 166.936H131.045L130.605 165.962ZM130.406 165.516L129.546 163.605L128.682 165.516H130.406Z"/><path fill="#fff" d="M134.222 165.204L133.491 165.93V166.94H132.922V163.037H133.491V165.216L135.66 163.037H136.312L134.605 164.794L136.42 166.94H135.751L134.222 165.204Z"/><path fill="#fff" d="M143.634 166.94L143.63 164.096L142.185 166.465H141.923L140.478 164.112V166.94H139.929V163.037H140.399L142.064 165.78L143.709 163.037H144.178L144.182 166.94H143.634Z"/><path fill="#fff" d="M146.475 166.538C146.18 166.242 146.031 165.812 146.031 165.256V163.037H146.6V165.232C146.6 166.068 146.973 166.486 147.725 166.486C148.091 166.486 148.369 166.384 148.564 166.177C148.759 165.97 148.855 165.658 148.855 165.232V163.037H149.407V165.256C149.407 165.816 149.258 166.246 148.963 166.542C148.664 166.839 148.253 166.985 147.717 166.985C147.189 166.985 146.774 166.834 146.475 166.538Z"/><path fill="#fff" d="M151.264 163.037H152.946C153.37 163.037 153.743 163.119 154.072 163.281C154.4 163.443 154.653 163.674 154.832 163.97C155.01 164.267 155.102 164.603 155.102 164.989C155.102 165.374 155.01 165.711 154.832 166.007C154.653 166.303 154.396 166.53 154.072 166.696C153.743 166.859 153.37 166.94 152.946 166.94H151.264V163.037ZM152.913 166.453C153.237 166.453 153.519 166.392 153.764 166.27C154.009 166.149 154.2 165.974 154.333 165.755C154.466 165.532 154.533 165.281 154.533 164.989C154.533 164.697 154.466 164.445 154.333 164.222C154.2 163.999 154.009 163.828 153.764 163.707C153.519 163.585 153.233 163.524 152.913 163.524H151.833V166.457H152.913V166.453Z"/><path fill="#fff" d="M159.151 165.962H157.029L156.589 166.936H155.999L157.81 163.034H158.375L160.19 166.936H159.591L159.151 165.962ZM158.952 165.516L158.092 163.605L157.228 165.516H158.952Z"/><path fill="#fff" d="M163.687 163.037H164.256V166.94H163.687V163.037Z"/><path fill="#fff" d="M169.576 163.037V166.94H169.107L166.71 164.031V166.94H166.141V163.037H166.61L169.007 165.946V163.037H169.576Z"/><path fill="#fff" d="M171.462 163.037H173.144C173.567 163.037 173.941 163.119 174.269 163.281C174.597 163.443 174.851 163.674 175.029 163.97C175.208 164.267 175.299 164.603 175.299 164.989C175.299 165.374 175.208 165.711 175.029 166.007C174.851 166.303 174.593 166.53 174.269 166.696C173.941 166.859 173.567 166.94 173.144 166.94H171.462V163.037ZM173.111 166.453C173.435 166.453 173.717 166.392 173.962 166.27C174.207 166.149 174.398 165.974 174.531 165.755C174.664 165.532 174.73 165.281 174.73 164.989C174.73 164.697 174.664 164.445 174.531 164.222C174.398 163.999 174.207 163.828 173.962 163.707C173.717 163.585 173.43 163.524 173.111 163.524H172.031V166.457H173.111V166.453Z"/><path fill="#fff" d="M177.571 166.725C177.247 166.55 176.994 166.315 176.811 166.007C176.628 165.703 176.533 165.362 176.533 164.989C176.533 164.615 176.624 164.275 176.811 163.97C176.994 163.666 177.251 163.427 177.571 163.252C177.895 163.078 178.257 162.993 178.659 162.993C179.058 162.993 179.42 163.078 179.744 163.252C180.067 163.427 180.321 163.662 180.504 163.966C180.686 164.271 180.778 164.611 180.778 164.989C180.778 165.366 180.686 165.707 180.504 166.011C180.321 166.315 180.067 166.55 179.744 166.725C179.42 166.899 179.058 166.984 178.659 166.984C178.261 166.984 177.895 166.895 177.571 166.725ZM179.453 166.291C179.685 166.161 179.872 165.982 180.005 165.751C180.138 165.524 180.209 165.269 180.209 164.985C180.209 164.701 180.142 164.445 180.005 164.218C179.872 163.991 179.685 163.808 179.453 163.678C179.22 163.549 178.954 163.484 178.664 163.484C178.373 163.484 178.107 163.549 177.866 163.678C177.629 163.808 177.443 163.987 177.305 164.218C177.173 164.445 177.102 164.701 177.102 164.985C177.102 165.269 177.168 165.524 177.305 165.751C177.438 165.978 177.625 166.161 177.866 166.291C178.103 166.421 178.369 166.485 178.664 166.485C178.954 166.485 179.22 166.421 179.453 166.291Z"/><path fill="#fff" d="M185.774 163.037V166.94H185.305L182.908 164.031V166.94H182.339V163.037H182.809L185.205 165.946V163.037H185.774Z"/><path fill="#fff" d="M190.555 166.453V166.936H187.656V163.034H190.476V163.516H188.229V164.713H190.231V165.188H188.229V166.449H190.555V166.453Z"/><path fill="#fff" d="M192.461 166.847C192.183 166.757 191.963 166.636 191.801 166.494L192.012 166.06C192.166 166.193 192.361 166.303 192.598 166.384C192.835 166.469 193.08 166.51 193.333 166.51C193.666 166.51 193.911 166.453 194.077 166.344C194.239 166.234 194.322 166.088 194.322 165.905C194.322 165.772 194.276 165.662 194.189 165.581C194.097 165.496 193.989 165.435 193.857 165.39C193.724 165.346 193.541 165.297 193.3 165.24C193.001 165.171 192.756 165.098 192.573 165.029C192.39 164.96 192.233 164.851 192.1 164.705C191.967 164.559 191.904 164.36 191.904 164.112C191.904 163.906 191.958 163.715 192.075 163.549C192.187 163.382 192.357 163.248 192.586 163.147C192.814 163.046 193.097 162.997 193.437 162.997C193.674 162.997 193.906 163.025 194.135 163.086C194.363 163.147 194.558 163.232 194.725 163.342L194.538 163.788C194.372 163.682 194.193 163.605 194.002 163.553C193.811 163.5 193.624 163.472 193.441 163.472C193.117 163.472 192.876 163.528 192.714 163.646C192.552 163.76 192.474 163.91 192.474 164.092C192.474 164.226 192.519 164.336 192.611 164.417C192.702 164.502 192.814 164.567 192.951 164.611C193.088 164.656 193.271 164.709 193.504 164.757C193.803 164.826 194.043 164.899 194.23 164.968C194.413 165.037 194.571 165.147 194.7 165.293C194.833 165.439 194.895 165.634 194.895 165.877C194.895 166.08 194.837 166.266 194.725 166.437C194.612 166.607 194.438 166.741 194.205 166.838C193.973 166.936 193.686 166.984 193.35 166.984C193.03 166.984 192.739 166.936 192.461 166.847Z"/><path fill="#fff" d="M196.394 163.037H196.963V166.94H196.394V163.037Z"/><path fill="#fff" d="M201.395 165.962H199.273L198.832 166.936H198.243L200.054 163.034H200.618L202.433 166.936H201.835L201.395 165.962ZM201.196 165.516L200.336 163.605L199.472 165.516H201.196Z"/><path fill="#fff" d="M115.956 150.515C114.776 150.515 113.667 150.332 112.629 149.967C111.591 149.602 110.76 149.063 110.145 148.349L111.744 146.402C112.438 147.022 113.165 147.489 113.921 147.801C114.681 148.113 115.462 148.268 116.267 148.268C116.924 148.268 117.489 148.182 117.966 148.012C118.444 147.842 118.813 147.59 119.075 147.258C119.337 146.925 119.47 146.535 119.47 146.085C119.47 145.558 119.225 145.181 118.739 144.945C118.253 144.71 117.513 144.446 116.521 144.158C115.566 143.87 114.781 143.594 114.162 143.331C113.543 143.067 113.09 142.751 112.799 142.377C112.509 142.008 112.363 141.505 112.363 140.868C112.363 139.87 112.65 138.994 113.219 138.232C113.788 137.469 114.569 136.873 115.549 136.439C116.529 136.005 117.621 135.786 118.822 135.786C119.927 135.786 120.89 135.952 121.717 136.28C122.539 136.609 123.241 137.084 123.822 137.708L122.136 139.518C121.592 138.986 121.04 138.605 120.479 138.366C119.918 138.126 119.279 138.009 118.568 138.009C117.97 138.009 117.426 138.09 116.94 138.252C116.454 138.414 116.068 138.654 115.79 138.97C115.507 139.286 115.37 139.688 115.37 140.175C115.37 140.662 115.561 141.014 115.948 141.229C116.33 141.444 117.003 141.68 117.958 141.931C118.967 142.203 119.827 142.499 120.529 142.816C121.231 143.132 121.75 143.505 122.086 143.931C122.423 144.357 122.593 144.925 122.593 145.631C122.593 146.572 122.323 147.412 121.779 148.146C121.235 148.88 120.466 149.46 119.474 149.886C118.477 150.3 117.306 150.515 115.956 150.515Z"/><path fill="#fff" d="M130.618 150.515C129.401 150.515 128.346 150.251 127.457 149.728C126.568 149.201 125.895 148.487 125.434 147.582C124.973 146.677 124.736 145.643 124.72 144.483C124.736 143.323 124.973 142.227 125.422 141.193C125.87 140.159 126.506 139.23 127.332 138.406C128.155 137.583 129.114 136.938 130.211 136.475C131.307 136.013 132.499 135.782 133.791 135.782C134.821 135.782 135.714 135.932 136.474 136.232C137.234 136.532 137.815 136.966 138.231 137.534C138.642 138.106 138.85 138.816 138.85 139.668C138.866 141.136 138.198 142.248 136.839 143.01C135.481 143.773 133.409 144.15 130.618 144.15C130.094 144.15 129.505 144.138 128.848 144.11C128.192 144.081 127.453 144.033 126.63 143.96L127.05 142.012C127.797 142.049 128.462 142.086 129.044 142.122C129.625 142.159 130.169 142.175 130.672 142.175C132.001 142.175 133.047 142.077 133.816 141.879C134.584 141.68 135.136 141.404 135.473 141.043C135.809 140.686 135.988 140.272 136.005 139.806C136.005 139.392 135.897 139.055 135.681 138.796C135.465 138.536 135.17 138.337 134.796 138.203C134.422 138.07 133.974 138.001 133.446 138.001C132.603 138.001 131.839 138.175 131.158 138.528C130.472 138.881 129.882 139.368 129.388 139.988C128.89 140.613 128.504 141.315 128.221 142.102C127.939 142.889 127.81 143.704 127.827 144.552C127.827 145.237 127.943 145.862 128.18 146.418C128.412 146.978 128.778 147.428 129.276 147.773C129.77 148.118 130.393 148.288 131.145 148.288C131.951 148.288 132.728 148.093 133.475 147.7C134.223 147.306 134.804 146.771 135.215 146.093L137.687 146.836C137.217 147.529 136.607 148.158 135.847 148.714C135.087 149.274 134.26 149.712 133.359 150.032C132.474 150.353 131.556 150.515 130.618 150.515Z"/><path fill="#fff" d="M143.875 130.212H146.965L145.084 138.852C145.815 137.891 146.703 137.141 147.75 136.597C148.797 136.053 149.856 135.782 150.923 135.782C151.783 135.782 152.46 135.928 152.946 136.216C153.432 136.504 153.785 136.913 154.001 137.437C154.217 137.964 154.325 138.56 154.325 139.23C154.325 139.591 154.3 139.968 154.254 140.357C154.209 140.747 154.146 141.148 154.071 141.566L152.161 150.235H149.042L150.811 142.288C150.865 141.98 150.915 141.696 150.952 141.436C150.99 141.173 151.01 140.925 151.01 140.69C151.01 139.948 150.84 139.392 150.504 139.023C150.167 138.654 149.69 138.467 149.071 138.467C148.564 138.467 148.016 138.609 147.426 138.897C146.836 139.185 146.28 139.574 145.756 140.069C145.233 140.564 144.801 141.136 144.465 141.781L142.612 150.231H139.522L143.875 130.212Z"/><path fill="#fff" d="M161.373 150.515C160.285 150.515 159.35 150.251 158.565 149.728C157.78 149.201 157.178 148.495 156.767 147.606C156.356 146.718 156.148 145.732 156.148 144.645C156.148 143.485 156.364 142.378 156.796 141.315C157.228 140.256 157.822 139.311 158.578 138.487C159.338 137.664 160.198 137.007 161.161 136.516C162.125 136.025 163.151 135.782 164.235 135.782C165.302 135.782 166.199 136.062 166.93 136.625C167.661 137.185 168.155 137.875 168.417 138.69L169.036 136.001H172.155L169.796 146.552C169.775 146.625 169.763 146.694 169.755 146.767C169.746 146.84 169.742 146.909 169.742 146.982C169.742 147.322 169.95 147.501 170.361 147.521L169.829 150.101C169.568 150.138 169.331 150.17 169.127 150.199C168.92 150.227 168.733 150.239 168.567 150.239C167.985 150.239 167.537 150.126 167.217 149.89C166.897 149.659 166.739 149.335 166.739 148.925C166.739 148.823 166.743 148.714 166.752 148.604C166.76 148.495 166.781 148.357 166.806 148.191C166.835 148.028 166.876 147.862 166.93 147.688C166.22 148.576 165.356 149.27 164.347 149.769C163.342 150.263 162.349 150.515 161.373 150.515ZM162.723 147.935C163.097 147.935 163.495 147.862 163.915 147.72C164.334 147.578 164.75 147.383 165.153 147.14C165.555 146.897 165.929 146.604 166.274 146.264C166.619 145.923 166.876 145.546 167.047 145.132L167.861 141.408C167.786 140.832 167.595 140.317 167.283 139.858C166.976 139.4 166.585 139.035 166.116 138.767C165.647 138.495 165.144 138.362 164.6 138.362C163.907 138.362 163.246 138.528 162.619 138.861C161.992 139.193 161.439 139.639 160.962 140.199C160.484 140.759 160.106 141.38 159.824 142.065C159.541 142.751 159.404 143.444 159.404 144.146C159.404 144.868 159.541 145.505 159.811 146.065C160.081 146.625 160.468 147.075 160.962 147.416C161.464 147.765 162.05 147.935 162.723 147.935Z"/><path fill="#fff" d="M174.07 148.166C174.07 148.02 174.082 147.87 174.111 147.716C174.14 147.562 174.161 147.42 174.182 147.294L176.147 138.337H174.265L174.797 136.005H176.624L177.662 131.287H180.753L179.714 136.005H182.746L182.24 138.337H179.208L177.492 146.3C177.471 146.373 177.455 146.446 177.434 146.519C177.417 146.592 177.405 146.657 177.405 146.71C177.405 147.075 177.521 147.338 177.754 147.501C177.986 147.663 178.265 147.744 178.585 147.744C178.867 147.744 179.145 147.708 179.428 147.635C179.71 147.562 179.959 147.485 180.188 147.399C180.412 147.318 180.591 147.241 180.719 147.164L180.832 149.549C180.549 149.716 180.2 149.87 179.777 150.016C179.353 150.162 178.9 150.279 178.414 150.373C177.928 150.466 177.422 150.511 176.898 150.511C176.093 150.511 175.42 150.32 174.876 149.939C174.34 149.557 174.07 148.965 174.07 148.166Z"/><path fill="#fff" d="M182.638 150.239L183.423 146.726H185.978L185.193 150.239H182.638Z"/><path fill="#fff" d="M191.792 136.001H194.911L191.792 150.239H188.702L191.792 136.001ZM193.059 130.322H196.149L195.418 133.64H192.328L193.059 130.322Z"/><path fill="#fff" d="M198.508 136.001H201.316L200.697 138.852C201.183 138.22 201.769 137.676 202.454 137.222C203.139 136.767 203.866 136.414 204.647 136.163C205.424 135.907 206.217 135.782 207.019 135.782C207.841 135.782 208.489 135.928 208.958 136.216C209.428 136.504 209.76 136.897 209.955 137.384C210.15 137.875 210.25 138.451 210.25 139.124C210.25 139.485 210.221 139.875 210.167 140.293C210.109 140.71 210.046 141.136 209.972 141.57L208.061 150.239H204.942L206.711 142.292C206.807 141.948 206.865 141.639 206.894 141.355C206.923 141.075 206.936 140.808 206.936 140.556C206.936 139.834 206.782 139.307 206.47 138.97C206.163 138.637 205.706 138.467 205.108 138.467C204.585 138.467 204.016 138.617 203.409 138.913C202.799 139.209 202.226 139.603 201.682 140.086C201.138 140.572 200.697 141.136 200.361 141.785L198.508 150.235H195.418L198.508 136.001Z"/><defs><linearGradient id="paint0_linear_418_8843" x1="178.151" x2="153.388" y1="116.065" y2="90.71" gradientUnits="userSpaceOnUse"><stop stop-color="#fff"/><stop offset="1" stop-color="#fff"/></linearGradient></defs></svg>