<svg xmlns="http://www.w3.org/2000/svg" width="211" height="281" fill="none" viewBox="0 0 211 281"><path fill="url(#paint0_linear_418_9053)" d="M70.87 98.3586C70.4083 96.6741 69.816 95.0322 69.1452 93.4242C68.4397 91.7908 67.6644 90.2679 66.8282 88.7706C65.1645 85.7844 63.3004 82.9259 61.4189 80.1524C59.5374 77.3874 57.6036 74.7161 56.0095 72.0362C54.4416 69.4669 53.1699 66.5232 52.1159 63.6051C51.5932 62.1418 51.1228 60.653 50.7396 59.1557C50.5479 58.407 50.3737 57.6583 50.2169 56.9097C50.0689 56.1865 49.9295 55.3613 49.8598 54.7913L49.0584 47.764L44.0759 52.826C43.3007 53.6172 42.7519 54.2468 42.1508 54.9699C41.5672 55.6761 41.001 56.3907 40.461 57.1138C39.3896 58.5686 38.3617 60.0575 37.4471 61.6144C35.6178 64.7111 34.0499 67.961 32.8478 71.3556C32.2468 73.0486 31.7416 74.7756 31.3148 76.5197C30.8792 78.2722 30.5656 80.0078 30.3392 81.8454C30.0953 83.615 30.0082 85.3676 29.9385 87.1371V89.7915C29.9559 90.6763 30.0169 91.5611 30.0517 92.4459C30.165 94.2154 30.4089 95.9765 30.705 97.7291L31.2364 100.341C31.4628 101.2 31.6545 102.068 31.9071 102.919C32.4036 104.62 32.9611 106.313 33.6928 107.938C34.3809 109.572 35.1823 111.163 36.0621 112.694C36.9157 114.242 37.9262 115.706 38.9889 117.101C40.0516 118.505 41.2188 119.832 42.4383 121.091C43.6839 122.333 44.9992 123.49 46.3842 124.554C47.7779 125.6 49.2326 126.578 50.8006 127.335C48.2048 125.081 46.0184 122.486 44.1369 119.747C43.1874 118.386 42.3076 116.982 41.5411 115.527C41.1578 114.804 40.7833 114.072 40.4436 113.323C40.0864 112.592 39.7554 111.843 39.4418 111.095C38.8234 109.589 38.2833 108.066 37.8478 106.509C37.6126 105.735 37.4209 104.952 37.2467 104.169C37.0377 103.395 36.8983 102.604 36.7328 101.813C36.576 101.03 36.4802 100.23 36.3495 99.4391L36.0882 97.0485C36.0447 96.2488 35.975 95.449 35.9576 94.6493L35.9227 92.2502C35.9401 91.4505 35.9401 90.6508 35.975 89.851L36.1318 87.4519L36.3757 85.0528C36.4715 84.3551 36.5847 83.3598 36.7241 82.6792C36.9767 81.1818 37.3338 79.5909 37.7432 78.0851C38.1526 76.5622 38.6404 75.0478 39.2066 73.5675C40.339 70.6069 41.7153 67.7228 43.3703 65.0004C43.8494 64.2092 44.3546 63.4265 44.8686 62.6608C45.2083 63.7157 45.5654 64.7622 45.9574 65.8001C46.5933 67.425 47.3163 69.016 48.0828 70.5814C48.8581 72.1383 49.7204 73.6866 50.7134 75.201C51.6803 76.6728 52.6995 78.051 53.7186 79.4037L56.7674 83.3683C58.797 85.9631 60.7481 88.5579 62.499 91.2463C63.3788 92.5905 64.2063 93.9772 64.9206 95.3214C65.6697 96.6997 66.3491 98.1204 66.9066 99.5752C68.0477 102.485 68.7445 105.548 68.9362 108.653C69.1278 111.758 68.6052 114.889 67.3683 117.798C66.1052 120.7 63.9711 123.286 61.2795 125.302C64.3282 123.856 67.046 121.533 68.9013 118.581C70.7916 115.646 71.7759 112.166 72.0285 108.687C72.3072 105.224 71.7846 101.719 70.87 98.3586Z"/><path fill="url(#paint1_linear_418_9053)" d="M191.321 115.612C190.834 116.02 190.172 116.522 189.571 116.965C188.952 117.424 188.308 117.867 187.663 118.3C186.365 119.168 185.032 119.993 183.665 120.759C180.938 122.308 178.09 123.669 175.163 124.809C170.111 126.8 164.789 128.084 159.405 128.459C164.371 123.643 173.142 116.318 177.306 111.069C180.886 106.568 184.997 97.678 187.384 92.6415C188.334 90.6337 189.414 88.7451 189.126 87.7327C188.56 85.7249 185.311 85.878 183.839 86.5246C180.485 87.9879 173.142 99.1499 167.463 102.842C161.792 106.534 147.393 114.761 138.3 114.259C129.197 113.757 124.023 111.477 124.023 111.477C124.023 111.477 132.272 108.542 135.364 107.045C138.456 105.539 145.164 99.822 146.54 96.8018C147.916 93.7816 145.434 90.0127 136.322 94.3686C127.211 98.7245 121.784 96.47 102.882 101.336C92.4988 104.008 87.673 109.257 85.4257 113.443C83.6051 116.837 80.5129 119.415 76.8108 120.7L74.4851 121.695C72.9694 122.41 71.4712 123.158 70.0339 124.018C67.1594 125.719 64.4765 127.769 62.2204 130.203C59.9557 132.627 58.1003 135.426 56.8808 138.463C55.6787 141.492 54.9819 144.759 55.2083 147.983C55.1648 144.751 56.0184 141.569 57.3599 138.659C58.7187 135.75 60.6612 133.138 62.9783 130.909C65.2866 128.671 67.9695 126.842 70.8092 125.311C72.229 124.545 73.7098 123.881 75.1993 123.252L77.4554 122.401L79.7812 121.635C82.8735 120.717 86.0616 120.13 89.2671 119.908C92.4726 119.687 95.6956 119.806 98.8924 120.181C105.295 120.938 111.549 122.75 117.768 124.775C123.997 126.808 130.242 129.037 136.732 130.781C139.972 131.657 143.282 132.423 146.644 132.976C148.326 133.257 150.015 133.487 151.775 133.657C152.672 133.767 153.456 133.793 154.292 133.861L154.911 133.903L155.068 133.912L155.285 133.92L155.616 133.929L156.932 133.954C163.935 134.014 170.877 132.627 177.349 130.254C180.59 129.071 183.717 127.625 186.74 125.983C187.132 125.77 187.524 125.54 187.916 125.311C187.193 127.072 186.356 128.807 185.459 130.509C183.212 134.703 180.511 138.693 177.463 142.437C174.414 146.18 171.06 149.702 167.472 152.986C165.651 154.67 163.926 156.159 161.923 157.793C160.059 159.316 158.116 160.762 156.139 162.149C148.177 167.619 139.258 171.677 129.868 174.008C120.477 176.339 110.661 176.935 100.992 176.067C96.1572 175.633 91.3315 174.791 86.6713 173.6C81.9675 172.383 77.3335 170.767 72.8649 168.887C63.8929 165.16 55.6352 159.971 48.5011 153.624C41.3235 147.311 35.3915 139.689 30.9839 131.283C26.5676 122.878 23.6931 113.698 22.3691 104.28C21.0625 94.8705 21.2018 85.2144 22.7785 75.7965C24.3116 66.3615 27.4822 57.2924 32.2731 48.989C37.0553 40.7111 43.2486 33.1649 50.6178 26.8437C57.9696 20.5141 66.4277 15.367 75.5216 11.6577C84.5982 7.89731 94.328 5.58324 104.215 4.88561C106.688 4.71546 109.058 4.61337 111.654 4.6474C114.119 4.62188 116.584 4.79203 119.049 5.03024C121.514 5.25995 123.97 5.61727 126.418 6.07668C128.866 6.52758 131.287 7.08908 133.692 7.75268C143.308 10.3985 152.55 14.5077 160.973 19.893C169.353 25.3209 177.001 32.0504 182.785 40.2687C177.62 31.6761 170.398 24.2659 162.141 18.2766C153.892 12.2532 144.597 7.56551 134.754 4.35814C132.298 3.54992 129.798 2.84379 127.263 2.25676C124.737 1.65273 122.176 1.15078 119.58 0.793457C116.993 0.436138 114.38 0.163894 111.749 0.0958336C109.258 -0.0317804 106.532 -0.0232728 103.927 0.0703108C93.4831 0.444645 83.0738 2.51199 73.2656 6.19579C63.4312 9.91361 54.224 15.1883 46.1231 21.7987C38.0396 28.4176 30.9926 36.3637 25.6791 45.3563C20.3133 54.2978 16.6462 64.2857 14.8256 74.4608L14.4859 76.3069L14.1985 78.2552C13.9981 79.5568 13.8152 80.8585 13.7019 82.1432C13.4058 84.7124 13.249 87.2988 13.1619 89.8766C12.9877 95.0492 13.2229 100.247 13.9371 105.394C15.3308 115.689 18.4231 125.804 23.2488 135.12C28.0659 144.436 34.5989 152.952 42.5343 159.979C50.4784 166.981 59.6334 172.63 69.4242 176.637C74.3196 178.662 79.3021 180.363 84.4501 181.674C89.6416 182.975 94.8768 183.86 100.19 184.311C110.782 185.255 121.575 184.379 131.897 181.682C142.211 178.968 151.975 174.34 160.573 168.249C162.716 166.709 164.789 165.118 166.81 163.416C168.691 161.842 170.755 160.013 172.602 158.244C176.374 154.662 179.858 150.782 183.046 146.665C186.226 142.539 189.065 138.14 191.409 133.461C197.445 121.389 197.445 110.482 197.445 110.482L191.321 115.612Z"/><path fill="url(#paint2_linear_418_9053)" d="M144.606 112.575C144.606 112.575 154.58 105.48 160.251 100.443C165.573 95.7129 170.869 88.8983 173.273 87.3074C175.677 85.7165 179.292 84.9593 180.747 87.3074C180.747 87.3074 172.733 96.8784 169.641 99.7114C167.237 101.906 163.517 104.127 158.874 106.577C152.812 109.767 144.606 112.575 144.606 112.575Z"/><path fill="url(#paint3_linear_418_9053)" d="M168.595 90.3699C168.595 90.3699 165.433 88.226 161.217 91.7566C158.334 94.1643 152.646 100.826 152.646 100.826L142.751 112.838C142.751 112.838 151.836 106.339 157.629 101.336C163.221 96.5039 168.595 90.3699 168.595 90.3699Z"/><path fill="url(#paint4_linear_418_9053)" d="M167.21 54.553C166.174 60.3552 161.513 64.6515 155.904 65.6129V65.6214C155.904 65.6214 151.801 66.0808 150.991 68.6586C150.982 68.7096 150.965 68.7522 150.956 68.7862L150.947 68.7947C150.268 70.3431 148.761 71.4576 146.871 71.7043C138.578 72.8018 138.387 66.5572 138.369 66.4721C138.369 66.4551 138.36 66.4381 138.36 66.4296C138.36 66.4211 138.36 66.4126 138.36 66.4126C137.803 63.5966 136.653 61.291 135.338 59.4449C135.338 59.4449 135.338 59.4449 135.329 59.4279C135.329 59.4279 132.568 50.1121 141 45.5009C140.529 45.5775 132.498 47.1854 133.169 56.8926C130.922 54.6721 128.796 53.6002 128.517 53.4811C137.306 61.9716 137.167 69.5859 133.927 75.1669C131.479 79.3867 125.939 82.9684 118.648 81.9219C118.204 81.8624 117.795 81.7858 117.394 81.7092C110.539 80.331 108.239 76.6047 107.803 75.7794C115.147 72.1042 111.81 65.8426 111.41 65.179C111.645 65.8936 113.465 71.9085 107.072 74.5544C100.652 77.2087 97.0632 72.0361 97.0632 72.0361C98.3001 76.5792 103.448 77.0301 106.471 76.2729C106.993 77.2598 109.084 80.6543 113.422 82.3473C113.256 82.4409 113.1 82.543 112.96 82.6451C109.711 84.8741 106.392 91.2462 104.572 96.6656C104.363 97.2781 103.814 97.712 103.161 97.7716C101.279 97.9757 99.6589 98.2225 98.3001 98.4692C97.3158 98.6478 96.3576 97.9332 96.375 96.9378C96.4011 95.4064 95.9743 93.9942 94.6416 93.0839C92.8646 91.8843 90.6172 91.6546 88.4396 91.6886C87.0459 91.6971 85.5999 91.4419 84.1626 90.8974C80.8439 89.5958 78.5268 86.7798 77.7167 83.3682C77.3857 81.9645 77.3509 80.6458 77.5425 79.4207C77.708 78.4083 76.8805 77.4554 75.8178 77.4725C74.2412 77.4725 72.5687 77.1407 70.9572 76.375C69.3893 75.6263 68.013 74.4693 67.142 72.9804C64.8598 69.0244 65.4434 64.2602 66.2099 62.2013C68.1263 57.0883 74.3021 48.6998 87.5859 52.2219C87.3856 52.0943 85.6609 51.1245 83.1348 50.4864C83.6748 41.63 75.1471 41.3748 75.1471 41.3748C81.5494 42.9317 81.6452 48.2659 81.471 50.1206C78.1348 49.5591 73.8753 49.7207 69.8249 52.5112C67.3423 54.2127 64.9033 56.4417 63.379 60.3212C61.2448 56.9777 60.3128 52.911 61.0532 48.7338C61.9765 43.6463 65.1908 39.4861 69.4764 37.138C70.182 36.7637 70.4259 35.981 70.2255 35.2238C69.6332 32.9352 69.8684 27.2352 73.5008 23.5514C75.2429 21.7818 77.8474 20.2759 81.7149 19.6634C81.9763 19.6038 82.2376 19.5698 82.4902 19.5443C82.4902 19.5443 82.4902 19.5443 82.4989 19.5443C83.0651 19.5018 83.6487 19.5103 84.241 19.6038C84.3368 19.6209 84.4152 19.6634 84.4849 19.6719C86.8281 16.3539 91.0092 14.4653 95.3384 15.2139C96.2269 15.3756 97.0719 15.6223 97.8558 15.9626C98.6398 16.2859 99.5718 16.0817 100.042 15.3841C100.042 15.3841 102.638 10.4412 110.713 9.99027C116.427 9.64997 120.373 11.5727 122.742 13.2827C123.544 13.7591 124.249 14.3632 124.833 15.0608C124.842 15.0693 124.85 15.0778 124.876 15.0948L124.902 15.1289C125.068 15.333 125.216 15.5457 125.364 15.7669C117.812 19.7485 118.753 27.2947 118.753 27.2947C120.495 21.4245 123.239 16.5326 130.225 16.941C135.111 17.2132 138.212 20.5057 138.482 22.0285C138.622 22.8282 139.388 23.3472 140.216 23.2876C141.305 23.2111 142.428 23.2536 143.552 23.4493C148.717 24.3426 152.681 27.8902 154.292 32.3908C154.501 32.9693 155.085 33.3096 155.721 33.2926C157.062 33.25 158.482 33.6754 159.78 34.7474C160.425 35.2833 160.912 35.998 161.174 36.7977C161.522 37.9037 161.583 38.9161 161.4 39.8179C161.278 40.4389 161.461 41.06 161.966 41.4258C165.973 44.412 168.142 49.3889 167.21 54.553Z"/><path fill="url(#paint5_linear_418_9053)" d="M57.0637 154.551C61.7414 157.282 66.5584 159.554 71.4973 161.451C76.4537 163.297 81.5146 164.777 86.6713 165.832C96.9586 167.925 107.621 168.674 118.073 167.525C120.687 167.253 123.282 166.836 125.869 166.36C128.439 165.815 131.009 165.245 133.535 164.488C138.596 163.042 143.517 161.111 148.265 158.805C150.634 157.64 152.96 156.389 155.224 155.028C157.48 153.65 159.684 152.186 161.836 150.638C166.104 147.499 170.146 144.027 173.665 140.003C172.245 142.258 170.599 144.385 168.804 146.393C167.027 148.417 165.094 150.315 163.073 152.11C159.048 155.742 154.545 158.856 149.824 161.63C140.312 167.049 129.624 170.648 118.613 172C113.117 172.698 107.551 172.851 102.02 172.545C96.497 172.196 90.9918 171.473 85.6347 170.061C80.2777 168.682 75.0687 166.709 70.2256 164.131C65.3824 161.545 60.8529 158.38 57.0637 154.551Z"/><path fill="#30E6EA" d="M5.82745 259.451C6.44591 259.962 6.75949 260.659 6.75949 261.544C6.75949 262.429 6.44591 263.127 5.82745 263.637C5.20028 264.148 4.34663 264.394 3.26651 264.394H1.19336V266.87H0V258.686H3.26651C4.35534 258.694 5.20899 258.949 5.82745 259.451ZM4.96509 262.905C5.36578 262.591 5.56613 262.14 5.56613 261.544C5.56613 260.949 5.36578 260.498 4.96509 260.183C4.5644 259.868 3.98949 259.706 3.23166 259.706H1.19336V263.373H3.23166C3.98949 263.382 4.5644 263.22 4.96509 262.905Z"/><path fill="#30E6EA" d="M16.0364 265.858V266.87H9.9563V258.686H15.8709V259.698H11.1584V262.208H15.3569V263.203H11.1584V265.849H16.0364V265.858Z"/><path fill="#30E6EA" d="M19.4163 258.694H22.9441C23.8326 258.694 24.6165 258.864 25.3047 259.205C25.9928 259.545 26.5242 260.03 26.9074 260.651C27.282 261.272 27.4736 261.978 27.4736 262.786C27.4736 263.595 27.282 264.301 26.9074 264.922C26.5242 265.543 25.9928 266.019 25.3047 266.368C24.6165 266.708 23.8326 266.879 22.9441 266.879H19.4163V258.694ZM22.8744 265.858C23.5538 265.858 24.1462 265.73 24.6601 265.475C25.174 265.22 25.5747 264.854 25.8534 264.394C26.1322 263.935 26.2716 263.399 26.2716 262.786C26.2716 262.182 26.1322 261.646 25.8534 261.178C25.5747 260.711 25.174 260.353 24.6601 260.098C24.1462 259.843 23.5451 259.715 22.8744 259.715H20.6096V265.866H22.8744V265.858Z"/><path fill="#30E6EA" d="M31.5937 266.036C30.9752 265.415 30.6616 264.513 30.6616 263.348V258.694H31.855V263.297C31.855 265.049 32.6389 265.926 34.2156 265.926C34.9821 265.926 35.5657 265.713 35.9751 265.279C36.3845 264.845 36.5849 264.19 36.5849 263.297V258.694H37.7434V263.348C37.7434 264.522 37.4298 265.424 36.8114 266.045C36.1842 266.666 35.3218 266.972 34.1982 266.972C33.0919 266.972 32.2208 266.657 31.5937 266.036Z"/><path fill="#30E6EA" d="M41.6372 258.694H42.8306V265.857H47.3688V266.87H41.6372V258.694Z"/><path fill="#30E6EA" d="M50.1824 258.694H51.3757V266.879H50.1824V258.694Z"/><path fill="#30E6EA" d="M62.7172 263.237L61.1841 264.76V266.879H59.9907V258.694H61.1841V263.263L65.731 258.694H67.0986L63.5185 262.378L67.3251 266.879H65.9227L62.7172 263.237Z"/><path fill="#30E6EA" d="M76.114 265.858V266.87H70.0339V258.686H75.9485V259.698H71.236V262.208H75.4346V263.203H71.236V265.849H76.114V265.858Z"/><path fill="#30E6EA" d="M80.1035 266.681C79.5199 266.494 79.0582 266.239 78.7185 265.941L79.1627 265.031C79.485 265.312 79.8944 265.541 80.391 265.712C80.8875 265.89 81.4014 265.975 81.9327 265.975C82.6296 265.975 83.1435 265.856 83.4919 265.627C83.8317 265.397 84.0059 265.091 84.0059 264.708C84.0059 264.427 83.9101 264.197 83.7271 264.027C83.5355 263.848 83.309 263.721 83.0303 263.627C82.7515 263.534 82.3683 263.432 81.8631 263.312C81.2359 263.168 80.722 263.015 80.3387 262.87C79.9554 262.725 79.6244 262.496 79.3457 262.189C79.0669 261.883 78.9363 261.466 78.9363 260.947C78.9363 260.513 79.0495 260.113 79.2934 259.765C79.5286 259.416 79.8857 259.135 80.3648 258.922C80.8439 258.71 81.4362 258.608 82.1505 258.608C82.647 258.608 83.1348 258.667 83.6139 258.795C84.093 258.922 84.5024 259.101 84.8508 259.331L84.4588 260.267C84.1104 260.045 83.7358 259.884 83.3352 259.773C82.9345 259.663 82.5425 259.603 82.1592 259.603C81.4798 259.603 80.9746 259.722 80.6348 259.969C80.2951 260.207 80.1296 260.522 80.1296 260.905C80.1296 261.185 80.2254 261.415 80.4171 261.585C80.6087 261.764 80.8439 261.9 81.1314 261.994C81.4188 262.087 81.8021 262.198 82.2899 262.3C82.917 262.445 83.4223 262.598 83.8142 262.742C84.1975 262.887 84.5285 263.117 84.7985 263.423C85.0773 263.729 85.2079 264.138 85.2079 264.648C85.2079 265.073 85.086 265.465 84.8508 265.822C84.6156 266.18 84.2498 266.46 83.762 266.664C83.2742 266.869 82.6731 266.971 81.9676 266.971C81.2969 266.971 80.6871 266.869 80.1035 266.681Z"/><path fill="#30E6EA" d="M94.4326 265.858V266.87H88.3525V258.686H94.2671V259.698H89.5546V262.208H93.7531V263.203H89.5546V265.849H94.4326V265.858Z"/><path fill="#30E6EA" d="M105.016 258.694V266.879H103.823V263.229H99.0144V266.879H97.821V258.694H99.0144V262.216H103.823V258.694H105.016Z"/><path fill="#30E6EA" d="M114.302 264.828H109.85L108.927 266.87H107.69L111.488 258.686H112.673L116.479 266.87H115.225L114.302 264.828ZM113.883 263.892L112.072 259.885L110.269 263.892H113.883Z"/><path fill="#30E6EA" d="M120.408 259.707H117.533V258.694H124.467V259.707H121.592V266.87H120.408V259.707Z"/><path fill="#30E6EA" d="M132.124 264.828H127.673L126.749 266.87H125.512L129.31 258.686H130.495L134.302 266.87H133.047L132.124 264.828ZM131.706 263.892L129.903 259.885L128.091 263.892H131.706Z"/><path fill="#30E6EA" d="M144.188 258.694V266.879H143.204L138.178 260.779V266.879H136.984V258.694H137.969L142.995 264.794V258.694H144.188Z"/><path fill="#30E6EA" d="M160.564 266.879L160.555 260.915L157.524 265.883H156.975L153.944 260.949V266.879H152.794V258.694H153.778L157.271 264.445L160.721 258.694H161.705L161.714 266.879H160.564Z"/><path fill="#30E6EA" d="M171.74 265.858V266.87H165.66V258.686H171.574V259.698H166.862V262.208H171.06V263.203H166.862V265.849H171.74V265.858Z"/><path fill="#30E6EA" d="M182.323 258.694V266.879H181.339L176.313 260.779V266.879H175.12V258.694H176.104L181.13 264.794V258.694H182.323Z"/><path fill="#30E6EA" d="M187.933 259.707H185.059V258.694H191.992V259.707H189.118V266.87H187.933V259.707Z"/><path fill="#30E6EA" d="M199.658 264.828H195.207L194.283 266.87H193.046L196.844 258.686H198.029L201.835 266.87H200.581L199.658 264.828ZM199.231 263.892L197.428 259.885L195.616 263.892H199.231Z"/><path fill="#30E6EA" d="M204.51 258.694H205.703V265.857H210.241V266.87H204.51V258.694Z"/><path fill="#30E6EA" d="M21.8638 278.856H17.4127L16.4894 280.898H15.2524L19.0503 272.714H20.235L24.0415 280.898H22.7872L21.8638 278.856ZM21.4457 277.92L19.6339 273.913L17.8308 277.92H21.4457Z"/><path fill="#30E6EA" d="M33.9281 272.722V280.906H32.9438L27.9177 274.806V280.906H26.7244V272.722H27.7087L32.7347 278.822V272.722H33.9281Z"/><path fill="#30E6EA" d="M43.2137 278.856H38.7625L37.8392 280.898H36.6023L40.4002 272.714H41.5848L45.3914 280.898H44.137L43.2137 278.856ZM42.7956 277.92L40.9925 273.913L39.1807 277.92H42.7956Z"/><path fill="#30E6EA" d="M50.8007 277.265L49.2676 278.788V280.906H48.0742V272.722H49.2676V277.29L53.8146 272.722H55.1822L51.6021 276.406L55.4086 280.906H54.0062L50.8007 277.265Z"/><path fill="#30E6EA" d="M70.5392 280.906L70.5305 274.942L67.4992 279.911H66.9504L63.9191 274.976V280.906H62.7693V272.722H63.7536L67.2466 278.473L70.696 272.722H71.6803L71.689 280.906H70.5392Z"/><path fill="#30E6EA" d="M76.4972 280.064C75.8788 279.443 75.5652 278.541 75.5652 277.376V272.722H76.7586V277.325C76.7586 279.077 77.5425 279.954 79.1191 279.954C79.8857 279.954 80.4693 279.741 80.8787 279.307C81.2881 278.873 81.4885 278.218 81.4885 277.325V272.722H82.647V277.376C82.647 278.55 82.3334 279.452 81.7149 280.073C81.0878 280.694 80.2254 281 79.1017 281C77.9955 281 77.1244 280.685 76.4972 280.064Z"/><path fill="#30E6EA" d="M86.5408 272.722H90.0686C90.9571 272.722 91.741 272.892 92.4292 273.233C93.1173 273.573 93.6487 274.058 94.0232 274.679C94.3978 275.3 94.5894 276.006 94.5894 276.814C94.5894 277.622 94.3978 278.328 94.0232 278.949C93.6487 279.57 93.1086 280.047 92.4292 280.396C91.741 280.736 90.9571 280.906 90.0686 280.906H86.5408V272.722ZM89.9989 279.885C90.6783 279.885 91.2707 279.758 91.7846 279.502C92.2985 279.247 92.6992 278.881 92.9779 278.422C93.2567 277.954 93.3961 277.427 93.3961 276.814C93.3961 276.202 93.2567 275.674 92.9779 275.206C92.6992 274.738 92.2985 274.381 91.7846 274.126C91.2707 273.871 90.6696 273.743 89.9989 273.743H87.7341V279.894H89.9989V279.885Z"/><path fill="#30E6EA" d="M103.082 278.856H98.6312L97.7079 280.898H96.4709L100.269 272.714H101.453L105.26 280.898H104.006L103.082 278.856ZM102.664 277.92L100.861 273.913L99.0493 277.92H102.664Z"/><path fill="#30E6EA" d="M112.594 272.722H113.788V280.906H112.594V272.722Z"/><path fill="#30E6EA" d="M124.946 272.722V280.906H123.962L118.936 274.806V280.906H117.742V272.722H118.726L123.753 278.822V272.722H124.946Z"/><path fill="#30E6EA" d="M128.901 272.722H132.428C133.317 272.722 134.101 272.892 134.789 273.233C135.477 273.573 136.009 274.058 136.383 274.679C136.758 275.3 136.949 276.006 136.949 276.814C136.949 277.622 136.758 278.328 136.383 278.949C136.009 279.57 135.468 280.047 134.789 280.396C134.101 280.736 133.317 280.906 132.428 280.906H128.901V272.722ZM132.359 279.885C133.038 279.885 133.631 279.758 134.144 279.502C134.658 279.247 135.059 278.881 135.338 278.422C135.617 277.954 135.756 277.427 135.756 276.814C135.756 276.202 135.617 275.674 135.338 275.206C135.059 274.738 134.658 274.381 134.144 274.126C133.631 273.871 133.029 273.743 132.359 273.743H130.094V279.894H132.359V279.885Z"/><path fill="#30E6EA" d="M141.714 280.455C141.035 280.09 140.503 279.596 140.12 278.949C139.737 278.311 139.536 277.597 139.536 276.814C139.536 276.031 139.728 275.317 140.12 274.679C140.503 274.041 141.043 273.539 141.714 273.173C142.393 272.807 143.151 272.628 143.996 272.628C144.832 272.628 145.59 272.807 146.27 273.173C146.949 273.539 147.481 274.032 147.864 274.67C148.247 275.308 148.439 276.023 148.439 276.814C148.439 277.605 148.247 278.32 147.864 278.958C147.481 279.596 146.949 280.09 146.27 280.455C145.59 280.821 144.832 281 143.996 281C143.16 281 142.393 280.813 141.714 280.455ZM145.66 279.545C146.148 279.273 146.54 278.898 146.819 278.414C147.097 277.937 147.245 277.401 147.245 276.806C147.245 276.21 147.106 275.674 146.819 275.198C146.54 274.721 146.148 274.338 145.66 274.066C145.172 273.794 144.615 273.658 144.005 273.658C143.395 273.658 142.838 273.794 142.332 274.066C141.836 274.338 141.444 274.713 141.157 275.198C140.878 275.674 140.73 276.21 140.73 276.806C140.73 277.401 140.869 277.937 141.157 278.414C141.435 278.89 141.827 279.273 142.332 279.545C142.829 279.817 143.387 279.953 144.005 279.953C144.615 279.953 145.172 279.817 145.66 279.545Z"/><path fill="#30E6EA" d="M158.918 272.722V280.906H157.933L152.907 274.806V280.906H151.714V272.722H152.698L157.724 278.822V272.722H158.918Z"/><path fill="#30E6EA" d="M168.944 279.886V280.898H162.864V272.714H168.778V273.726H164.066V276.236H168.264V277.231H164.066V279.877H168.944V279.886Z"/><path fill="#30E6EA" d="M172.942 280.711C172.358 280.523 171.897 280.268 171.557 279.97L172.001 279.06C172.323 279.341 172.733 279.571 173.229 279.741C173.726 279.919 174.24 280.004 174.771 280.004C175.468 280.004 175.982 279.885 176.33 279.656C176.67 279.426 176.844 279.12 176.844 278.737C176.844 278.456 176.748 278.226 176.566 278.056C176.374 277.878 176.147 277.75 175.869 277.656C175.59 277.563 175.207 277.461 174.701 277.342C174.074 277.197 173.56 277.044 173.177 276.899C172.794 276.755 172.463 276.525 172.184 276.219C171.905 275.912 171.775 275.496 171.775 274.977C171.775 274.543 171.888 274.143 172.132 273.794C172.367 273.445 172.724 273.164 173.203 272.952C173.682 272.739 174.275 272.637 174.989 272.637C175.485 272.637 175.973 272.697 176.452 272.824C176.931 272.952 177.341 273.13 177.689 273.36L177.297 274.296C176.949 274.075 176.574 273.913 176.174 273.803C175.773 273.692 175.381 273.632 174.998 273.632C174.318 273.632 173.813 273.751 173.473 273.998C173.134 274.236 172.968 274.551 172.968 274.934C172.968 275.215 173.064 275.444 173.255 275.615C173.447 275.793 173.682 275.929 173.97 276.023C174.257 276.117 174.64 276.227 175.128 276.329C175.755 276.474 176.261 276.627 176.653 276.772C177.036 276.916 177.367 277.146 177.637 277.452C177.916 277.758 178.046 278.167 178.046 278.677C178.046 279.103 177.924 279.494 177.689 279.851C177.454 280.209 177.088 280.489 176.6 280.694C176.113 280.898 175.512 281 174.806 281C174.135 281 173.525 280.898 172.942 280.711Z"/><path fill="#30E6EA" d="M181.191 272.722H182.384V280.906H181.191V272.722Z"/><path fill="#30E6EA" d="M191.679 278.856H187.227L186.304 280.898H185.067L188.865 272.714H190.05L193.856 280.898H192.602L191.679 278.856ZM191.26 277.92L189.457 273.913L187.645 277.92H191.26Z"/><path fill="#025DD5" d="M12.4912 246.459C10.0173 246.459 7.69159 246.076 5.51392 245.311C3.33625 244.545 1.59411 243.413 0.304932 241.916L3.65854 237.832C5.11323 239.134 6.63759 240.112 8.22294 240.768C9.81699 241.423 11.4546 241.746 13.1445 241.746C14.5208 241.746 15.7054 241.567 16.7071 241.21C17.7089 240.853 18.4841 240.325 19.0329 239.628C19.5817 238.93 19.8604 238.113 19.8604 237.169C19.8604 236.063 19.3465 235.272 18.3273 234.778C17.3082 234.285 15.7577 233.732 13.6758 233.128C11.6724 232.524 10.026 231.945 8.72816 231.392C7.43027 230.839 6.4808 230.175 5.87106 229.393C5.26131 228.619 4.95643 227.564 4.95643 226.228C4.95643 224.135 5.55747 222.297 6.75083 220.698C7.9442 219.098 9.5818 217.848 11.6375 216.938C13.6932 216.027 15.9842 215.568 18.5015 215.568C20.8186 215.568 22.8395 215.917 24.5729 216.606C26.2976 217.295 27.7697 218.29 28.9892 219.6L25.4527 223.395C24.3116 222.28 23.153 221.481 21.9771 220.979C20.8012 220.477 19.4597 220.23 17.9702 220.23C16.7158 220.23 15.5748 220.4 14.5556 220.74C13.5365 221.081 12.7264 221.583 12.1427 222.246C11.5504 222.91 11.263 223.752 11.263 224.773C11.263 225.794 11.6637 226.534 12.4737 226.985C13.2751 227.436 14.6863 227.929 16.6897 228.457C18.8064 229.027 20.6095 229.648 22.0816 230.312C23.5537 230.975 24.6426 231.758 25.3481 232.651C26.0537 233.545 26.4108 234.736 26.4108 236.216C26.4108 238.19 25.8446 239.951 24.7035 241.491C23.5624 243.031 21.951 244.247 19.8691 245.14C17.7786 246.008 15.3221 246.459 12.4912 246.459Z"/><path fill="#025DD5" d="M43.24 246.459C40.6878 246.459 38.4753 245.906 36.6112 244.809C34.7471 243.703 33.336 242.205 32.3691 240.308C31.4022 238.411 30.9057 236.242 30.8708 233.808C30.9057 231.375 31.4022 229.078 32.343 226.909C33.2837 224.739 34.6164 222.791 36.3499 221.064C38.0746 219.337 40.0868 217.984 42.3864 217.014C44.686 216.045 47.186 215.56 49.895 215.56C52.0552 215.56 53.928 215.874 55.5221 216.504C57.1161 217.134 58.3356 218.044 59.2067 219.235C60.0691 220.435 60.5046 221.923 60.5046 223.71C60.5394 226.79 59.137 229.121 56.2886 230.72C53.4402 232.32 49.0936 233.111 43.24 233.111C42.1425 233.111 40.9056 233.085 39.5293 233.026C38.153 232.966 36.6025 232.864 34.8778 232.711L35.7575 228.627C37.3255 228.704 38.7192 228.78 39.9387 228.857C41.1582 228.934 42.2993 228.968 43.3533 228.968C46.1407 228.968 48.3358 228.763 49.9472 228.347C51.5587 227.93 52.7172 227.351 53.4228 226.594C54.1284 225.845 54.5029 224.978 54.5378 223.999C54.5378 223.131 54.3113 222.425 53.8583 221.881C53.4054 221.336 52.7869 220.919 52.003 220.639C51.219 220.358 50.2782 220.213 49.172 220.213C47.4037 220.213 45.801 220.579 44.3724 221.319C42.9351 222.059 41.6982 223.08 40.6617 224.382C39.6164 225.692 38.8063 227.164 38.214 228.814C37.6216 230.465 37.3516 232.175 37.3864 233.953C37.3864 235.391 37.6303 236.701 38.1268 237.867C38.6146 239.041 39.3812 239.985 40.4265 240.708C41.463 241.431 42.7696 241.788 44.3463 241.788C46.0361 241.788 47.665 241.38 49.233 240.555C50.8009 239.73 52.0204 238.607 52.8827 237.186L58.0656 238.743C57.0813 240.198 55.8008 241.516 54.2068 242.682C52.6127 243.856 50.8793 244.775 48.9891 245.447C47.1337 246.119 45.2086 246.459 43.24 246.459Z"/><path fill="#025DD5" d="M71.0443 203.878H77.5251L73.5791 222C75.1122 219.983 76.9763 218.41 79.1714 217.269C81.3665 216.129 83.5877 215.559 85.8263 215.559C87.6294 215.559 89.0493 215.866 90.0684 216.47C91.0876 217.074 91.828 217.933 92.281 219.031C92.7339 220.137 92.9604 221.387 92.9604 222.791C92.9604 223.548 92.9081 224.339 92.8123 225.156C92.7165 225.973 92.5858 226.815 92.429 227.691L88.4221 245.872H81.8804L85.5912 229.206C85.7044 228.559 85.8089 227.964 85.8873 227.419C85.9657 226.866 86.0093 226.347 86.0093 225.854C86.0093 224.297 85.6521 223.131 84.9466 222.357C84.241 221.583 83.2393 221.192 81.9414 221.192C80.8787 221.192 79.7289 221.489 78.4919 222.093C77.255 222.697 76.0878 223.514 74.9903 224.552C73.8927 225.59 72.9868 226.79 72.2812 228.142L68.3963 245.864H61.9155L71.0443 203.878Z"/><path fill="#025DD5" d="M107.742 246.459C105.46 246.459 103.5 245.906 101.854 244.809C100.208 243.703 98.9447 242.222 98.0823 240.359C97.22 238.496 96.7844 236.429 96.7844 234.149C96.7844 231.716 97.2374 229.393 98.1433 227.164C99.0492 224.944 100.295 222.961 101.88 221.234C103.474 219.507 105.277 218.129 107.298 217.1C109.319 216.07 111.471 215.56 113.744 215.56C115.983 215.56 117.864 216.147 119.397 217.329C120.93 218.503 121.967 219.95 122.516 221.66L123.814 216.019H130.355L125.408 238.147C125.364 238.3 125.338 238.445 125.321 238.598C125.303 238.751 125.295 238.896 125.295 239.049C125.295 239.764 125.73 240.138 126.592 240.181L125.477 245.591C124.929 245.668 124.432 245.736 124.005 245.796C123.57 245.855 123.178 245.881 122.829 245.881C121.61 245.881 120.669 245.642 119.998 245.149C119.328 244.664 118.997 243.983 118.997 243.124C118.997 242.911 119.005 242.682 119.023 242.452C119.04 242.222 119.084 241.933 119.136 241.584C119.197 241.244 119.284 240.895 119.397 240.529C117.908 242.393 116.096 243.847 113.979 244.894C111.871 245.932 109.789 246.459 107.742 246.459ZM110.573 241.048C111.357 241.048 112.194 240.895 113.073 240.597C113.953 240.3 114.824 239.891 115.669 239.381C116.514 238.87 117.298 238.258 118.021 237.543C118.744 236.829 119.284 236.037 119.641 235.17L121.349 227.36C121.192 226.152 120.791 225.071 120.138 224.11C119.493 223.148 118.674 222.383 117.69 221.821C116.706 221.251 115.652 220.97 114.511 220.97C113.056 220.97 111.671 221.319 110.356 222.017C109.04 222.715 107.882 223.65 106.88 224.824C105.878 225.998 105.086 227.3 104.493 228.738C103.901 230.176 103.614 231.63 103.614 233.102C103.614 234.617 103.901 235.952 104.467 237.126C105.033 238.3 105.844 239.245 106.88 239.959C107.934 240.691 109.162 241.048 110.573 241.048Z"/><path fill="#025DD5" d="M134.371 241.533C134.371 241.227 134.397 240.912 134.458 240.588C134.519 240.265 134.562 239.967 134.606 239.704L138.726 220.919H134.78L135.895 216.027H139.728L141.906 206.133H148.386L146.209 216.027H152.567L151.505 220.919H145.146L141.548 237.619C141.505 237.772 141.47 237.926 141.427 238.079C141.392 238.232 141.366 238.368 141.366 238.479C141.366 239.244 141.609 239.797 142.097 240.138C142.585 240.478 143.169 240.648 143.839 240.648C144.432 240.648 145.015 240.571 145.608 240.418C146.2 240.265 146.723 240.104 147.202 239.925C147.672 239.755 148.047 239.593 148.317 239.431L148.552 244.434C147.96 244.783 147.228 245.106 146.339 245.412C145.451 245.719 144.501 245.965 143.482 246.161C142.463 246.357 141.4 246.45 140.303 246.45C138.613 246.45 137.202 246.05 136.061 245.251C134.937 244.451 134.371 243.209 134.371 241.533Z"/><path fill="#025DD5" d="M152.341 245.881L153.988 238.513H159.345L157.698 245.881H152.341Z"/><path fill="#025DD5" d="M171.539 216.019H178.081L171.539 245.881H165.059L171.539 216.019ZM174.196 204.109H180.677L179.144 211.068H172.663L174.196 204.109Z"/><path fill="#025DD5" d="M185.625 216.019H191.513L190.215 222C191.234 220.673 192.463 219.533 193.9 218.58C195.337 217.627 196.862 216.887 198.499 216.359C200.128 215.823 201.792 215.56 203.473 215.56C205.198 215.56 206.557 215.866 207.541 216.47C208.525 217.074 209.222 217.899 209.631 218.92C210.041 219.95 210.25 221.158 210.25 222.57C210.25 223.327 210.189 224.144 210.076 225.02C209.954 225.896 209.823 226.79 209.666 227.7L205.659 245.881H199.118L202.828 229.214C203.029 228.491 203.151 227.845 203.212 227.249C203.273 226.662 203.299 226.101 203.299 225.573C203.299 224.059 202.976 222.953 202.323 222.247C201.679 221.549 200.72 221.192 199.466 221.192C198.369 221.192 197.175 221.506 195.903 222.128C194.623 222.749 193.421 223.574 192.28 224.586C191.139 225.607 190.215 226.79 189.51 228.151L185.625 245.872H179.144L185.625 216.019Z"/><defs><linearGradient id="paint0_linear_418_9053" x1="6.238" x2="134.995" y1="39.28" y2="193.711" gradientUnits="userSpaceOnUse"><stop stop-color="#B5E970"/><stop offset=".516" stop-color="#40E2BD"/><stop offset="1" stop-color="#2EE6EF"/></linearGradient><linearGradient id="paint1_linear_418_9053" x1="37.152" x2="165.909" y1="13.505" y2="167.935" gradientUnits="userSpaceOnUse"><stop stop-color="#B5E970"/><stop offset=".516" stop-color="#40E2BD"/><stop offset="1" stop-color="#2EE6EF"/></linearGradient><linearGradient id="paint2_linear_418_9053" x1="66.076" x2="194.833" y1="-10.611" y2="143.82" gradientUnits="userSpaceOnUse"><stop stop-color="#B5E970"/><stop offset=".516" stop-color="#40E2BD"/><stop offset="1" stop-color="#2EE6EF"/></linearGradient><linearGradient id="paint3_linear_418_9053" x1="61.17" x2="189.927" y1="-6.518" y2="147.911" gradientUnits="userSpaceOnUse"><stop stop-color="#B5E970"/><stop offset=".516" stop-color="#40E2BD"/><stop offset="1" stop-color="#2EE6EF"/></linearGradient><linearGradient id="paint4_linear_418_9053" x1="137.042" x2="83.229" y1="79.127" y2="20.514" gradientUnits="userSpaceOnUse"><stop stop-color="#0056D4"/><stop offset="1" stop-color="#2EFFEF"/></linearGradient><linearGradient id="paint5_linear_418_9053" x1="142.93" x2="90.995" y1="174.208" y2="121.033" gradientUnits="userSpaceOnUse"><stop stop-color="#0056D4"/><stop offset="1" stop-color="#2EFFEF"/></linearGradient></defs></svg>