<svg width="181" height="40" viewBox="0 0 181 40" fill="none" xmlns="http://www.w3.org/2000/svg">
<path d="M11.9897 21.4947C11.8962 21.1438 11.7767 20.7981 11.6417 20.4577C11.4962 20.1121 11.3404 19.7926 11.169 19.4837C10.8313 18.8552 10.4521 18.253 10.0677 17.6716C9.68331 17.0903 9.28852 16.53 8.96645 15.9644C8.64439 15.425 8.38985 14.807 8.17688 14.1943C8.06779 13.8853 7.97429 13.5763 7.89637 13.2621C7.85481 13.105 7.82364 12.9479 7.79248 12.7908C7.76131 12.6389 7.73533 12.4661 7.71975 12.3456L7.55872 10.8688L6.54577 11.9319C6.38994 12.0995 6.27565 12.2304 6.15098 12.3823C6.03151 12.5289 5.91723 12.6808 5.80814 12.8327C5.58997 13.1364 5.38218 13.4506 5.19518 13.7753C4.82117 14.4247 4.5043 15.1108 4.26015 15.823C4.14068 16.1791 4.03678 16.5405 3.94848 16.907C3.86017 17.2736 3.79783 17.6402 3.75108 18.0278C3.70433 18.3996 3.68355 18.7662 3.66797 19.138V19.6984C3.67316 19.8869 3.68355 20.0702 3.68875 20.2587C3.70953 20.6306 3.76147 21.0024 3.81861 21.369L3.9277 21.9189C3.97445 22.1022 4.01081 22.2802 4.06276 22.4583C4.16145 22.8144 4.27574 23.1705 4.42638 23.5109C4.56663 23.8566 4.72767 24.1865 4.90948 24.5112C5.0809 24.8359 5.28868 25.1449 5.50685 25.4381C5.72503 25.7314 5.95878 26.0142 6.20812 26.2761C6.46266 26.5379 6.72758 26.7788 7.00809 27.004C7.29379 27.224 7.58989 27.4282 7.90676 27.5853C7.37691 27.114 6.93537 26.5641 6.55097 25.9933C6.35877 25.7052 6.17696 25.4119 6.02112 25.1082C5.9432 24.9563 5.86528 24.8045 5.79775 24.6473C5.72503 24.4955 5.6575 24.3384 5.59516 24.1812C5.47049 23.867 5.36141 23.5423 5.2731 23.2176C5.22635 23.0553 5.18479 22.8929 5.14843 22.7254C5.10687 22.563 5.0757 22.3954 5.04454 22.2331C5.01337 22.0655 4.99259 21.8979 4.96662 21.7356L4.90948 21.2223C4.89909 21.0548 4.8887 20.8872 4.8835 20.7196L4.87311 20.2168C4.87831 20.0493 4.87831 19.8817 4.8835 19.7141L4.91467 19.2113L4.96662 18.7086C4.9874 18.5619 5.00817 18.3525 5.03934 18.2111C5.09129 17.8968 5.16401 17.5617 5.24712 17.2475C5.33024 16.9175 5.42894 16.6033 5.54322 16.2891C5.77697 15.6659 6.05229 15.0636 6.38994 14.4875C6.48863 14.32 6.58733 14.1576 6.69642 13.9953C6.76395 14.2152 6.83667 14.4352 6.91978 14.6551C7.04965 14.9955 7.1951 15.3307 7.35093 15.6606C7.50677 15.9853 7.68339 16.3153 7.88598 16.6295C8.08337 16.9385 8.29116 17.2265 8.49894 17.5145L9.1171 18.3472C9.53266 18.8919 9.92745 19.4365 10.2859 20.0021C10.4677 20.2849 10.6339 20.573 10.7794 20.861C10.93 21.149 11.0703 21.4475 11.1845 21.7565C11.4183 22.3692 11.5586 23.0134 11.6001 23.6628C11.6417 24.3122 11.5326 24.972 11.278 25.5848C11.0183 26.1923 10.5872 26.7369 10.0417 27.1611C10.6599 26.8574 11.2157 26.3703 11.5897 25.7524C11.9741 25.1344 12.1715 24.4064 12.2235 23.6733C12.2806 22.9401 12.1767 22.2017 11.9897 21.4947Z" fill="url(#paint0_linear_552_473)"/>
<path d="M36.4979 25.1185C36.3992 25.2023 36.2642 25.3123 36.1395 25.4013C36.0148 25.4956 35.885 25.5898 35.7499 25.6789C35.485 25.8622 35.2149 26.035 34.9344 26.1973C34.3786 26.522 33.802 26.8101 33.2046 27.0457C32.176 27.4647 31.0956 27.7318 29.9995 27.8103C31.0073 26.7996 32.7942 25.2599 33.6409 24.1601C34.3682 23.2122 35.2045 21.3479 35.6928 20.29C35.885 19.8658 36.1032 19.473 36.046 19.2583C35.9317 18.8341 35.272 18.8708 34.9707 19.0017C34.2902 19.3107 32.7942 21.6516 31.641 22.4319C30.4878 23.207 27.558 24.9352 25.7036 24.8305C23.8543 24.7257 22.7998 24.2439 22.7998 24.2439C22.7998 24.2439 24.4777 23.626 25.1062 23.3117C25.7347 22.9975 27.1009 21.793 27.3814 21.1593C27.6619 20.5257 27.1581 19.7349 25.3036 20.6461C23.4491 21.5626 22.3479 21.086 18.4987 22.1072C16.3845 22.6676 15.4027 23.7726 14.9456 24.6472C14.5767 25.3594 13.943 25.8988 13.195 26.1712L12.7223 26.3806C12.4158 26.5325 12.1093 26.6896 11.8184 26.8677C11.2314 27.2238 10.686 27.6585 10.2289 28.1665C9.76655 28.6744 9.39254 29.261 9.1432 29.8999C8.89906 30.5388 8.7588 31.2196 8.80555 31.9004C8.79517 31.2196 8.97178 30.5545 9.2419 29.9418C9.51721 29.3291 9.912 28.7792 10.3847 28.3131C10.8522 27.8418 11.4029 27.4595 11.9795 27.14C12.2704 26.9777 12.5664 26.8415 12.8729 26.7106L13.33 26.5325L13.8028 26.3702C14.4313 26.1764 15.0806 26.0559 15.7351 26.0088C16.3897 25.9617 17.0442 25.9879 17.6935 26.0664C18.9974 26.2288 20.27 26.6058 21.5375 27.03C22.805 27.4595 24.0725 27.9256 25.3971 28.2921C26.0568 28.4754 26.7321 28.6378 27.4126 28.753C27.7554 28.8106 28.0983 28.8577 28.4567 28.8944C28.6385 28.9153 28.7996 28.9206 28.9658 28.9363L29.0905 28.9468H29.1216H29.1632H29.2307L29.4956 28.952C30.919 28.9625 32.3319 28.6744 33.6513 28.1717C34.311 27.9256 34.95 27.6166 35.5629 27.2762C35.6408 27.229 35.7239 27.1819 35.8019 27.1348C35.6564 27.5066 35.485 27.8679 35.3032 28.2293C34.8461 29.1091 34.2954 29.947 33.6773 30.7326C33.0591 31.5181 32.3734 32.2566 31.6462 32.9478C31.2774 33.2987 30.9241 33.6129 30.519 33.9586C30.1398 34.278 29.745 34.5818 29.3398 34.8751C27.7191 36.0272 25.9062 36.8756 23.9946 37.3679C22.0829 37.8549 20.0882 37.9806 18.1195 37.8026C17.1377 37.7135 16.1559 37.5355 15.2053 37.2841C14.2495 37.0275 13.3041 36.6871 12.395 36.2943C10.5717 35.514 8.88867 34.4247 7.43938 33.0892C5.97969 31.7643 4.76935 30.1618 3.87588 28.3969C2.97722 26.632 2.39023 24.7048 2.12011 22.7252C1.8448 20.7666 1.87596 18.7398 2.19283 16.7602C2.50451 14.7807 3.14864 12.8744 4.12522 11.1305C5.09661 9.39177 6.3589 7.80496 7.85494 6.47999C9.35099 5.14979 11.0704 4.07097 12.9197 3.29065C14.7638 2.49986 16.7481 2.01282 18.7584 1.86619C19.2623 1.82953 19.7454 1.80858 20.2752 1.81905C20.7791 1.81382 21.2778 1.85048 21.7817 1.89761C22.2855 1.94474 22.7842 2.01806 23.2829 2.11756C23.7816 2.21183 24.2751 2.33228 24.7634 2.46844C26.7217 3.02357 28.6022 3.88767 30.3164 5.01887C32.0202 6.16054 33.5786 7.57453 34.7526 9.2975C33.7033 7.49074 32.2332 5.93534 30.5501 4.67846C28.8723 3.41634 26.9814 2.42655 24.9763 1.75621C24.4777 1.58862 23.9686 1.43675 23.4543 1.3163C22.9401 1.19061 22.4206 1.08587 21.8907 1.00732C21.3661 0.933998 20.831 0.876391 20.296 0.86068C19.7869 0.834495 19.2363 0.834495 18.7065 0.855443C16.5819 0.933998 14.4625 1.36867 12.4677 2.14375C10.473 2.92406 8.60297 4.02907 6.95108 5.41688C5.3044 6.80469 3.87069 8.47529 2.79021 10.3659C1.69935 12.2459 0.951325 14.3407 0.582508 16.4774L0.514979 16.865L0.457838 17.2735C0.416281 17.5458 0.379919 17.8234 0.359141 18.0904C0.296806 18.6299 0.265638 19.1745 0.250054 19.7139C0.213692 20.798 0.260443 21.8925 0.405892 22.9713C0.6864 25.1342 1.32014 27.2605 2.30192 29.2139C3.2837 31.1725 4.61351 32.9583 6.22384 34.4352C7.83936 35.9068 9.70422 37.0903 11.6937 37.9335C12.6911 38.3577 13.7041 38.719 14.7534 38.9914C15.8131 39.2637 16.8728 39.4522 17.9532 39.5465C20.109 39.7455 22.3063 39.5622 24.4049 38.9966C26.5035 38.4258 28.4931 37.4569 30.2385 36.1738C30.6748 35.8492 31.0956 35.514 31.5059 35.1579C31.8903 34.8279 32.3111 34.4404 32.6851 34.0686C33.4539 33.3197 34.1604 32.5027 34.8097 31.6386C35.459 30.7745 36.0356 29.8475 36.5135 28.863C37.7446 26.3283 37.7446 24.0345 37.7446 24.0345L36.4979 25.1185Z" fill="url(#paint1_linear_552_473)"/>
<path d="M26.9922 24.4796C26.9922 24.4796 29.0233 22.9923 30.1765 21.9344C31.2621 20.9394 32.3374 19.5097 32.8257 19.1745C33.314 18.8393 34.0516 18.6822 34.3477 19.1745C34.3477 19.1745 32.7166 21.1855 32.0881 21.7773C31.5998 22.2381 30.8414 22.7042 29.896 23.2175C28.6648 23.893 26.9922 24.4796 26.9922 24.4796Z" fill="url(#paint2_linear_552_473)"/>
<path d="M31.8744 19.8186C31.8744 19.8186 31.2303 19.3682 30.3732 20.1119C29.7862 20.6199 28.6278 22.0182 28.6278 22.0182L26.6123 24.5424C26.6123 24.5424 28.4616 23.1755 29.6408 22.1281C30.7784 21.1069 31.8744 19.8186 31.8744 19.8186Z" fill="url(#paint3_linear_552_473)"/>
<path d="M31.5944 12.2932C31.3814 13.5134 30.436 14.4142 29.2932 14.6132C29.2932 14.6132 28.4569 14.7074 28.2906 15.2521C28.2906 15.2626 28.2854 15.273 28.2854 15.2783C28.1452 15.603 27.8387 15.8386 27.4543 15.891C25.7661 16.1214 25.7297 14.8122 25.7245 14.7912C25.7245 14.786 25.7245 14.786 25.7245 14.7807V14.7755C25.6102 14.1837 25.3765 13.7019 25.1116 13.3144C25.1116 13.3144 25.1116 13.3144 25.1116 13.3091C25.1116 13.3091 24.5505 11.3505 26.2648 10.3817C26.1712 10.3974 24.535 10.7378 24.67 12.775C24.2129 12.3089 23.7817 12.0837 23.7246 12.0575C25.5115 13.8381 25.4856 15.4406 24.8258 16.6137C24.3272 17.4988 23.1999 18.2529 21.7143 18.0329C21.626 18.0172 21.5429 18.0067 21.4598 17.991C20.0624 17.703 19.5949 16.9174 19.5066 16.7446C20.9974 15.9695 20.3221 14.6551 20.239 14.5189C20.2858 14.6708 20.6598 15.9329 19.3559 16.488C18.0521 17.0484 17.3197 15.9591 17.3197 15.9591C17.5742 16.9122 18.6183 17.0065 19.2365 16.8494C19.3456 17.0536 19.7663 17.7711 20.6494 18.1272C20.613 18.1481 20.5819 18.1691 20.5559 18.19C19.8962 18.6561 19.2209 19.9968 18.8469 21.1332C18.8053 21.2589 18.691 21.3532 18.5612 21.3637C18.1768 21.4056 17.8495 21.4579 17.5742 21.5103C17.3716 21.547 17.1794 21.4003 17.1846 21.1908C17.1898 20.8714 17.1015 20.5729 16.8314 20.3843C16.4677 20.133 16.0158 20.0858 15.5691 20.0911C15.2834 20.0911 14.9925 20.0387 14.6964 19.9235C14.0211 19.6512 13.5484 19.0594 13.3822 18.3419C13.3146 18.0486 13.3094 17.7711 13.3458 17.5145C13.3822 17.2997 13.2107 17.1007 12.9926 17.106C12.6705 17.106 12.3328 17.0379 12.0056 16.8756C11.6887 16.7184 11.4082 16.4775 11.2316 16.1633C10.7693 15.3306 10.8888 14.3304 11.0446 13.9009C11.4342 12.8273 12.6913 11.0625 15.3925 11.8061C15.3509 11.7799 15.0029 11.5757 14.4886 11.4395C14.5977 9.58039 12.8627 9.52802 12.8627 9.52802C14.1665 9.85272 14.1873 10.9734 14.151 11.3662C13.4705 11.2458 12.6082 11.2824 11.7822 11.869C11.2783 12.2251 10.7797 12.6964 10.468 13.5082C10.0316 12.8064 9.84464 11.9528 9.99528 11.0729C10.1823 10.0046 10.8368 9.13001 11.7095 8.63773C11.8549 8.55918 11.9017 8.39683 11.8601 8.23448C11.7407 7.75268 11.7874 6.55864 12.525 5.78356C12.8783 5.41173 13.4081 5.09228 14.1977 4.96659C14.2497 4.95088 14.3016 4.94564 14.3535 4.9404C14.4678 4.92993 14.5873 4.93517 14.7068 4.95611C14.7276 4.96135 14.7431 4.96659 14.7587 4.97182C15.2366 4.2753 16.0833 3.87729 16.9664 4.0344C17.1482 4.06582 17.3197 4.11819 17.4807 4.19151C17.6417 4.25959 17.8287 4.21769 17.9274 4.07106C17.9274 4.07106 18.4573 3.03413 20.0988 2.93986C21.2624 2.86655 22.0623 3.2698 22.5454 3.63115C22.7065 3.73065 22.8519 3.85634 22.9714 4.00298C22.9714 4.00298 22.9766 4.00821 22.9818 4.00821L22.987 4.01345C23.0233 4.05535 23.0493 4.10248 23.0805 4.14961C21.5429 4.98754 21.7351 6.56911 21.7351 6.56911C22.0883 5.33318 22.6493 4.30672 24.0674 4.39575C25.0596 4.45336 25.6933 5.14465 25.7505 5.4641C25.7765 5.63169 25.9375 5.74167 26.1037 5.73119C26.3271 5.71548 26.5557 5.72595 26.7842 5.76261C27.8335 5.95115 28.6387 6.6948 28.9711 7.6427C29.0127 7.76315 29.1322 7.83647 29.262 7.83123C29.5373 7.82076 29.823 7.90979 30.088 8.13498C30.2178 8.24496 30.3217 8.39683 30.3685 8.56441C30.4412 8.79484 30.4516 9.00956 30.4152 9.19809C30.3893 9.32902 30.4308 9.45994 30.5295 9.5385C31.3399 10.1669 31.7814 11.2091 31.5944 12.2932Z" fill="url(#paint4_linear_552_473)"/>
<path d="M9.17969 33.2988C10.3069 33.6444 11.3406 33.9481 12.3692 34.1995C13.3977 34.4457 14.4003 34.6551 15.408 34.8123C15.9119 34.8908 16.4106 34.9589 16.9196 35.0165C17.4287 35.0846 17.9378 35.1317 18.4468 35.1579C19.465 35.226 20.4779 35.205 21.4909 35.116C23.5116 34.9379 25.5115 34.43 27.4335 33.6182C28.3945 33.215 29.3399 32.7279 30.2542 32.1676C31.1736 31.6072 32.0619 30.984 32.9086 30.2351C31.9684 32.3194 30.2853 34.0372 28.3685 35.3464C26.4309 36.6452 24.1661 37.525 21.8181 37.8602C20.6442 38.0383 19.4546 38.0749 18.2806 38.0068C17.1066 37.9283 15.9327 37.7659 14.8002 37.3993C13.6678 37.0485 12.5821 36.5248 11.616 35.8439C10.6394 35.1684 9.77707 34.3252 9.17969 33.2988Z" fill="url(#paint5_linear_552_473)"/>
<path d="M65.7787 27.8797C64.3373 27.8797 62.9821 27.6758 61.7133 27.2679C60.4445 26.86 59.4294 26.2573 58.6782 25.4596L60.6322 23.2843C61.4798 23.9777 62.368 24.4989 63.2917 24.8478C64.2205 25.1968 65.1747 25.369 66.1593 25.369C66.9612 25.369 67.6515 25.2738 68.2351 25.0835C68.8188 24.8931 69.2705 24.6122 69.5903 24.2405C69.91 23.8689 70.0724 23.4338 70.0724 22.9308C70.0724 22.3416 69.773 21.9201 69.1792 21.6573C68.5853 21.3944 67.6819 21.0998 66.4689 20.7781C65.3016 20.4563 64.3423 20.1481 63.5861 19.8535C62.8299 19.5589 62.2767 19.2054 61.9214 18.7885C61.5661 18.3761 61.3885 17.8096 61.3885 17.1026C61.3885 15.9877 61.7387 15.0088 62.434 14.1568C63.1293 13.3047 64.0835 12.6385 65.2813 12.1536C66.4791 11.6687 67.8139 11.424 69.2807 11.424C70.6307 11.424 71.8082 11.6098 72.8182 11.9769C73.8231 12.344 74.6809 12.8742 75.3914 13.5721L73.3308 15.5934C72.6659 14.9997 71.9909 14.5737 71.3057 14.3063C70.6206 14.0389 69.839 13.9075 68.9711 13.9075C68.2402 13.9075 67.5753 13.9981 66.9815 14.1794C66.3877 14.3607 65.9157 14.6281 65.5757 14.9816C65.2305 15.3351 65.063 15.7838 65.063 16.3276C65.063 16.8714 65.2965 17.2657 65.7685 17.5059C66.2354 17.7461 67.0577 18.009 68.225 18.29C69.4583 18.5936 70.5089 18.9245 71.3666 19.278C72.2244 19.6315 72.8588 20.0484 73.2699 20.5243C73.681 21.0001 73.8891 21.6346 73.8891 22.4232C73.8891 23.4746 73.5592 24.4127 72.8943 25.233C72.2295 26.0533 71.2905 26.7014 70.0775 27.1773C68.8543 27.6395 67.4282 27.8797 65.7787 27.8797Z" fill="#025DD5"/>
<path d="M83.6948 27.8798C82.2077 27.8798 80.9186 27.5852 79.8325 27.0005C78.7463 26.4114 77.9241 25.6137 77.3608 24.6031C76.7974 23.5925 76.5081 22.4368 76.4878 21.1406C76.5081 19.8445 76.7974 18.6208 77.3455 17.4652C77.8937 16.3095 78.6702 15.2717 79.6802 14.3517C80.6851 13.4317 81.8575 12.7111 83.1974 12.1944C84.5373 11.6778 85.994 11.4194 87.5724 11.4194C88.8311 11.4194 89.9223 11.5871 90.8511 11.9225C91.7799 12.2579 92.4904 12.7428 92.998 13.3773C93.5004 14.0163 93.7542 14.8094 93.7542 15.7611C93.7745 17.4017 92.9574 18.6435 91.2977 19.4955C89.6381 20.3475 87.1055 20.769 83.6948 20.769C83.0553 20.769 82.3346 20.7554 81.5327 20.7237C80.7308 20.692 79.8274 20.6376 78.8225 20.556L79.3351 18.3806C80.2486 18.4214 81.0607 18.4622 81.7713 18.503C82.4818 18.5438 83.1467 18.5619 83.7608 18.5619C85.3849 18.5619 86.6639 18.4531 87.6029 18.2311C88.5418 18.009 89.2168 17.7008 89.6279 17.2975C90.039 16.8987 90.2573 16.4364 90.2776 15.9152C90.2776 15.4529 90.1456 15.0768 89.8817 14.7867C89.6178 14.4967 89.2574 14.2746 88.8006 14.1251C88.3439 13.9755 87.7957 13.8985 87.1511 13.8985C86.1208 13.8985 85.187 14.0933 84.3546 14.4876C83.5172 14.8819 82.7965 15.4257 82.1925 16.1191C81.5835 16.8171 81.1115 17.6011 80.7663 18.4803C80.4212 19.3595 80.2639 20.2705 80.2842 21.2177C80.2842 21.9836 80.4263 22.6815 80.7156 23.3024C80.9998 23.9278 81.4464 24.4309 82.0555 24.8161C82.6594 25.2013 83.4207 25.3917 84.3394 25.3917C85.324 25.3917 86.2731 25.1741 87.1867 24.7345C88.1002 24.2949 88.8108 23.6967 89.3133 22.9398L92.3331 23.7692C91.7596 24.5442 91.0135 25.2466 90.0847 25.8675C89.1559 26.493 88.1459 26.9824 87.0446 27.3404C85.9584 27.6985 84.8368 27.8798 83.6948 27.8798Z" fill="#025DD5"/>
<path d="M99.8952 5.20154H103.671L101.372 14.8548C102.265 13.7807 103.351 12.9422 104.63 12.3349C105.909 11.7277 107.204 11.424 108.508 11.424C109.559 11.424 110.386 11.5872 110.98 11.9089C111.574 12.2307 112.005 12.6884 112.269 13.2731C112.533 13.8622 112.665 14.5284 112.665 15.2762C112.665 15.6796 112.634 16.1011 112.579 16.5361C112.523 16.9712 112.447 17.4199 112.355 17.8867L110.021 27.5716H106.209L108.371 18.6934C108.437 18.3489 108.498 18.0317 108.544 17.7417C108.589 17.4471 108.615 17.1706 108.615 16.9078C108.615 16.0784 108.407 15.4575 107.995 15.0451C107.584 14.6327 107.001 14.4242 106.244 14.4242C105.625 14.4242 104.955 14.5828 104.235 14.9046C103.514 15.2264 102.834 15.6615 102.194 16.2144C101.555 16.7673 101.027 17.4063 100.616 18.1269L98.3522 27.5671H94.5762L99.8952 5.20154Z" fill="#025DD5"/>
<path d="M121.278 27.8798C119.948 27.8798 118.806 27.5852 117.847 27.0005C116.888 26.4114 116.152 25.6228 115.649 24.6303C115.147 23.6378 114.893 22.5365 114.893 21.3219C114.893 20.0258 115.157 18.7885 115.685 17.6011C116.213 16.4183 116.938 15.3623 117.862 14.4423C118.791 13.5223 119.842 12.7881 121.019 12.2397C122.197 11.6914 123.45 11.4194 124.775 11.4194C126.079 11.4194 127.175 11.7321 128.069 12.3621C128.962 12.9875 129.566 13.758 129.886 14.6689L130.642 11.6642H134.454L131.571 23.452C131.545 23.5335 131.53 23.6106 131.52 23.6922C131.51 23.7737 131.505 23.8508 131.505 23.9324C131.505 24.3131 131.759 24.5125 132.261 24.5351L131.611 27.4175C131.292 27.4583 131.002 27.4945 130.754 27.5263C130.5 27.558 130.271 27.5716 130.068 27.5716C129.358 27.5716 128.81 27.4447 128.419 27.1818C128.028 26.9235 127.835 26.5609 127.835 26.1032C127.835 25.9899 127.84 25.8675 127.85 25.7452C127.861 25.6228 127.886 25.4687 127.916 25.2829C127.952 25.1016 128.003 24.9158 128.069 24.7209C127.201 25.7134 126.145 26.4884 124.912 27.0459C123.679 27.5988 122.466 27.8798 121.278 27.8798ZM122.927 24.9974C123.384 24.9974 123.871 24.9158 124.384 24.7572C124.897 24.5986 125.404 24.381 125.896 24.1091C126.389 23.8372 126.846 23.5109 127.267 23.1302C127.688 22.7495 128.003 22.328 128.211 21.8658L129.206 17.7054C129.114 17.0618 128.881 16.4862 128.5 15.9741C128.125 15.462 127.647 15.0541 127.074 14.755C126.5 14.4514 125.886 14.3018 125.221 14.3018C124.374 14.3018 123.567 14.4876 122.8 14.8592C122.034 15.2309 121.359 15.7294 120.775 16.3548C120.192 16.9802 119.73 17.6736 119.385 18.4395C119.04 19.2055 118.872 19.9804 118.872 20.7645C118.872 21.5712 119.04 22.2827 119.37 22.9081C119.699 23.5335 120.171 24.0366 120.775 24.4173C121.384 24.807 122.1 24.9974 122.927 24.9974Z" fill="#025DD5"/>
<path d="M136.793 25.256C136.793 25.0928 136.808 24.9251 136.844 24.7529C136.879 24.5807 136.905 24.4221 136.93 24.2816L139.331 14.2703H137.032L137.681 11.6644H139.914L141.183 6.39368H144.959L143.69 11.6644H147.395L146.781 14.2703H143.076L140.98 23.1667C140.955 23.2483 140.934 23.3299 140.909 23.4114C140.889 23.493 140.874 23.5655 140.874 23.6244C140.874 24.0323 141.016 24.3269 141.3 24.5082C141.584 24.6895 141.924 24.7801 142.315 24.7801C142.66 24.7801 143 24.7393 143.345 24.6577C143.69 24.5762 143.995 24.4901 144.274 24.3949C144.548 24.3042 144.766 24.2181 144.924 24.132L145.061 26.7969C144.716 26.9827 144.289 27.1549 143.772 27.318C143.254 27.4812 142.701 27.6126 142.107 27.7169C141.513 27.8211 140.894 27.871 140.254 27.871C139.27 27.871 138.448 27.6579 137.783 27.2319C137.123 26.8105 136.793 26.1488 136.793 25.256Z" fill="#025DD5"/>
<path d="M147.259 27.5717L148.218 23.647H151.339L150.38 27.5717H147.259Z" fill="#025DD5"/>
<path d="M158.45 11.6643H162.262L158.45 27.5717H154.674L158.45 11.6643ZM159.993 5.31946H163.769L162.876 9.02666H159.1L159.993 5.31946Z" fill="#025DD5"/>
<path d="M166.652 11.6642H170.083L169.326 14.8502C169.92 14.1432 170.636 13.5359 171.473 13.0283C172.311 12.5207 173.199 12.1264 174.153 11.8454C175.102 11.5599 176.071 11.4194 177.051 11.4194C178.056 11.4194 178.848 11.5826 179.421 11.9044C179.995 12.2261 180.401 12.6657 180.639 13.2096C180.878 13.758 181 14.4015 181 15.1538C181 15.5572 180.964 15.9922 180.898 16.459C180.827 16.9258 180.751 17.4017 180.66 17.8866L178.325 27.5716H174.513L176.675 18.6933C176.792 18.3081 176.863 17.9637 176.899 17.6464C176.934 17.3337 176.949 17.0346 176.949 16.7536C176.949 15.9469 176.762 15.3578 176.381 14.9816C176.005 14.61 175.447 14.4196 174.716 14.4196C174.077 14.4196 173.381 14.5873 172.64 14.9182C171.894 15.249 171.194 15.6886 170.529 16.2279C169.864 16.7718 169.326 17.4017 168.915 18.1268L166.652 27.567H162.875L166.652 11.6642Z" fill="#025DD5"/>
<defs>
<linearGradient id="paint0_linear_552_473" x1="-1.16306" y1="9.08631" x2="26.023" y2="40.6749" gradientUnits="userSpaceOnUse">
<stop stop-color="#B5E970"/>
<stop offset="0.5161" stop-color="#40E2BD"/>
<stop offset="1" stop-color="#2EE6EF"/>
</linearGradient>
<linearGradient id="paint1_linear_552_473" x1="5.12762" y1="3.67227" x2="32.3136" y2="35.2609" gradientUnits="userSpaceOnUse">
<stop stop-color="#B5E970"/>
<stop offset="0.5161" stop-color="#40E2BD"/>
<stop offset="1" stop-color="#2EE6EF"/>
</linearGradient>
<linearGradient id="paint2_linear_552_473" x1="11.0136" y1="-1.3932" x2="38.1997" y2="30.1954" gradientUnits="userSpaceOnUse">
<stop stop-color="#B5E970"/>
<stop offset="0.5161" stop-color="#40E2BD"/>
<stop offset="1" stop-color="#2EE6EF"/>
</linearGradient>
<linearGradient id="paint3_linear_552_473" x1="10.0147" y1="-0.533379" x2="37.2003" y2="31.0548" gradientUnits="userSpaceOnUse">
<stop stop-color="#B5E970"/>
<stop offset="0.5161" stop-color="#40E2BD"/>
<stop offset="1" stop-color="#2EE6EF"/>
</linearGradient>
<linearGradient id="paint4_linear_552_473" x1="25.4539" y1="17.4558" x2="14.1258" y2="5.50257" gradientUnits="userSpaceOnUse">
<stop stop-color="#0056D4"/>
<stop offset="1" stop-color="#2EFFEF"/>
</linearGradient>
<linearGradient id="paint5_linear_552_473" x1="27.2331" y1="38.1742" x2="15.5792" y2="26.6147" gradientUnits="userSpaceOnUse">
<stop stop-color="#0056D4"/>
<stop offset="1" stop-color="#2EFFEF"/>
</linearGradient>
</defs>
</svg>
