<svg xmlns="http://www.w3.org/2000/svg" width="236" height="511" fill="none" viewBox="0 0 236 511"><path stroke="#457B9D" stroke-linecap="round" stroke-miterlimit="10" d="M85.187 52.4734C77.6001 53.387 69.6432 49.9829 65.0498 43.8818C63.7871 42.207 62.7422 40.2385 62.7857 38.1395C62.8292 36.0406 64.2769 33.8764 66.356 33.6045C69.1534 33.2456 71.3413 36.6387 70.612 39.3467C69.8827 42.0656 67.205 43.86 64.4838 44.5887C60.1733 45.7415 55.5799 44.8388 51.3238 43.4685C47.0787 42.0982 42.9424 40.282 38.534 39.5642C34.1256 38.8464 29.2491 39.3902 25.8639 42.294C22.4787 45.1977 21.3466 50.8856 24.34 54.2026C26.6476 56.7693 31.0234 57.1281 33.712 54.9748C36.4114 52.8106 37.0101 48.4821 35.0073 45.6654C32.6888 42.4136 28.1933 41.8263 24.623 40.0319C19.3656 37.3891 15.8715 30.9617 17.7437 25.3826C19.6159 19.8035 27.6164 16.9758 31.9486 20.9563C33.6031 22.4788 34.5936 24.7083 36.5312 25.8611C38.8388 27.2423 41.9628 26.6224 44.0418 24.9258C46.1208 23.2184 47.2964 20.6409 47.9604 18.0416C48.755 14.9312 48.9183 11.6795 49.8435 8.60172C50.7687 5.52395 52.6845 2.50057 55.7105 1.41302C59.0086 0.238464 62.7422 1.71753 65.409 3.97963C68.0867 6.24173 70.0351 9.23249 72.408 11.7991C74.7918 14.3657 77.8723 16.6278 81.3772 16.704C84.8822 16.7801 88.5395 13.7893 88.0715 10.3309C87.6687 7.36191 84.2291 5.36082 81.3119 6.05685C78.3839 6.74201 76.2831 9.62401 76 12.6039C75.717 15.5947 77.0124 18.5745 79.0152 20.8258C82.6508 24.9149 88.6919 26.6985 93.9711 25.2521C97.5958 24.2515 101.155 20.9563 100.393 17.2804C99.6966 13.9307 95.5494 12.1689 92.2513 13.1042C88.9532 14.0395 86.5585 16.9323 85.0672 20.0101C83.576 23.0879 82.7814 26.4593 81.4208 29.6023C80.0601 32.7453 77.9485 35.7796 74.8027 37.1281C69.8718 39.2271 64.1572 36.4865 60.2168 32.8541C56.2765 29.2216 53.1634 24.6104 48.6135 21.7828C44.0636 18.9552 37.1516 18.6724 34.1147 23.0879C35.0943 18.7594 36.1937 14.3222 38.8605 10.7768C41.5274 7.2314 46.1535 4.78442 50.4204 5.98072C54.6873 7.17703 57.3432 12.9954 54.5349 16.4212C52.4014 19.0204 48.1781 19.499 46.6433 22.4897C45.6528 24.4255 46.2188 26.9052 47.6665 28.5365C49.1033 30.1569 51.2585 31.0161 53.4137 31.288C56.886 31.7339 60.7284 30.6355 62.8401 27.8513C64.9627 25.0563 64.7123 20.5104 61.8605 18.4875C57.9854 15.7469 52.4885 18.9117 49.9414 22.9139C47.3944 26.916 46.2079 31.8535 42.8009 35.1597C39.4483 38.4223 34.3977 39.5207 29.7498 38.9226C25.102 38.3135 20.7806 36.2037 16.7858 33.7676C19.0608 34.1047 21.4555 32.4082 21.88 30.1461C22.3045 27.884 20.6935 25.4261 18.4512 24.9149C16.1001 24.382 13.7816 25.7524 11.8114 27.1335C7.56627 30.1026 3.35379 33.6371 1.63396 38.5093C-0.0858601 43.3924 1.73193 49.8416 6.61928 51.549C11.4195 53.2238 16.5899 49.7219 19.4527 45.5131C22.3154 41.3152 23.9046 36.2798 27.2028 32.3973C30.5009 28.5256 36.6291 26.1765 40.6675 29.276C43.835 31.7121 44.2704 36.2907 43.9874 40.282C43.7044 44.2733 43.0404 48.5148 44.8799 52.071C46.5671 55.3446 50.3877 57.3674 54.056 56.9433C57.7133 56.5191 60.9679 53.6697 61.8605 50.0917C62.666 46.9052 61.6972 43.5555 61.7081 40.2711C61.719 36.9867 63.3844 33.1368 66.6499 32.7235C70.2092 32.2668 72.6801 35.9862 75.6408 38.0199C80.7785 41.5436 88.8987 39.1401 91.2825 33.387C92.654 30.0699 92.469 25.8502 95.2229 23.5338C98.0421 21.152 102.668 22.0329 105.433 19.586C107.882 17.4217 107.741 13.3108 105.836 10.6572C103.931 8.00356 100.72 6.58975 97.5414 5.82846C90.2049 4.06664 82.1936 5.25207 75.6953 9.06936C70.3616 12.2015 66.1383 16.9215 60.9353 20.2711C50.834 26.7638 37.1951 27.2858 26.615 21.6088C23.0229 19.6838 19.4527 16.3777 19.7901 12.3211C20.1493 8.11232 24.4924 5.4587 28.5525 4.28415C37.9136 1.58703 48.4393 3.22922 56.5268 8.65609C42.9206 15.0509 29.3035 21.4565 15.6973 27.8513"/><path fill="#457B9D" d="M148.58 192.675L139.411 238.933C130.945 238.614 122.479 237.143 114.158 234.65C114.158 231.627 114.172 228.724 114.211 225.953C114.424 207.033 115.472 194.252 115.472 194.252C111.717 168.134 107.935 142.015 104.166 115.883C103.091 108.445 102.056 100.636 104.644 93.5828C107.245 86.5294 114.769 80.6692 122.027 82.6315L131.489 121.796L148.58 192.675Z"/><path fill="#457B9D" d="M122.042 82.6308C114.783 80.6553 107.259 86.5287 104.658 93.5821C102.071 100.635 103.106 108.445 104.18 115.896C107.949 142.014 111.718 168.133 115.486 194.252C115.486 194.252 114.438 207.046 114.212 225.952C119.361 190.818 128.185 156.811 131.476 121.769L122.042 82.6308Z"/><path fill="#3B6A87" d="M148.58 192.674L139.424 238.919H139.411C130.944 238.601 122.478 237.129 114.158 234.637C114.158 231.614 114.171 228.71 114.211 225.939C119.36 190.818 128.171 156.798 131.489 121.783L148.58 192.674Z"/><path fill="#BC6C25" d="M115.804 275.512L130.586 281.014L139.411 238.919C130.944 238.601 122.478 237.129 114.158 234.65C114.198 246.914 114.609 261.007 115.804 275.512Z"/><path fill="#BC6C25" d="M115.777 275.299C117.051 282.737 119.082 290.069 121.842 297.123C122.598 299.071 123.593 301.18 125.504 301.988C127.601 302.877 129.91 301.842 131.887 300.822C134.634 299.403 137.633 297.666 138.455 294.643C139.145 292.071 138.031 289.3 136.717 286.927C133.174 280.51 127.972 275.008 121.802 271.15L115.777 275.299Z"/><path fill="#BC6C25" d="M123.593 300.543C125.318 303.182 127.03 305.833 128.755 308.472C131.303 308.379 133.891 308.472 136.438 308.379C138.071 307.133 140.154 305.754 141.773 304.507C139.981 303.261 136.969 303.606 135.589 305.29C134.435 305.024 132.829 305.104 131.675 304.839C130.321 302.731 128.463 300.623 127.096 298.515L123.593 300.543Z"/><path fill="#BC6C25" d="M126.831 296.208C128.556 298.846 130.268 301.498 131.993 304.136C134.541 304.043 137.128 304.136 139.676 304.043C141.308 302.797 143.392 301.418 145.011 300.172C143.219 298.926 140.207 299.27 138.827 300.954C137.672 300.689 136.067 300.769 134.912 300.503C133.559 298.395 131.701 296.287 130.334 294.179L126.831 296.208Z"/><path fill="#BC6C25" d="M127.693 292.376C129.418 295.014 131.13 297.666 132.855 300.304C135.403 300.211 137.991 300.304 140.538 300.212C142.171 298.965 144.254 297.586 145.873 296.34C144.082 295.094 141.069 295.439 139.689 297.122C138.535 296.857 136.929 296.937 135.775 296.672C134.421 294.564 132.563 292.455 131.197 290.347L127.693 292.376Z"/><path fill="#BC6C25" d="M128.808 288.425C130.533 291.064 132.245 293.715 133.97 296.354C136.518 296.261 139.105 296.354 141.653 296.261C143.285 295.015 145.369 293.636 146.988 292.389C145.196 291.143 142.184 291.488 140.804 293.172C139.65 292.907 138.044 292.986 136.889 292.721C135.536 290.613 133.678 288.505 132.311 286.397L128.808 288.425Z"/><path fill="#6B3E15" d="M127.349 280.245C126.845 279.569 125.703 280.258 126.221 280.934C128.822 284.381 128.888 289.473 126.221 292.906C125.703 293.569 126.659 294.497 127.176 293.821C130.189 289.95 130.334 284.196 127.349 280.245Z"/><path fill="#6B3E15" d="M127.322 293.344C126.977 292.562 125.849 293.264 126.194 294.033C127.707 297.401 128.224 301.193 127.68 304.839C127.561 305.674 128.848 306.005 128.968 305.17C129.551 301.126 128.981 297.069 127.322 293.344Z"/><path fill="#6B3E15" d="M177.84 479.317C177.84 482.141 177.813 484.899 177.787 487.537H163.588L162.792 479.317H177.84Z"/><path fill="#2D5066" d="M178.742 486.304L162.128 485.774C157.497 491.342 129.617 498.343 127.999 505.834H182.577C181.967 499.165 180.733 492.615 178.742 486.304Z"/><path fill="#1D3557" d="M127.999 505.834C127.839 506.55 127.68 507.266 127.561 507.995C127.362 509.135 128.105 510.196 129.113 510.196H181.197C182.113 510.196 182.856 509.294 182.776 508.247C182.723 507.438 182.657 506.642 182.577 505.834H127.999Z"/><path fill="#82BEBF" d="M141.056 225.488C141.056 225.488 123.155 341.352 158.758 480.378L181.701 480.152C181.701 480.152 194.666 352.515 187.102 297.693C182.338 263.155 188.349 221.551 188.349 221.551L141.056 225.488Z"/><path fill="#6B3E15" d="M205.601 479.317C205.601 482.141 205.574 484.899 205.548 487.537H191.349L190.553 479.317H205.601Z"/><path fill="#457B9D" d="M206.503 486.304L189.889 485.774C185.258 491.342 157.378 498.343 155.759 505.834H210.338C209.727 499.165 208.493 492.615 206.503 486.304Z"/><path fill="#1D3557" d="M155.759 505.834C155.6 506.55 155.441 507.266 155.321 507.995C155.122 509.135 155.866 510.196 156.874 510.196H208.958C209.874 510.196 210.617 509.294 210.537 508.247C210.484 507.438 210.418 506.642 210.338 505.834H155.759Z"/><path fill="#A8DADC" d="M168.604 222.055C168.604 222.055 150.876 340.517 186.492 479.556L209.25 480.378C209.25 480.378 234.714 378.13 235.643 295.518C236.041 260.649 233.016 215.969 233.016 215.969L168.604 222.055Z"/><path fill="#82BEBF" d="M209.356 466.298H192.41C191.561 466.298 191.402 467.61 192.264 467.61H209.21C210.046 467.61 210.205 466.298 209.356 466.298Z"/><path fill="#82BEBF" d="M220.927 261.074C212.315 261.286 203.849 256.977 198.992 249.857C198.515 249.154 197.373 249.844 197.864 250.546C202.973 258.037 211.864 262.625 220.954 262.399C221.79 262.373 221.776 261.047 220.927 261.074Z"/><path fill="#82BEBF" d="M197.652 367.166L184.462 379.403C183.838 379.987 184.794 380.902 185.417 380.318L198.607 368.081C199.231 367.498 198.276 366.583 197.652 367.166Z"/><path fill="#457B9D" d="M191.959 66.5751C187.235 64.8913 182.06 65.0637 176.54 65.2228C169.427 65.4084 162.341 66.1508 155.335 67.3971C141.627 69.8499 128.277 74.3179 115.883 80.6686C111.12 83.1081 107.855 89.4058 108.904 94.6428C109.7 98.6335 111.478 102.346 113.163 106.045C121.788 124.991 128.437 144.838 133.015 165.15C135.377 175.598 137.181 186.178 138.429 196.824C139.039 201.995 140.579 230.42 140.114 235.604C139.252 245.163 209.329 252.204 232.83 227.358C237.939 221.948 227.841 165.349 226.341 154.278C223.369 132.296 217.968 110.579 210.033 89.8566C207.392 82.9755 204.114 75.8824 198.687 70.7514C196.564 68.7362 194.321 67.4236 191.959 66.5751Z"/><path fill="#3B6A87" d="M138.429 196.811C137.181 186.165 135.377 175.598 133.015 165.137C129.127 147.902 123.726 131.011 116.918 114.703C133.93 142.055 136.903 175.492 151.977 204.713C155.069 210.295 157.272 218.369 164.769 221.021C160.059 221.604 150.212 219.257 151.831 222.638C169.427 252.708 210.046 244.302 233.998 223.858C233.772 225.542 233.401 226.735 232.843 227.332C209.342 252.191 139.265 245.151 140.127 235.578C140.578 230.407 139.039 201.982 138.429 196.811Z"/><path fill="#3B6A87" d="M135.602 99.0312C137.659 99.893 139.994 99.2301 141.905 98.302C143.79 97.3872 145.515 96.1542 147.027 94.709C150.04 91.7922 152.189 87.9871 153.132 83.9036C153.662 81.6099 153.795 79.2499 153.516 76.9165C153.437 76.2403 154.485 76.2005 154.565 76.8635C155.64 85.8128 150.61 95.2261 142.476 99.1903C140.194 100.304 137.566 100.993 135.124 99.9858C134.501 99.7206 134.979 98.7793 135.602 99.0312Z"/><path fill="#1D3557" d="M133.997 75.3667C127.19 62.9835 120.369 50.5871 113.562 38.2039C115.207 37.5675 114.703 34.4916 113.801 32.9802C112.898 31.4687 110.549 31.0842 109.209 32.2377C108.745 30.66 106.383 28.8834 104.751 28.6845C103.118 28.4856 101.393 29.3342 100.557 30.7528C98.2882 29.1751 93.8561 29.7849 92.3301 32.0919C90.5254 31.5748 89.1055 31.5218 87.3141 32.0654C85.5094 32.6089 84.0364 34.6507 84.8194 36.361C83.5455 35.4064 80.4403 35.7909 78.9541 36.3875C77.4812 36.9709 76.3532 38.363 76.0879 39.9407C75.1722 39.596 74.0443 40.1396 73.0756 40.0866C72.1069 40.0203 71.0719 40.2855 70.4084 41.0014C69.7449 41.7173 69.6122 42.9238 70.2624 43.653C68.2719 43.7724 65.7905 44.316 64.1052 45.3899C62.4332 46.4638 61.3717 48.784 62.3669 50.5075C60.6418 50.3882 59.1556 51.8731 58.784 53.5569C58.4125 55.2407 59.421 57.1367 61.0399 57.7598C59.9783 58.9 59.421 62.2543 60.3101 63.5404C61.1991 64.8264 63.0171 65.3568 64.4635 64.7601C64.1185 66.0329 64.928 67.6372 65.8834 68.5387C66.8388 69.4535 68.3117 69.785 69.5591 69.374C77.2689 72.6753 84.6999 76.7588 90.9765 82.314L133.997 75.3667Z"/><path fill="#294B7A" d="M60.2964 63.5126C59.4073 62.2265 59.9647 58.8722 61.0262 57.732C59.4073 57.1088 58.3988 55.2262 58.7704 53.5291C59.1419 51.8453 60.6281 50.3604 62.3532 50.4797C61.358 48.7562 62.4063 46.436 64.0916 45.362C65.7636 44.2881 68.2583 43.7445 70.2487 43.6252C69.5985 42.9093 69.7445 41.6895 70.3947 40.9736C71.0582 40.2576 72.0932 39.9925 73.0619 40.0588C74.0306 40.125 75.1718 39.5815 76.0742 39.9129C76.3396 38.3484 77.4675 36.9563 78.9404 36.3597C80.4134 35.7763 83.5318 35.3786 84.8057 36.3332C84.036 34.6229 85.509 32.5811 87.3004 32.0375C89.1051 31.4939 90.5117 31.547 92.3164 32.064C93.8557 29.7571 98.2745 29.1472 100.544 30.725C101.38 29.3063 103.091 28.4578 104.737 28.6567C106.369 28.8555 108.731 30.6321 109.196 32.2099C110.536 31.0564 112.885 31.4409 113.787 32.9523C114.689 34.4638 115.193 37.5397 113.548 38.1761C115.844 42.3392 118.126 46.5155 120.422 50.6786C119.015 49.2865 117.622 47.8678 116.308 46.3829C115.247 45.1897 114.212 43.9567 113.23 42.6971C112.566 41.8486 111.849 41.0001 111.345 40.0455C110.695 38.8125 110.178 37.2613 109.023 36.4127C107.922 35.5907 106.807 36.0282 105.905 36.784C105.533 36.015 105.002 35.3123 104.219 34.9808C103.251 34.5698 102.362 34.9278 101.645 35.551C100.822 34.9411 99.8669 34.7024 98.8451 35.2195C97.8764 35.7101 97.1731 36.6116 96.5494 37.4867C95.3419 36.9828 93.9618 36.784 92.7277 37.301C91.5733 37.7783 90.8833 38.7462 90.5382 39.8731C88.8795 39.4489 87.1544 39.1572 85.509 39.8466C84.6332 40.2178 84.036 40.841 83.5981 41.6763C83.2664 42.3127 83.0673 43.2938 82.51 43.7711C81.9129 44.2881 80.6655 43.9302 79.9622 43.8506C79.0864 43.7445 78.1575 43.612 77.295 43.8373C75.424 44.3279 74.2164 45.7465 73.4202 47.3906C71.7482 47.5497 70.0762 48.0402 68.7891 49.0743C67.0375 50.493 66.8119 52.5745 67.5815 54.5102C66.1086 55.2792 64.3171 56.4724 64.6356 58.2756C64.9408 59.9726 66.9313 60.9405 68.4839 61.5769C68.2715 62.664 68.2715 63.8042 68.9483 64.7588C69.6383 65.7532 70.8061 66.1642 71.9605 66.31C72.3056 67.9541 72.7567 69.5318 73.3539 71.0432C72.0932 70.4466 70.8193 69.8633 69.5322 69.3197C68.2715 69.7307 66.8119 69.3992 65.8564 68.4844C64.901 67.5696 64.0916 65.9786 64.4366 64.7058C63.0034 65.3289 61.1855 64.7986 60.2964 63.5126Z"/><path fill="#BC6C25" d="M118.591 59.9595C127.468 65.17 136.731 69.7706 146.245 73.6817C148.488 74.6098 150.04 76.7576 150.027 79.1972C150.014 84.7789 147.824 89.8303 143.856 93.5823C141.932 95.3855 139.079 95.7832 136.77 94.5104C131.011 91.3284 125.173 88.0404 119.467 84.9247L118.591 59.9595Z"/><path fill="#6B3E15" d="M118.591 59.9595C123.726 62.9691 128.981 65.7798 134.342 68.3652C137.235 73.5094 138.031 79.3297 137.275 85.6407C136.744 88.2923 135.881 90.9307 134.7 93.3702C129.618 90.5462 124.483 87.6692 119.453 84.9247L118.591 59.9595Z"/><path fill="#BC6C25" d="M121.112 91.8854C132.975 78.5211 127.972 67.2516 120.581 61.7494C122.837 59.1243 122.81 55.0408 120.502 52.4687C119.267 51.0898 117.463 50.2015 115.618 50.2811C113.787 50.3739 111.982 51.4743 111.266 53.1714C110.536 54.8551 111.067 57.0428 112.579 58.0902L105.666 58.0636C102.455 56.1545 98.8851 53.5426 95.687 51.6334C87.6588 56.3268 81.6343 63.2609 77.6401 71.6533C79.5244 74.3315 83.439 78.3355 83.8371 78.6006C97.6112 88.425 111.544 102.664 121.112 91.8854Z"/><path fill="#6B3E15" d="M114.942 58.7264C113.827 57.5729 112.58 56.2073 112.62 54.4837C112.659 53.0519 113.681 51.6597 115.181 51.6465C115.446 51.6465 115.645 51.9382 115.619 52.1768C115.592 52.4685 115.353 52.6011 115.088 52.6143C114.093 52.6276 113.535 53.8739 113.602 54.7357C113.681 56.1013 114.822 57.2017 115.711 58.1298C115.897 58.3154 115.818 58.6601 115.632 58.8192C115.406 58.9916 115.128 58.912 114.942 58.7264Z"/><path fill="#6B3E15" d="M115.937 87.8679C116.508 87.2315 117.078 86.5951 117.649 85.9587C117.821 85.7731 118.113 85.6803 118.325 85.8526C118.511 85.9985 118.617 86.3299 118.432 86.5288C117.861 87.1652 117.29 87.8016 116.72 88.438C116.547 88.6236 116.255 88.7164 116.043 88.544C115.857 88.3982 115.751 88.08 115.937 87.8679Z"/><path fill="#1D3557" d="M90.2599 66.5089C91.9718 66.8005 93.1262 65.1963 94.0684 64.0296C95.2361 62.5579 96.4172 61.0862 97.5849 59.6146C97.9697 59.124 98.7659 59.6941 98.3678 60.1847C97.0408 61.8552 95.7271 63.5258 94.3869 65.183C93.3518 66.4691 91.9585 67.7817 90.1538 67.4767C89.5567 67.3706 89.6495 66.4028 90.2599 66.5089Z"/><path fill="#1D3557" d="M84.1825 76.8767C84.8858 75.8824 85.6023 74.888 86.3056 73.8936C86.6507 73.4163 86.9957 72.9391 87.3407 72.4485C87.4734 72.2496 87.6592 71.9977 87.6724 71.7458C87.6724 71.6265 87.6326 71.3878 87.4867 71.3613C86.8762 71.242 86.9691 70.2741 87.5928 70.3935C88.2032 70.5128 88.6146 71.0033 88.6411 71.6265C88.6809 72.3822 88.1502 72.9921 87.7388 73.5754C86.8232 74.8747 85.8943 76.1608 84.9787 77.4601C84.5938 77.9639 83.8109 77.3805 84.1825 76.8767Z"/><path fill="#6B3E15" d="M99.933 83.8239C99.5084 83.3334 99.243 82.7235 98.9643 82.1534C98.6193 81.4507 98.261 80.7348 97.916 80.0321C97.1994 78.5869 96.4829 77.1285 95.7663 75.6834C95.4876 75.1133 96.3369 74.5829 96.6288 75.1663C97.2525 76.4258 97.8762 77.6986 98.4999 78.9581C99.1103 80.1912 99.6543 81.4772 100.344 82.6572C101.764 85.1232 104.617 82.6837 106.648 82.5909C107.298 82.5644 107.324 83.572 106.674 83.5985C105.4 83.6516 104.325 84.4073 103.104 84.6592C101.937 84.9244 100.742 84.7653 99.933 83.8239Z"/><path fill="#1D3557" d="M101.167 64.8387C101.274 66.8406 99.9599 68.8029 98.0756 69.479C97.2662 69.7707 97.7041 71.017 98.5135 70.7253C100.968 69.8503 102.64 67.3312 102.494 64.7326C102.441 63.8841 101.114 63.9769 101.167 64.8387Z"/><path fill="#1D3557" d="M94.0813 75.75C93.6965 75.7766 93.4709 76.108 93.4709 76.466C93.4709 76.6251 93.4576 76.7709 93.4178 76.9831C93.3913 77.0891 93.378 77.1952 93.3382 77.3012C93.3249 77.341 93.3116 77.3808 93.2984 77.4206C93.2984 77.4338 93.2718 77.5001 93.2586 77.5134C93.0993 77.9377 92.9268 78.2161 92.688 78.521C92.1704 79.1574 91.56 79.5684 90.7506 79.7673C90.4056 79.8468 90.2331 80.2976 90.3392 80.6158C90.4719 80.9738 90.8302 81.1064 91.1885 81.0268C93.2851 80.5098 94.7581 78.4945 94.7846 76.3864C94.7979 76.0019 94.413 75.7235 94.0813 75.75Z"/><path fill="#1D3557" d="M118.431 79.0379C115.618 79.7671 113.057 81.3315 111.106 83.4926C110.536 84.129 111.531 85.0041 112.102 84.3677C113.906 82.3657 116.255 80.9603 118.856 80.2841C119.201 80.1913 119.373 79.7538 119.267 79.4356C119.148 79.0909 118.776 78.9451 118.431 79.0379Z"/><path fill="#BC6C25" d="M132.709 174.63C152.229 170.718 166.68 169.313 183.387 167.775C185.497 174.669 186.717 181.67 186.134 188.896C168.193 188.418 150.173 186.323 133.293 182.704C133.081 179.906 132.935 177.44 132.709 174.63Z"/><path fill="#BC6C25" d="M146.457 173.198C139.159 171.249 131.648 170.029 124.084 169.592C122.001 169.472 119.665 169.486 118.126 170.878C116.441 172.402 116.414 174.935 116.521 177.149C116.667 180.238 116.985 183.685 119.4 185.7C121.457 187.411 124.429 187.543 127.15 187.344C134.461 186.801 141.64 184.388 147.731 180.41L146.457 173.198Z"/><path fill="#BC6C25" d="M120.249 169.739C117.131 170.19 113.999 170.654 110.881 171.105C109.899 173.465 108.731 175.758 107.749 178.118C108.2 180.12 108.585 182.586 109.036 184.575C110.921 183.475 111.863 180.598 110.907 178.636C111.637 177.707 112.234 176.209 112.951 175.281C115.432 174.923 118.126 174.128 120.607 173.77L120.249 169.739Z"/><path fill="#BC6C25" d="M122.837 174.484C119.718 174.935 116.586 175.399 113.468 175.85C112.486 178.21 111.318 180.503 110.336 182.863C110.788 184.865 111.172 187.331 111.624 189.32C113.508 188.22 114.45 185.343 113.495 183.38C114.224 182.452 114.822 180.954 115.538 180.026C118.02 179.668 120.713 178.873 123.195 178.515L122.837 174.484Z"/><path fill="#BC6C25" d="M125.955 176.87C122.837 177.321 119.705 177.785 116.587 178.236C115.605 180.596 114.437 182.89 113.455 185.25C113.906 187.252 114.291 189.718 114.742 191.706C116.627 190.606 117.569 187.729 116.613 185.767C117.343 184.839 117.94 183.34 118.657 182.412C121.138 182.054 123.832 181.259 126.313 180.901L125.955 176.87Z"/><path fill="#BC6C25" d="M129.073 179.535C125.955 179.986 122.823 180.45 119.705 180.901C118.723 183.261 117.555 185.555 116.573 187.915C117.024 189.917 117.409 192.383 117.86 194.371C119.745 193.271 120.687 190.394 119.731 188.432C120.461 187.504 121.058 186.005 121.775 185.077C124.256 184.719 126.95 183.924 129.432 183.566L129.073 179.535Z"/><path fill="#3B6A87" d="M184.157 166.317C183.878 165.521 182.591 165.879 182.883 166.688C185.709 174.736 186.519 183.407 185.192 191.839C185.059 192.674 186.346 193.006 186.479 192.17C187.846 183.5 187.063 174.59 184.157 166.317Z"/><path fill="#3B6A87" d="M197.002 163.029C192.463 163.997 187.912 164.951 183.374 165.919C182.538 166.091 182.909 167.364 183.745 167.192C188.283 166.224 192.835 165.269 197.373 164.302C198.196 164.129 197.838 162.856 197.002 163.029Z"/><path fill="#3B6A87" d="M186.319 117.871C184.621 113.775 182.763 109.744 180.746 105.806C180.361 105.051 179.22 105.74 179.618 106.496C186.691 120.364 191.8 135.213 194.786 150.487C195.635 154.822 196.298 159.197 196.803 163.586C196.896 164.421 198.222 164.421 198.13 163.572C196.338 147.888 192.384 132.455 186.319 117.871Z"/><path fill="#3B6A87" d="M220.755 125.601C218.764 116.095 215.991 106.748 212.488 97.679C212.182 96.8835 210.908 97.2415 211.214 98.0502C217.278 113.748 221.126 130.268 222.612 147.026C223.355 155.405 223.528 163.838 223.09 172.23C222.878 176.353 222.665 180.569 222.002 184.64C221.71 186.43 221.073 188.06 219.467 189.028C218.074 189.877 216.376 190.142 214.77 190.274C210.072 190.659 205.309 190.632 200.611 190.805C195.688 190.977 190.765 191.15 185.842 191.322C184.993 191.348 185.006 192.674 185.855 192.648C194.932 192.329 204.021 192.038 213.098 191.693C216.203 191.574 219.932 191.269 221.936 188.564C222.984 187.159 223.263 185.422 223.462 183.725C223.714 181.564 223.926 179.389 224.099 177.215C225.452 159.966 224.298 142.532 220.755 125.601Z"/><path fill="#3B6A87" d="M198.037 163.015C197.28 162.631 196.63 163.784 197.387 164.169C202.243 166.622 205.773 171.209 206.941 176.512C207.127 177.348 208.4 176.976 208.215 176.141C206.981 170.533 203.172 165.614 198.037 163.015Z"/><path fill="#3B6A87" d="M224.921 206.304C217.026 211.501 208.308 215.359 199.165 217.772C189.982 220.185 180.428 221.14 170.953 220.556C165.605 220.225 160.311 219.389 155.122 218.064C154.286 217.852 153.968 219.138 154.791 219.35C164.106 221.723 173.793 222.518 183.374 221.776C192.954 221.034 202.416 218.78 211.28 215.067C216.283 212.973 221.086 210.427 225.611 207.444C226.328 206.967 225.638 205.826 224.921 206.304Z"/></svg>