<svg xmlns="http://www.w3.org/2000/svg" width="262" height="164" fill="none" viewBox="0 0 262 164"><mask id="mask0_390_1248" width="262" height="164" x="0" y="0" maskUnits="userSpaceOnUse" style="mask-type:alpha"><rect width="260.84" height="162.517" x=".846" y=".938" fill="#C4C4C4" rx="25"/></mask><g mask="url(#mask0_390_1248)"><path fill="#F1FAEE" d="M261.687 -30.7524H0.0339355V440.548H261.687V-30.7524Z"/><path fill="#457B9D" d="M0.0339355 -30.7524V68.8779C34.1039 53.9567 66.0404 33.4782 100.992 17.7305C154.568 -6.26084 209.178 -0.670843 261.687 16.197V-30.7524H0.0339355Z" opacity=".09"/><path fill="#A8DADC" d="M67.4119 161.341C68.1633 161.341 68.7725 160.733 68.7725 159.982C68.7725 159.231 68.1633 158.622 67.4119 158.622C66.6604 158.622 66.0513 159.231 66.0513 159.982C66.0513 160.733 66.6604 161.341 67.4119 161.341Z"/><path fill="#A8DADC" d="M48.2324 159.982C48.2324 159.231 48.842 158.622 49.593 158.622C50.3441 158.622 50.9537 159.231 50.9537 159.982C50.9537 160.732 50.3441 161.341 49.593 161.341C48.842 161.352 48.2324 160.743 48.2324 159.982Z"/><path fill="#A8DADC" d="M30.4248 159.982C30.4248 159.231 31.0344 158.622 31.7854 158.622C32.5365 158.622 33.146 159.231 33.146 159.982C33.146 160.732 32.5365 161.341 31.7854 161.341C31.0344 161.352 30.4248 160.743 30.4248 159.982Z"/><path fill="#A8DADC" d="M12.6169 159.982C12.6169 159.231 13.2265 158.622 13.9776 158.622C14.7286 158.622 15.3382 159.231 15.3382 159.982C15.3382 160.732 14.7286 161.341 13.9776 161.341C13.2265 161.352 12.6169 160.743 12.6169 159.982Z"/><path fill="#A8DADC" d="M66.0403 142.353C66.0403 141.602 66.6498 140.993 67.4009 140.993C68.152 140.993 68.7615 141.602 68.7615 142.353C68.7615 143.103 68.152 143.712 67.4009 143.712C66.6498 143.712 66.0403 143.103 66.0403 142.353Z"/><path fill="#A8DADC" d="M48.2324 142.353C48.2324 141.602 48.842 140.993 49.593 140.993C50.3441 140.993 50.9537 141.602 50.9537 142.353C50.9537 143.103 50.3441 143.712 49.593 143.712C48.842 143.712 48.2324 143.103 48.2324 142.353Z"/><path fill="#A8DADC" d="M30.4248 142.353C30.4248 141.602 31.0344 140.993 31.7854 140.993C32.5365 140.993 33.146 141.602 33.146 142.353C33.146 143.103 32.5365 143.712 31.7854 143.712C31.0344 143.712 30.4248 143.103 30.4248 142.353Z"/><path fill="#A8DADC" d="M12.6169 142.353C12.6169 141.602 13.2265 140.993 13.9776 140.993C14.7286 140.993 15.3382 141.602 15.3382 142.353C15.3382 143.103 14.7286 143.712 13.9776 143.712C13.2265 143.712 12.6169 143.103 12.6169 142.353Z"/><path fill="#A8DADC" d="M165.507 14.4678C166.084 14.4678 166.552 14.9354 166.552 15.5118C166.552 16.0882 166.084 16.5559 165.507 16.5559C164.93 16.5559 164.462 16.0882 164.462 15.5118C164.462 14.9354 164.93 14.4678 165.507 14.4678Z"/><path fill="#A8DADC" d="M165.507 0.797363C166.084 0.797363 166.552 1.26501 166.552 1.84141C166.552 2.41781 166.084 2.88546 165.507 2.88546C164.93 2.88546 164.462 2.41781 164.462 1.84141C164.462 1.26501 164.93 0.797363 165.507 0.797363Z"/><path fill="#A8DADC" d="M179.07 14.4678C179.647 14.4678 180.115 14.9354 180.115 15.5118C180.115 16.0882 179.647 16.5559 179.07 16.5559C178.493 16.5559 178.025 16.0882 178.025 15.5118C178.025 14.9354 178.493 14.4678 179.07 14.4678Z"/><path fill="#A8DADC" d="M179.07 0.797363C179.647 0.797363 180.115 1.26501 180.115 1.84141C180.115 2.41781 179.647 2.88546 179.07 2.88546C178.493 2.88546 178.025 2.41781 178.025 1.84141C178.014 1.26501 178.493 0.797363 179.07 0.797363Z"/><path fill="#A8DADC" d="M192.633 14.4678C193.21 14.4678 193.678 14.9354 193.678 15.5118C193.678 16.0882 193.21 16.5559 192.633 16.5559C192.056 16.5559 191.588 16.0882 191.588 15.5118C191.588 14.9354 192.045 14.4678 192.633 14.4678Z"/><path fill="#A8DADC" d="M192.633 0.797363C193.209 0.797363 193.678 1.26501 193.678 1.84141C193.678 2.41781 193.209 2.88546 192.633 2.88546C192.056 2.88546 191.588 2.41781 191.588 1.84141C191.577 1.26501 192.045 0.797363 192.633 0.797363Z"/><path fill="#A8DADC" d="M206.184 14.4678C206.761 14.4678 207.229 14.9354 207.229 15.5118C207.229 16.0882 206.761 16.5559 206.184 16.5559C205.607 16.5559 205.139 16.0882 205.139 15.5118C205.139 14.9354 205.607 14.4678 206.184 14.4678Z"/><path fill="#A8DADC" d="M206.184 0.797363C206.761 0.797363 207.229 1.26501 207.229 1.84141C207.229 2.41781 206.761 2.88546 206.184 2.88546C205.607 2.88546 205.139 2.41781 205.139 1.84141C205.139 1.26501 205.607 0.797363 206.184 0.797363Z"/><path fill="#A8DADC" d="M219.747 14.4678C220.324 14.4678 220.792 14.9354 220.792 15.5118C220.792 16.0882 220.324 16.5559 219.747 16.5559C219.17 16.5559 218.702 16.0882 218.702 15.5118C218.702 14.9354 219.17 14.4678 219.747 14.4678Z"/><path fill="#A8DADC" d="M219.747 0.797363C220.324 0.797363 220.792 1.26501 220.792 1.84141C220.792 2.41781 220.324 2.88546 219.747 2.88546C219.17 2.88546 218.702 2.41781 218.702 1.84141C218.702 1.26501 219.17 0.797363 219.747 0.797363Z"/><path fill="#A8DADC" d="M233.31 14.4678C233.887 14.4678 234.355 14.9354 234.355 15.5118C234.355 16.0882 233.887 16.5559 233.31 16.5559C232.733 16.5559 232.265 16.0882 232.265 15.5118C232.265 14.9354 232.733 14.4678 233.31 14.4678Z"/><path fill="#A8DADC" d="M233.31 0.797363C233.887 0.797363 234.355 1.26501 234.355 1.84141C234.355 2.41781 233.887 2.88546 233.31 2.88546C232.733 2.88546 232.265 2.41781 232.265 1.84141C232.265 1.26501 232.733 0.797363 233.31 0.797363Z"/><path fill="#A8DADC" d="M246.872 14.4678C247.449 14.4678 247.917 14.9354 247.917 15.5118C247.917 16.0882 247.449 16.5559 246.872 16.5559C246.295 16.5559 245.827 16.0882 245.827 15.5118C245.827 14.9354 246.285 14.4678 246.872 14.4678Z"/><path fill="#A8DADC" d="M246.872 0.797363C247.449 0.797363 247.917 1.26501 247.917 1.84141C247.917 2.41781 247.449 2.88546 246.872 2.88546C246.295 2.88546 245.827 2.41781 245.827 1.84141C245.816 1.26501 246.285 0.797363 246.872 0.797363Z"/><path stroke="#457B9D" stroke-linecap="round" stroke-miterlimit="10" d="M100.473 64.6006C92.8858 65.5142 84.9289 62.1101 80.3354 56.009C79.0728 54.3342 78.0278 52.3657 78.0713 50.2667C78.1149 48.1678 79.5626 46.0035 81.6416 45.7317C84.439 45.3728 86.6269 48.7659 85.8976 51.4739C85.1683 54.1928 82.4906 55.9872 79.7694 56.7159C75.459 57.8687 70.8655 56.966 66.6095 55.5957C62.3643 54.2254 58.2281 52.4092 53.8196 51.6914C49.4112 50.9736 44.5348 51.5174 41.1495 54.4212C37.7643 57.3249 36.6323 63.0128 39.6256 66.3298C41.9333 68.8965 46.309 69.2553 48.9976 67.102C51.6971 64.9378 52.2957 60.6093 50.2929 57.7926C47.9744 54.5408 43.4789 53.9535 39.9087 52.1591C34.6512 49.5163 31.1571 43.0889 33.0294 37.5098C34.9016 31.9307 42.902 29.103 47.2342 33.0835C48.8888 34.606 49.8793 36.8355 51.8168 37.9883C54.1244 39.3695 57.2484 38.7496 59.3274 37.053C61.4065 35.3456 62.582 32.7681 63.246 30.1688C64.0406 27.0584 64.2039 23.8067 65.1291 20.7289C66.0543 17.6511 67.9701 14.6278 70.9961 13.5402C74.2943 12.3657 78.0278 13.8447 80.6946 16.1068C83.3723 18.3689 85.3207 21.3597 87.6937 23.9263C90.0775 26.4929 93.1579 28.755 96.6629 28.8312C100.168 28.9073 103.825 25.9165 103.357 22.4581C102.954 19.4891 99.5147 17.488 96.5976 18.184C93.6695 18.8692 91.5687 21.7512 91.2857 24.7311C91.0027 27.7219 92.298 30.7017 94.3008 32.953C97.9364 37.0421 103.978 38.8257 109.257 37.3793C112.881 36.3787 116.441 33.0835 115.679 29.4076C114.982 26.0579 110.835 24.2961 107.537 25.2314C104.239 26.1667 101.844 29.0595 100.353 32.1373C98.8616 35.2151 98.067 38.5865 96.7064 41.7295C95.3458 44.8725 93.2341 47.9068 90.0883 49.2553C85.1575 51.3543 79.4428 48.6137 75.5025 44.9813C71.5621 41.3488 68.449 36.7376 63.8991 33.91C59.3492 31.0824 52.4373 30.7996 49.4003 35.2151C50.38 30.8866 51.4794 26.4494 54.1462 22.904C56.813 19.3586 61.4391 16.9116 65.706 18.1079C69.9729 19.3042 72.6289 25.1226 69.8205 28.5484C67.6871 31.1476 63.4637 31.6262 61.9289 34.6169C60.9384 36.5527 61.5044 39.0324 62.9521 40.6637C64.3889 42.2841 66.5442 43.1433 68.6994 43.4152C72.1717 43.8611 76.0141 42.7627 78.1258 39.9785C80.2483 37.1835 79.998 32.6376 77.1461 30.6147C73.2711 27.8741 67.7742 31.0389 65.2271 35.0411C62.68 39.0432 61.4935 43.9807 58.0865 47.2869C54.734 50.5495 49.6834 51.6479 45.0355 51.0498C40.3876 50.4407 36.0663 48.3309 32.0715 45.8948C34.3464 46.2319 36.7411 44.5354 37.1656 42.2733C37.5902 40.0112 35.9792 37.5533 33.7369 37.0421C31.3857 36.5092 29.0672 37.8796 27.0971 39.2607C22.8519 42.2298 18.6394 45.7643 16.9196 50.6365C15.1998 55.5196 17.0176 61.9688 21.9049 63.6762C26.7052 65.351 31.8756 61.8491 34.7383 57.6403C37.601 53.4424 39.1903 48.407 42.4884 44.5245C45.7865 40.6528 51.9148 38.3037 55.9531 41.4032C59.1206 43.8393 59.556 48.4179 59.273 52.4092C58.99 56.4005 58.326 60.642 60.1656 64.1982C61.8527 67.4718 65.6734 69.4946 69.3416 69.0705C72.999 68.6463 76.2536 65.7969 77.1461 62.2189C77.9516 59.0324 76.9829 55.6827 76.9937 52.3983C77.0046 49.1139 78.67 45.264 81.9355 44.8507C85.4949 44.394 87.9658 48.1134 90.9265 50.1471C96.0642 53.6708 104.184 51.2673 106.568 45.5141C107.94 42.1971 107.755 37.9774 110.509 35.661C113.328 33.2792 117.954 34.1601 120.719 31.7132C123.168 29.5489 123.026 25.438 121.121 22.7844C119.217 20.1308 116.005 18.7169 112.827 17.9557C105.491 16.1938 97.4792 17.3793 90.9809 21.1966C85.6473 24.3287 81.4239 29.0487 76.2209 32.3983C66.1197 38.891 52.4808 39.413 41.9006 33.736C38.3086 31.811 34.7383 28.5049 35.0757 24.4483C35.4349 20.2395 39.778 17.5859 43.8381 16.4113C53.1992 13.7142 63.725 15.3564 71.8125 20.7833C58.2063 27.1781 44.5892 33.5837 30.983 39.9785"/><path fill="#457B9D" d="M163.866 204.802L154.697 251.06C146.231 250.742 137.764 249.27 129.444 246.777C129.444 243.755 129.458 240.851 129.497 238.08C129.71 219.161 130.758 206.38 130.758 206.38C127.003 180.261 123.221 154.142 119.452 128.01C118.377 120.572 117.342 112.763 119.93 105.71C122.531 98.6566 130.055 92.7964 137.313 94.7587L146.775 133.923L163.866 204.802Z"/><path fill="#457B9D" d="M137.328 94.758C130.069 92.7825 122.545 98.6559 119.944 105.709C117.357 112.763 118.392 120.572 119.467 128.023C123.235 154.142 127.004 180.26 130.772 206.379C130.772 206.379 129.724 219.173 129.498 238.079C134.647 202.945 143.472 168.938 146.762 133.896L137.328 94.758Z"/><path fill="#3B6A87" d="M163.866 204.802L154.71 251.046H154.697C146.231 250.728 137.764 249.257 129.444 246.764C129.444 243.741 129.458 240.838 129.497 238.067C134.646 202.946 143.457 168.925 146.775 133.91L163.866 204.802Z"/><path fill="#457B9D" d="M207.245 78.7023C202.521 77.0185 197.346 77.1909 191.826 77.35C184.713 77.5356 177.627 78.278 170.62 79.5243C156.913 81.9771 143.563 86.4451 131.169 92.7958C126.405 95.2353 123.141 101.533 124.189 106.77C124.986 110.761 126.764 114.473 128.449 118.172C137.074 137.118 143.723 156.966 148.301 177.277C150.663 187.725 152.467 198.305 153.715 208.951C154.325 214.122 155.864 242.547 155.4 247.731C154.537 257.291 224.615 264.331 248.116 239.485C253.225 234.075 243.126 177.476 241.627 166.405C238.655 144.423 233.254 122.706 225.318 101.984C222.678 95.1027 219.4 88.0096 213.973 82.8786C211.85 80.8634 209.607 79.5508 207.245 78.7023Z"/><path fill="#3B6A87" d="M153.715 208.938C152.467 198.292 150.663 187.725 148.301 177.264C144.413 160.029 139.012 143.138 132.204 126.83C149.216 154.182 152.189 187.619 167.263 216.84C170.355 222.422 172.558 230.496 180.055 233.148C175.344 233.731 165.498 231.384 167.117 234.765C184.713 264.835 225.332 256.429 249.284 235.985C249.058 237.669 248.687 238.862 248.129 239.459C224.628 264.318 154.551 257.278 155.413 247.705C155.864 242.535 154.325 214.109 153.715 208.938Z"/><path fill="#3B6A87" d="M150.888 111.158C152.945 112.02 155.281 111.357 157.191 110.429C159.076 109.514 160.801 108.281 162.314 106.836C165.326 103.919 167.476 100.114 168.418 96.0308C168.949 93.7371 169.081 91.3771 168.803 89.0437C168.723 88.3675 169.771 88.3277 169.851 88.9907C170.926 97.94 165.896 107.353 157.762 111.318C155.48 112.431 152.852 113.121 150.411 112.113C149.787 111.848 150.265 110.906 150.888 111.158Z"/><path fill="#1D3557" d="M149.283 87.4939C142.475 75.1107 135.655 62.7143 128.847 50.3311C130.493 49.6947 129.989 46.6188 129.086 45.1074C128.184 43.5959 125.835 43.2114 124.495 44.3649C124.03 42.7872 121.668 41.0106 120.036 40.8117C118.404 40.6128 116.679 41.4614 115.843 42.88C113.574 41.3023 109.142 41.9121 107.616 44.2191C105.811 43.702 104.391 43.649 102.6 44.1925C100.795 44.7361 99.3221 46.7779 100.105 48.4882C98.8311 47.5336 95.726 47.9181 94.2398 48.5147C92.7668 49.0981 91.6389 50.4902 91.3735 52.0679C90.4579 51.7232 89.3299 52.2668 88.3612 52.2138C87.3926 52.1475 86.3575 52.4127 85.694 53.1286C85.0305 53.8445 84.8978 55.051 85.548 55.7802C83.5576 55.8996 81.0761 56.4431 79.3909 57.5171C77.7189 58.591 76.6573 60.9112 77.6525 62.6347C75.9275 62.5154 74.4412 64.0003 74.0697 65.6841C73.6981 67.3679 74.7066 69.2639 76.3256 69.887C75.264 71.0272 74.7066 74.3815 75.5957 75.6676C76.4848 76.9536 78.3028 77.484 79.7492 76.8873C79.4041 78.1601 80.2136 79.7644 81.169 80.6659C82.1245 81.5807 83.5974 81.9122 84.8448 81.5012C92.5545 84.8025 99.9856 88.886 106.262 94.4412L149.283 87.4939Z"/><path fill="#294B7A" d="M75.5823 75.6398C74.6932 74.3537 75.2505 70.9994 76.3121 69.8592C74.6932 69.236 73.6847 67.3534 74.0563 65.6563C74.4278 63.9725 75.914 62.4876 77.6391 62.6069C76.6439 60.8833 77.6922 58.5632 79.3775 57.4892C81.0494 56.4153 83.5442 55.8717 85.5346 55.7524C84.8844 55.0365 85.0304 53.8167 85.6806 53.1008C86.3441 52.3848 87.3791 52.1197 88.3478 52.1859C89.3165 52.2522 90.4577 51.7087 91.3601 52.0401C91.6255 50.4756 92.7534 49.0835 94.2263 48.4869C95.6993 47.9035 98.8177 47.5058 100.092 48.4604C99.3219 46.7501 100.795 44.7083 102.586 44.1647C104.391 43.6211 105.798 43.6742 107.602 44.1912C109.142 41.8843 113.56 41.2744 115.83 42.8522C116.666 41.4335 118.377 40.585 120.023 40.7839C121.655 40.9827 124.017 42.7593 124.481 44.3371C125.822 43.1836 128.17 43.5681 129.073 45.0795C129.975 46.591 130.479 49.6669 128.834 50.3033C131.13 54.4664 133.412 58.6427 135.708 62.8058C134.301 61.4137 132.908 59.995 131.594 58.5101C130.532 57.3169 129.497 56.0839 128.515 54.8243C127.852 53.9758 127.135 53.1273 126.631 52.1727C125.981 50.9397 125.463 49.3885 124.309 48.5399C123.208 47.7179 122.093 48.1554 121.191 48.9112C120.819 48.1422 120.288 47.4395 119.505 47.108C118.537 46.697 117.647 47.055 116.931 47.6782C116.108 47.0683 115.153 46.8296 114.131 47.3467C113.162 47.8372 112.459 48.7388 111.835 49.6139C110.628 49.11 109.248 48.9112 108.014 49.4282C106.859 49.9055 106.169 50.8734 105.824 52.0003C104.165 51.5761 102.44 51.2844 100.795 51.9738C99.9191 52.345 99.3219 52.9682 98.884 53.8035C98.5523 54.4399 98.3532 55.421 97.7959 55.8982C97.1988 56.4153 95.9514 56.0574 95.2481 55.9778C94.3723 55.8717 93.4434 55.7392 92.5809 55.9645C90.7098 56.4551 89.5023 57.8737 88.7061 59.5177C87.0341 59.6768 85.3621 60.1674 84.075 61.2015C82.3233 62.6202 82.0978 64.7017 82.8674 66.6374C81.3945 67.4064 79.603 68.5996 79.9215 70.4028C80.2267 72.0998 82.2172 73.0677 83.7697 73.7041C83.5574 74.7912 83.5574 75.9314 84.2342 76.886C84.9242 77.8804 86.092 78.2914 87.2464 78.4372C87.5914 80.0813 88.0426 81.659 88.6398 83.1704C87.3791 82.5738 86.1052 81.9904 84.8181 81.4469C83.5574 81.8579 82.0977 81.5264 81.1423 80.6116C80.1869 79.6968 79.3774 78.1058 79.7225 76.833C78.2893 77.4561 76.4714 76.9258 75.5823 75.6398Z"/><path fill="#BC6C25" d="M133.876 72.0867C142.754 77.2972 152.016 81.8978 161.531 85.8089C163.773 86.737 165.326 88.8848 165.313 91.3244C165.299 96.9061 163.11 101.957 159.142 105.71C157.218 107.513 154.365 107.91 152.056 106.638C146.297 103.456 140.458 100.168 134.752 97.0519L133.876 72.0867Z"/><path fill="#6B3E15" d="M133.876 72.0867C139.012 75.0963 144.267 77.907 149.628 80.4924C152.52 85.6366 153.317 91.4569 152.56 97.7678C152.03 100.419 151.167 103.058 149.986 105.497C144.904 102.673 139.768 99.7964 134.739 97.0519L133.876 72.0867Z"/><path fill="#BC6C25" d="M136.398 104.013C148.261 90.6483 143.258 79.3788 135.867 73.8766C138.123 71.2515 138.096 67.168 135.787 64.5959C134.553 63.217 132.748 62.3287 130.904 62.4083C129.073 62.5011 127.268 63.6015 126.551 65.2986C125.822 66.9823 126.352 69.17 127.865 70.2174L120.952 70.1908C117.74 68.2817 114.171 65.6698 110.973 63.7606C102.944 68.454 96.92 75.3881 92.9258 83.7805C94.8101 86.4587 98.7247 90.4627 99.1228 90.7278C112.897 100.552 126.83 114.792 136.398 104.013Z"/><path fill="#6B3E15" d="M130.227 70.8536C129.113 69.7001 127.865 68.3345 127.905 66.6109C127.945 65.1791 128.967 63.7869 130.466 63.7737C130.731 63.7737 130.93 64.0654 130.904 64.304C130.877 64.5957 130.639 64.7283 130.373 64.7415C129.378 64.7548 128.821 66.0011 128.887 66.8629C128.967 68.2285 130.108 69.3289 130.997 70.257C131.183 70.4426 131.103 70.7873 130.917 70.9464C130.692 71.1187 130.413 71.0392 130.227 70.8536Z"/><path fill="#6B3E15" d="M131.222 99.9951C131.793 99.3587 132.364 98.7223 132.934 98.0859C133.107 97.9003 133.399 97.8075 133.611 97.9798C133.797 98.1257 133.903 98.4571 133.717 98.656C133.146 99.2924 132.576 99.9288 132.005 100.565C131.833 100.751 131.541 100.844 131.328 100.671C131.143 100.525 131.037 100.207 131.222 99.9951Z"/><path fill="#1D3557" d="M105.545 78.6361C107.257 78.9277 108.412 77.3235 109.354 76.1568C110.522 74.6851 111.703 73.2134 112.87 71.7418C113.255 71.2512 114.051 71.8213 113.653 72.3119C112.326 73.9824 111.013 75.653 109.672 77.3102C108.637 78.5963 107.244 79.9088 105.439 79.6039C104.842 79.4978 104.935 78.53 105.545 78.6361Z"/><path fill="#1D3557" d="M99.4679 89.0039C100.171 88.0096 100.888 87.0152 101.591 86.0208C101.936 85.5435 102.281 85.0662 102.626 84.5757C102.759 84.3768 102.945 84.1249 102.958 83.873C102.958 83.7537 102.918 83.515 102.772 83.4885C102.162 83.3692 102.255 82.4013 102.878 82.5207C103.489 82.64 103.9 83.1305 103.927 83.7537C103.966 84.5094 103.436 85.1193 103.024 85.7026C102.109 87.0019 101.18 88.288 100.264 89.5873C99.8792 90.0911 99.0963 89.5077 99.4679 89.0039Z"/><path fill="#6B3E15" d="M115.219 95.9511C114.795 95.4606 114.529 94.8507 114.25 94.2806C113.905 93.5779 113.547 92.862 113.202 92.1593C112.486 90.7141 111.769 89.2557 111.052 87.8106C110.774 87.2405 111.623 86.7101 111.915 87.2935C112.539 88.553 113.162 89.8258 113.786 91.0853C114.396 92.3184 114.94 93.6044 115.631 94.7844C117.05 97.2504 119.903 94.8109 121.934 94.7181C122.584 94.6916 122.61 95.6992 121.96 95.7257C120.686 95.7788 119.611 96.5345 118.391 96.7864C117.223 97.0515 116.029 96.8925 115.219 95.9511Z"/><path fill="#1D3557" d="M116.453 76.9659C116.56 78.9678 115.246 80.9301 113.362 81.6062C112.552 81.8979 112.99 83.1442 113.799 82.8525C116.254 81.9775 117.926 79.4584 117.78 76.8598C117.727 76.0113 116.4 76.1041 116.453 76.9659Z"/><path fill="#1D3557" d="M109.367 87.8772C108.982 87.9038 108.757 88.2352 108.757 88.5932C108.757 88.7523 108.744 88.8981 108.704 89.1103C108.677 89.2163 108.664 89.3224 108.624 89.4284C108.611 89.4682 108.598 89.508 108.584 89.5478C108.584 89.561 108.558 89.6273 108.544 89.6406C108.385 90.0648 108.213 90.3433 107.974 90.6482C107.456 91.2846 106.846 91.6956 106.036 91.8945C105.691 91.974 105.519 92.4248 105.625 92.743C105.758 93.101 106.116 93.2336 106.474 93.154C108.571 92.637 110.044 90.6217 110.07 88.5136C110.084 88.1291 109.699 87.8507 109.367 87.8772Z"/><path fill="#1D3557" d="M133.717 91.1651C130.904 91.8943 128.343 93.4587 126.392 95.6198C125.822 96.2562 126.817 97.1313 127.387 96.4949C129.192 94.4929 131.541 93.0875 134.142 92.4113C134.487 92.3185 134.659 91.881 134.553 91.5628C134.434 91.2181 134.062 91.0723 133.717 91.1651Z"/><path fill="#3B6A87" d="M201.605 129.999C199.907 125.902 198.049 121.871 196.032 117.934C195.647 117.178 194.506 117.867 194.904 118.623C201.977 132.491 207.086 147.34 210.071 162.614C210.921 166.949 211.584 171.324 212.089 175.713C212.181 176.548 213.508 176.548 213.415 175.7C211.624 160.015 207.67 144.583 201.605 129.999Z"/><path fill="#3B6A87" d="M236.04 137.728C234.05 128.222 231.277 118.875 227.773 109.806C227.468 109.011 226.194 109.369 226.5 110.177C232.564 125.875 236.412 142.395 237.898 159.153C238.641 167.533 238.814 175.965 238.376 184.357C238.164 188.481 237.951 192.697 237.288 196.767C236.996 198.557 236.359 200.188 234.753 201.155C233.36 202.004 231.661 202.269 230.056 202.402C225.358 202.786 220.594 202.76 215.897 202.932C210.974 203.104 206.051 203.277 201.128 203.449C200.278 203.476 200.292 204.801 201.141 204.775C210.217 204.457 219.307 204.165 228.384 203.82C231.489 203.701 235.218 203.396 237.221 200.691C238.27 199.286 238.548 197.549 238.748 195.852C239 193.691 239.212 191.517 239.384 189.342C240.738 172.093 239.583 154.659 236.04 137.728Z"/></g></svg>