<svg xmlns="http://www.w3.org/2000/svg" width="220" height="207" fill="none" viewBox="0 0 220 207"><path fill="#50B2B5" d="M62.9484 63.7041C51.3284 56.6021 37.3682 52.0273 24.0743 54.977C10.7803 57.9267 -0.961528 70.1398 0.0623309 83.7181C1.38685 79.9071 5.1735 77.3068 9.1308 76.5349C13.0962 75.7548 17.2079 76.543 21.0433 77.8106C32.7446 81.6623 42.5931 89.7963 50.8165 98.9623C59.0399 108.128 65.8818 118.44 73.5445 128.077C76.933 132.343 80.614 136.577 85.4245 139.137C91.3808 142.289 100.368 142.411 104.033 135.772C106.625 131.084 106.82 126.273 105.227 121.317C102.911 114.109 100.555 107.039 97.012 100.311C93.3066 93.2579 88.7155 86.676 83.3849 80.7522C77.4368 74.1378 70.5461 68.3521 62.9484 63.7041Z"/><path fill="#459A9D" d="M32.8989 78.5176C53.3274 93.136 67.832 111.314 84.8395 130.669C90.9989 137.097 97.8896 137.641 104.333 135.212C104.236 135.399 104.147 135.586 104.049 135.764C100.384 142.403 91.397 142.281 85.4408 139.128C80.6221 136.577 76.9492 132.343 73.5608 128.069C65.8981 118.432 59.0561 108.12 50.8327 98.9541C42.6093 89.7882 32.7527 81.6542 21.0595 77.8025C17.2241 76.543 13.1125 75.7467 9.14703 76.5268C5.18161 77.3068 1.40308 79.899 0.0785682 83.71C-0.0189422 82.3693 0.00543544 81.0447 0.143575 79.7365C7.72501 69.7823 23.0748 70.9118 32.8989 78.5176Z"/><path fill="#1D3557" d="M25.6749 67.6207C32.1918 65.3861 39.2776 65.8574 45.7539 68.0108C53.0509 70.4404 59.381 75.0315 64.874 80.3296C70.9928 86.229 76.3559 92.9409 81.5402 99.661C86.9927 106.731 92.1201 114.044 96.9062 121.576C101.676 129.077 106.113 136.788 110.192 144.678C110.696 145.653 111.2 146.637 111.695 147.62C111.915 148.059 111.208 148.351 110.98 147.912C107.015 140.038 102.708 132.335 98.0601 124.843C93.4527 117.416 88.5122 110.192 83.271 103.204C78.1923 96.4351 72.9024 89.7312 67.0518 83.6043C61.7131 78.0056 55.6187 72.8944 48.4354 69.8554C42.1948 67.2063 35.1496 66.0687 28.4783 67.6207C27.6251 67.8158 26.7962 68.0677 25.9674 68.3439C25.4961 68.4983 25.2036 67.7833 25.6749 67.6207Z"/><path fill="#1D3557" d="M33.3134 71.7893C37.2788 69.7253 41.6912 68.6689 46.1442 68.6445C42.9426 65.9224 39.741 63.2002 36.5313 60.4699C36.1575 60.153 36.6206 59.5436 37.0026 59.8605C40.4723 62.8102 43.9502 65.768 47.4199 68.7177C47.7287 68.9777 47.5093 69.4165 47.1274 69.4003C42.4388 69.2459 37.7583 70.3347 33.5978 72.4962C33.1671 72.7319 32.8827 72.0168 33.3134 71.7893Z"/><path fill="#1D3557" d="M56.854 86.4079C62.9484 88.1225 68.8397 90.5359 74.3815 93.6074C75.6004 94.2819 76.803 95.0051 77.9894 95.7364C75.8604 90.0808 73.0976 84.669 69.7335 79.6472C68.7178 78.1358 67.6533 76.6569 66.5401 75.2105C66.2394 74.8204 66.8489 74.3491 67.1495 74.7392C71.0987 79.8503 74.4303 85.4328 77.0387 91.3403C77.7863 93.0386 78.477 94.7613 79.1027 96.5002C79.2408 96.874 78.8264 97.1503 78.5095 96.9472C73.2277 93.5668 67.5639 90.7959 61.6483 88.7075C59.9663 88.1144 58.2679 87.578 56.5534 87.0986C56.0821 86.9849 56.3827 86.2779 56.854 86.4079Z"/><path fill="#1D3557" d="M78.4197 112.394C84.0185 114.166 89.3165 116.847 94.0539 120.309C95.1184 121.081 96.1341 121.91 97.1336 122.763C95.7766 115.701 93.8101 108.778 91.2342 102.066C91.0555 101.603 91.7705 101.311 91.9493 101.774C94.6715 108.876 96.7354 116.23 98.1006 123.714C98.1575 124.031 97.7268 124.282 97.483 124.063C93.1113 120.195 88.122 117.05 82.7427 114.791C81.2232 114.158 79.6792 113.589 78.111 113.093C77.6478 112.955 77.9566 112.248 78.4197 112.394Z"/><path fill="#459A9D" d="M50.6784 124.331C39.2372 125.786 25.9352 133.229 22.5223 145.995C19.792 137.024 24.0743 126.915 31.4364 120.78C33.931 119.74 36.5394 119.065 39.2535 118.83C40.8136 118.7 40.6836 116.27 39.1234 116.4C38.9691 116.416 38.8228 116.433 38.6684 116.449C45.2666 113.67 52.6611 113.069 59.9338 113.857C62.6803 115.108 65.2725 116.733 67.5315 118.74C68.7016 119.781 70.3268 117.969 69.1566 116.928C68.3766 116.23 67.5477 115.58 66.6945 114.97C67.4258 115.133 68.149 115.303 68.8641 115.482C73.8453 116.75 78.6802 118.537 83.3119 120.764C86.6598 123.868 89.5201 127.614 92.2422 131.149C93.1929 132.384 95.2407 131.067 94.2899 129.832C92.8842 128.012 91.454 126.151 89.9426 124.339C95.6226 127.76 100.88 131.88 105.569 136.577C110.111 141.135 113.784 146.255 117.457 151.512C119.984 155.128 121.024 159.061 120.098 163.498C120.09 163.555 120.073 163.612 120.057 163.668C100.124 144.946 78.867 122.381 50.6784 124.331Z"/><path fill="#50B2B5" d="M50.6787 124.331C78.8592 122.381 100.125 144.946 120.057 163.677C118.652 169.828 111.444 171.932 105.886 170.876C101.758 170.096 98.0525 167.943 94.5421 165.594C97.4674 165.22 100.425 165.131 103.375 165.22C104.943 165.269 104.797 162.84 103.245 162.791C99.3608 162.677 95.4847 162.896 91.6575 163.603C87.8789 160.954 84.1735 158.2 80.4356 155.494C82.3208 155.323 84.206 155.25 86.075 155.242C87.6433 155.234 87.5051 152.804 85.945 152.812C83.1578 152.828 80.3137 152.991 77.5103 153.397C74.3656 151.171 71.1721 149.017 67.8649 147.035C63.3063 144.304 58.4714 141.899 53.4496 140.168C55.8874 139.112 58.4145 138.275 60.9986 137.649C62.5262 137.276 61.7624 134.968 60.251 135.333C56.6756 136.203 53.3277 137.527 50.1099 139.128C46.3233 138.08 42.4391 137.438 38.4899 137.365C38.2949 137.365 38.0918 137.365 37.8967 137.365C38.2705 137.089 38.6362 136.821 39.0019 136.552C39.5382 136.162 39.7413 135.447 39.3675 134.87C39.0262 134.342 38.2136 134.115 37.6855 134.505C36.3203 135.504 34.9389 136.536 33.6388 137.666C31.8511 137.95 30.1203 138.454 28.5276 139.307C25.5129 140.924 23.1077 143.971 22.9858 147.384C22.807 146.929 22.6526 146.466 22.5063 146.003C25.9355 133.229 39.2456 125.786 50.6787 124.331Z"/><path fill="#1D3557" d="M39.7005 127.971C44.4135 124.534 50.2641 123.145 56.0335 123.275C62.5423 123.421 68.8073 125.55 74.5767 128.459C80.9961 131.701 87.0093 135.788 92.8843 139.933C99.0599 144.288 105.032 148.92 110.786 153.82C116.514 158.695 122.024 163.823 127.297 169.186C127.947 169.852 128.597 170.518 129.248 171.193C129.54 171.494 129.036 171.908 128.744 171.607C123.568 166.228 118.164 161.076 112.533 156.176C106.95 151.317 101.156 146.71 95.1676 142.37C89.3739 138.169 83.4176 134.066 77.1607 130.572C71.4401 127.378 65.2401 124.77 58.6744 124.104C52.97 123.518 46.9894 124.364 41.9757 127.281C41.3419 127.655 40.7243 128.061 40.1312 128.491C39.7736 128.719 39.3592 128.215 39.7005 127.971Z"/><path fill="#1D3557" d="M46.9245 129.434C49.6141 126.777 52.9213 124.819 56.5211 123.689C53.2464 122.283 49.9798 120.886 46.7051 119.48C46.3231 119.317 46.5507 118.708 46.9326 118.871C50.4755 120.39 54.0265 121.91 57.5693 123.429C57.8862 123.567 57.8131 123.974 57.5043 124.055C53.6689 125.103 50.1585 127.151 47.3389 129.938C47.0382 130.231 46.6238 129.727 46.9245 129.434Z"/><path fill="#1D3557" d="M69.6118 135.374C74.9668 135.236 80.338 135.723 85.5791 136.82C86.733 137.064 87.8869 137.34 89.0245 137.641C85.8879 133.603 82.3044 129.913 78.3309 126.687C77.1364 125.712 75.9012 124.786 74.6417 123.9C74.3004 123.657 74.6742 123.128 75.0155 123.372C79.4848 126.517 83.5721 130.206 87.1637 134.326C88.1957 135.512 89.1789 136.731 90.1215 137.982C90.3247 138.251 90.0646 138.576 89.7558 138.494C84.6447 137.08 79.371 136.252 74.0648 136.04C72.5615 135.983 71.0501 135.975 69.5468 136.008C69.1324 136.032 69.1974 135.39 69.6118 135.374Z"/><path fill="#1D3557" d="M93.5425 151.008C98.5074 151.041 103.472 151.886 108.169 153.503C109.217 153.869 110.249 154.275 111.273 154.714C108.413 149.342 105.089 144.231 101.335 139.453C101.075 139.128 101.579 138.714 101.839 139.039C105.821 144.101 109.323 149.529 112.297 155.242C112.419 155.486 112.134 155.794 111.883 155.681C107.381 153.641 102.562 152.349 97.646 151.87C96.2646 151.731 94.867 151.666 93.4775 151.658C93.0631 151.65 93.1281 151 93.5425 151.008Z"/><path fill="#459A9D" d="M60.1776 39.3184C48.972 36.5881 33.8823 38.7902 26.1465 49.5083C26.7966 40.1554 34.4105 32.2408 43.4708 29.1367C46.1767 29.0554 48.8501 29.3561 51.4667 30.1118C52.97 30.5425 53.7175 28.2266 52.2061 27.7959C52.0599 27.7553 51.9136 27.7228 51.7673 27.6822C58.9262 27.4384 66.0445 29.5186 72.5533 32.8502C74.6741 35.0036 76.5187 37.4413 77.9082 40.1229C78.6314 41.5124 80.7929 40.3991 80.0697 39.0096C79.5903 38.0833 79.0459 37.1813 78.4689 36.2956C79.0946 36.7019 79.7041 37.1244 80.3135 37.5551C84.5146 40.5129 88.3906 43.9176 91.9254 47.6474C93.9487 51.7429 95.2813 56.2608 96.5652 60.535C97.0121 62.0302 99.4011 61.5345 98.9461 60.0394C98.2879 57.8454 97.6053 55.5864 96.8415 53.3599C100.929 58.5848 104.366 64.3054 107.064 70.3673C109.68 76.2423 111.281 82.3449 112.833 88.5612C113.906 92.8354 113.475 96.882 111.021 100.701C110.989 100.75 110.956 100.799 110.924 100.847C99.003 76.2261 87.1961 47.558 60.1776 39.3184Z"/><path fill="#50B2B5" d="M60.1775 39.3185C87.2041 47.5581 99.0028 76.218 110.94 100.831C107.429 106.081 99.9455 105.471 95.1349 102.497C91.5596 100.295 88.8618 96.9552 86.424 93.518C89.2924 94.2087 92.0877 95.1838 94.8099 96.3214C96.2563 96.9227 96.9876 94.6069 95.5494 94.0055C91.9577 92.5104 88.2686 91.3321 84.4332 90.6333C81.8492 86.8142 79.3708 82.9137 76.8436 79.054C78.6638 79.5659 80.4515 80.1753 82.1986 80.8254C83.6693 81.3779 84.4007 79.0539 82.938 78.5095C80.3296 77.5344 77.6156 76.6649 74.8528 76.0474C72.7076 72.8458 70.4973 69.693 68.1164 66.662C64.8336 62.4853 61.1769 58.5118 57.1059 55.0989C59.763 54.9851 62.4202 55.0989 65.0611 55.4402C66.6213 55.6433 66.735 53.2056 65.1911 53.0106C61.5426 52.5474 57.9429 52.588 54.3593 52.9374C51.1984 50.6053 47.7936 48.6226 44.137 47.1437C43.9501 47.0705 43.7632 47.0055 43.5845 46.9324C44.0314 46.8105 44.4702 46.6886 44.909 46.5667C45.5428 46.3961 45.9897 45.8029 45.8516 45.1285C45.7216 44.5109 45.0471 44.0152 44.4133 44.1859C42.78 44.6328 41.1223 45.1041 39.5053 45.6973C37.7338 45.3235 35.938 45.1772 34.1503 45.4129C30.7618 45.8517 27.4221 47.8344 26.0895 50.9791C26.0813 50.4834 26.1057 50.004 26.1382 49.5164C33.8822 38.7984 48.9719 36.5963 60.1775 39.3185Z"/><path fill="#1D3557" d="M48.6223 38.7984C54.2454 37.2708 60.2098 38.059 65.5566 40.2367C71.586 42.6907 76.681 46.9243 81.0283 51.7023C85.8713 57.0248 90.0317 62.9891 94.0297 68.9535C98.2389 75.2267 102.164 81.6868 105.796 88.3093C109.412 94.9075 112.727 101.66 115.734 108.559C116.108 109.412 116.473 110.274 116.839 111.127C117.001 111.509 116.384 111.712 116.221 111.33C113.312 104.455 110.095 97.7191 106.584 91.129C103.106 84.6039 99.3359 78.2251 95.2892 72.0332C91.3725 66.0363 87.2771 60.0801 82.6778 54.5789C78.4768 49.5571 73.6094 44.901 67.7181 41.935C62.5988 39.351 56.7076 38.0021 50.987 38.9366C50.2556 39.0585 49.5406 39.221 48.8255 39.4079C48.4192 39.5216 48.2161 38.9041 48.6223 38.7984Z"/><path fill="#1D3557" d="M54.8389 42.7394C58.3005 41.2199 62.0871 40.5698 65.8494 40.7973C63.2979 38.319 60.7383 35.8406 58.1867 33.3622C57.8861 33.0696 58.3167 32.5821 58.6174 32.8746C61.3883 35.5643 64.1592 38.2458 66.922 40.9355C67.1658 41.1711 66.9545 41.5287 66.6376 41.4962C62.6803 41.1061 58.6743 41.7643 55.042 43.357C54.6601 43.5276 54.4651 42.9101 54.8389 42.7394Z"/><path fill="#1D3557" d="M73.9184 56.3908C78.9727 58.1784 83.8157 60.5431 88.3174 63.444C89.3088 64.086 90.2839 64.7523 91.2427 65.443C89.7557 60.5512 87.7242 55.8301 85.1646 51.4015C84.3926 50.0688 83.5719 48.7606 82.7106 47.4767C82.4749 47.1273 83.0193 46.7697 83.255 47.111C86.3103 51.6453 88.8131 56.5452 90.6902 61.6807C91.2265 63.1515 91.714 64.6466 92.1447 66.1499C92.2341 66.475 91.8765 66.6862 91.6246 66.4993C87.3504 63.3465 82.7187 60.6975 77.8432 58.6091C76.4618 58.0159 75.056 57.4715 73.634 56.9677C73.2277 56.8377 73.5283 56.2526 73.9184 56.3908Z"/><path fill="#1D3557" d="M90.6901 79.5334C95.3218 81.3373 99.6448 83.897 103.456 87.0823C104.309 87.7974 105.13 88.5531 105.926 89.3251C105.17 83.2876 103.895 77.3313 102.091 71.5213C101.969 71.1231 102.586 70.9119 102.708 71.3182C104.618 77.4694 105.95 83.7914 106.69 90.1864C106.722 90.4546 106.341 90.6415 106.154 90.4464C102.676 86.9361 98.6372 84.0107 94.2167 81.8005C92.9735 81.1829 91.6977 80.6141 90.3976 80.1103C90.0075 79.9641 90.3001 79.3871 90.6901 79.5334Z"/><path fill="#50B2B5" d="M165.849 86.8629C176.844 81.7599 189.658 79.1271 201.115 83.0844C212.573 87.0336 221.715 99.0355 219.439 110.94C218.651 107.429 215.571 104.756 212.142 103.667C208.713 102.578 205 102.855 201.473 103.586C190.739 105.804 181.199 112.004 173 119.277C164.801 126.55 157.707 134.976 149.947 142.72C146.518 146.149 142.837 149.521 138.319 151.293C132.728 153.479 124.773 152.674 122.205 146.434C120.385 142.021 120.702 137.755 122.611 133.53C125.391 127.387 128.194 121.373 132.005 115.783C136.003 109.924 140.724 104.561 146.038 99.8724C151.978 94.615 158.658 90.2027 165.849 86.8629Z"/><path fill="#459A9D" d="M190.925 103.009C171.374 113.865 156.707 128.467 139.708 143.866C133.605 148.928 127.462 148.709 122.01 145.905C122.075 146.076 122.14 146.255 122.205 146.426C124.773 152.666 132.736 153.471 138.318 151.285C142.836 149.513 146.517 146.141 149.946 142.712C157.699 134.96 164.792 126.542 173 119.269C181.199 111.996 190.738 105.804 201.473 103.578C204.991 102.847 208.713 102.57 212.142 103.659C215.571 104.748 218.651 107.429 219.439 110.932C219.666 109.753 219.772 108.575 219.78 107.405C214.076 97.8328 200.384 97.2722 190.925 103.009Z"/><path fill="#1D3557" d="M198.417 94.1032C192.884 91.4704 186.562 91.1616 180.622 92.413C173.918 93.8269 167.856 97.2397 162.461 101.368C156.455 105.967 151.027 111.354 145.77 116.774C140.236 122.471 134.954 128.419 129.957 134.594C124.984 140.738 120.279 147.108 115.867 153.682C115.322 154.495 114.778 155.315 114.242 156.136C113.998 156.502 114.599 156.827 114.843 156.461C119.15 149.895 123.741 143.525 128.608 137.373C133.435 131.271 138.538 125.388 143.885 119.732C149.061 114.263 154.416 108.868 160.21 104.041C165.5 99.6369 171.407 95.7283 178.062 93.7619C183.848 92.0554 190.194 91.7629 195.939 93.8025C196.67 94.0625 197.385 94.3632 198.084 94.6964C198.482 94.8914 198.816 94.2982 198.417 94.1032Z"/><path fill="#1D3557" d="M191.234 97.0203C187.935 94.7939 184.14 93.4125 180.207 92.9412C183.32 90.8609 186.424 88.7726 189.536 86.6924C189.901 86.4486 189.552 85.8635 189.186 86.1073C185.814 88.3663 182.45 90.6253 179.078 92.8843C178.777 93.0874 178.932 93.4937 179.265 93.5181C183.425 93.8594 187.456 95.2895 190.917 97.6217C191.275 97.8654 191.6 97.2641 191.234 97.0203Z"/><path fill="#1D3557" d="M168.937 107.559C163.371 108.461 157.918 109.997 152.71 112.151C151.564 112.622 150.426 113.142 149.305 113.67C151.759 108.884 154.749 104.382 158.235 100.279C159.283 99.0436 160.38 97.8409 161.51 96.6789C161.819 96.362 161.323 95.8907 161.022 96.1995C157.008 100.319 153.498 104.919 150.597 109.883C149.76 111.306 148.98 112.76 148.249 114.239C148.094 114.556 148.427 114.84 148.728 114.694C153.742 112.24 159.032 110.363 164.476 109.12C166.02 108.762 167.58 108.461 169.14 108.21C169.563 108.145 169.368 107.494 168.937 107.559Z"/><path fill="#1D3557" d="M147.233 128.354C142.105 129.353 137.14 131.189 132.598 133.773C131.582 134.35 130.591 134.976 129.624 135.634C131.533 129.532 133.979 123.6 136.937 117.928C137.14 117.538 136.539 117.205 136.336 117.603C133.207 123.608 130.64 129.897 128.673 136.382C128.592 136.658 128.941 136.918 129.185 136.756C133.443 133.782 138.172 131.506 143.162 130.052C144.567 129.646 145.989 129.304 147.428 129.02C147.858 128.93 147.663 128.272 147.233 128.354Z"/><path fill="#459A9D" d="M170.554 141.721C180.524 144.167 191.535 152.097 193.257 163.734C196.581 156.079 193.818 146.702 187.927 140.534C185.822 139.364 183.587 138.495 181.215 138.023C179.85 137.747 180.207 135.61 181.58 135.886C181.71 135.911 181.84 135.943 181.979 135.976C176.42 132.847 169.952 131.571 163.435 131.523C160.876 132.352 158.422 133.522 156.22 135.066C155.074 135.87 153.831 134.099 154.968 133.302C155.732 132.766 156.528 132.278 157.349 131.815C156.691 131.88 156.033 131.961 155.374 132.051C150.84 132.668 146.379 133.757 142.064 135.261C138.79 137.666 135.88 140.689 133.11 143.533C132.143 144.524 130.461 143.159 131.436 142.159C132.858 140.697 134.32 139.193 135.84 137.747C130.469 140.201 125.398 143.305 120.783 146.986C116.305 150.553 112.535 154.714 108.756 158.988C106.156 161.93 104.832 165.302 105.205 169.324C105.213 169.373 105.222 169.422 105.222 169.479C124.74 154.941 145.827 137.146 170.554 141.721Z"/><path fill="#50B2B5" d="M170.554 141.721C145.827 137.138 124.74 154.942 105.214 169.487C105.831 175.069 111.999 177.661 117.013 177.288C120.742 177.011 124.245 175.484 127.576 173.769C125.025 173.143 122.416 172.762 119.8 172.542C118.41 172.428 118.784 170.291 120.165 170.405C123.619 170.698 127.016 171.283 130.331 172.298C133.939 170.34 137.498 168.284 141.081 166.269C139.432 165.928 137.766 165.668 136.125 165.473C134.735 165.302 135.109 163.173 136.49 163.336C138.952 163.636 141.455 164.059 143.885 164.709C146.891 163.059 149.931 161.475 153.059 160.053C157.366 158.094 161.884 156.461 166.499 155.437C164.451 154.259 162.306 153.259 160.08 152.439C158.763 151.959 159.673 149.993 160.974 150.464C164.045 151.594 166.873 153.105 169.554 154.852C173.008 154.308 176.51 154.137 180.004 154.47C180.183 154.486 180.354 154.511 180.533 154.527C180.232 154.243 179.931 153.966 179.639 153.698C179.208 153.3 179.094 152.65 179.484 152.171C179.842 151.74 180.581 151.618 181.012 152.016C182.125 153.04 183.238 154.096 184.27 155.226C185.822 155.657 187.301 156.282 188.618 157.2C191.112 158.939 192.941 161.873 192.697 164.904C192.9 164.514 193.087 164.124 193.258 163.726C191.535 152.097 180.524 144.167 170.554 141.721Z"/><path fill="#1D3557" d="M179.898 146.052C176.079 142.533 171.049 140.713 165.93 140.242C160.161 139.705 154.4 140.957 149.004 142.948C142.999 145.166 137.262 148.172 131.655 151.236C125.756 154.462 120.003 157.956 114.42 161.702C108.862 165.432 103.467 169.405 98.2579 173.615C97.616 174.135 96.974 174.663 96.3321 175.191C96.0477 175.427 96.4459 175.841 96.7384 175.605C101.858 171.372 107.164 167.366 112.641 163.604C118.069 159.874 123.659 156.388 129.396 153.154C134.946 150.025 140.626 146.994 146.517 144.54C151.897 142.298 157.65 140.615 163.525 140.689C168.628 140.754 173.837 142.102 177.973 145.19C178.501 145.58 179.005 146.003 179.484 146.45C179.752 146.71 180.175 146.304 179.898 146.052Z"/><path fill="#1D3557" d="M173.365 146.612C171.252 143.988 168.53 141.924 165.467 140.559C168.498 139.648 171.537 138.738 174.568 137.828C174.925 137.723 174.787 137.162 174.43 137.268C171.139 138.251 167.848 139.234 164.565 140.225C164.272 140.315 164.297 140.68 164.557 140.786C167.84 142.102 170.74 144.264 172.951 147.019C173.178 147.311 173.593 146.905 173.365 146.612Z"/><path fill="#1D3557" d="M152.693 149.57C147.972 148.904 143.17 148.79 138.424 149.229C137.376 149.326 136.336 149.456 135.296 149.611C138.481 146.352 142.024 143.46 145.859 141.014C147.013 140.274 148.199 139.584 149.41 138.925C149.735 138.747 149.459 138.243 149.134 138.422C144.86 140.754 140.87 143.598 137.286 146.881C136.254 147.823 135.263 148.806 134.304 149.814C134.101 150.033 134.296 150.35 134.572 150.302C139.237 149.562 143.99 149.375 148.695 149.725C150.036 149.822 151.369 149.968 152.693 150.155C153.059 150.204 153.059 149.619 152.693 149.57Z"/><path fill="#1D3557" d="M129.949 160.971C125.553 160.499 121.083 160.743 116.76 161.694C115.793 161.905 114.843 162.165 113.892 162.45C116.964 157.989 120.425 153.804 124.228 149.96C124.488 149.692 124.09 149.278 123.822 149.546C119.791 153.617 116.143 158.07 112.933 162.815C112.795 163.018 113.023 163.319 113.25 163.246C117.435 161.905 121.831 161.247 126.227 161.312C127.462 161.328 128.705 161.41 129.932 161.548C130.314 161.588 130.314 161.011 129.949 160.971Z"/><path fill="#459A9D" d="M170.773 65.5812C180.955 64.3054 194.078 67.7833 199.839 78.0382C200.213 69.701 194.281 61.9246 186.578 58.2679C184.197 57.9266 181.8 57.9185 179.411 58.3167C178.038 58.5442 177.615 56.4233 178.988 56.1958C179.118 56.1714 179.256 56.1552 179.386 56.1389C173.081 55.1963 166.58 56.3177 160.478 58.6011C158.381 60.2913 156.512 62.2577 155.001 64.4923C154.221 65.6462 152.425 64.4436 153.205 63.2897C153.725 62.5177 154.294 61.7702 154.895 61.0551C154.302 61.3557 153.717 61.6645 153.14 61.9814C149.126 64.1754 145.347 66.7838 141.853 69.7254C139.651 73.1464 138.018 77.0062 136.449 80.6547C135.897 81.9304 133.841 81.2479 134.393 79.9721C135.198 78.095 136.027 76.1692 136.929 74.2759C132.785 78.4851 129.16 83.1981 126.162 88.2767C123.253 93.2091 121.221 98.4422 119.214 103.781C117.833 107.454 117.809 111.078 119.58 114.702C119.604 114.751 119.629 114.791 119.653 114.84C132.695 94.2817 146.038 70.1236 170.773 65.5812Z"/><path fill="#50B2B5" d="M170.773 65.5813C146.038 70.1318 132.695 94.2818 119.653 114.84C122.221 119.838 128.909 120.057 133.459 117.92C136.848 116.335 139.57 113.654 142.073 110.859C139.464 111.184 136.896 111.761 134.369 112.484C133.028 112.874 132.614 110.745 133.947 110.363C137.27 109.404 140.659 108.738 144.12 108.502C146.794 105.382 149.386 102.188 152.002 99.0273C150.345 99.2955 148.695 99.653 147.086 100.051C145.729 100.393 145.315 98.2635 146.664 97.9304C149.069 97.329 151.555 96.8334 154.066 96.5733C156.285 93.9568 158.56 91.389 160.973 88.9513C164.297 85.5872 167.937 82.4425 171.878 79.8422C169.546 79.4765 167.182 79.3059 164.809 79.3384C163.411 79.3546 163.557 77.1931 164.939 77.1769C168.213 77.1363 171.391 77.5426 174.519 78.2089C177.55 76.4618 180.76 75.0561 184.148 74.1216C184.319 74.0728 184.49 74.0322 184.66 73.9916C184.278 73.8372 183.905 73.6828 183.523 73.5365C182.978 73.3171 182.645 72.7483 182.84 72.1714C183.019 71.6432 183.669 71.2694 184.205 71.4888C185.603 72.0495 187.025 72.6345 188.39 73.3252C189.991 73.179 191.6 73.2277 193.16 73.6096C196.118 74.341 198.864 76.4293 199.726 79.3465C199.782 78.9158 199.807 78.477 199.831 78.0464C194.078 67.7753 180.955 64.3055 170.773 65.5813Z"/><path fill="#1D3557" d="M181.044 66.288C176.226 64.3703 170.871 64.4597 165.922 65.8492C160.339 67.4094 155.407 70.6354 151.084 74.422C146.265 78.6393 141.983 83.4905 137.839 88.3579C133.483 93.4772 129.356 98.7915 125.471 104.285C121.612 109.753 117.987 115.393 114.631 121.186C114.217 121.901 113.803 122.625 113.396 123.348C113.209 123.673 113.738 123.917 113.925 123.592C117.199 117.806 120.718 112.175 124.496 106.706C128.234 101.286 132.216 96.0287 136.417 90.9582C140.488 86.0501 144.713 81.199 149.337 76.8029C153.562 72.7887 158.332 69.1646 163.85 67.1331C168.644 65.3698 173.983 64.7685 178.948 66.1824C179.582 66.3612 180.199 66.5806 180.809 66.8243C181.142 66.9544 181.394 66.4262 181.044 66.288Z"/><path fill="#1D3557" d="M175.145 69.1484C172.236 67.45 168.953 66.4912 165.605 66.3124C168.116 64.3785 170.627 62.4445 173.138 60.5187C173.43 60.2912 173.105 59.8117 172.805 60.0393C170.083 62.1357 167.36 64.2322 164.638 66.3205C164.394 66.5074 164.549 66.8406 164.833 66.8487C168.368 66.9056 171.846 67.8888 174.901 69.6765C175.218 69.8553 175.462 69.3352 175.145 69.1484Z"/><path fill="#1D3557" d="M156.894 79.2813C152.246 80.3458 147.72 81.9547 143.446 84.0593C142.503 84.5225 141.577 85.0182 140.659 85.5301C142.471 81.3534 144.746 77.3799 147.46 73.7232C148.281 72.6181 149.134 71.5455 150.028 70.5054C150.272 70.221 149.825 69.8472 149.589 70.1316C146.428 73.8289 143.714 77.9162 141.536 82.2635C140.91 83.5149 140.334 84.7826 139.797 86.0746C139.683 86.3508 139.976 86.5784 140.228 86.4321C144.323 84.0756 148.687 82.2066 153.213 80.8496C154.497 80.4677 155.797 80.1264 157.105 79.8258C157.455 79.7445 157.252 79.2001 156.894 79.2813Z"/><path fill="#1D3557" d="M139.716 98.0521C135.442 99.1816 131.354 101.002 127.657 103.44C126.828 103.984 126.032 104.569 125.244 105.17C126.519 99.9129 128.258 94.7692 130.444 89.8124C130.591 89.4712 130.07 89.2274 129.916 89.5687C127.608 94.818 125.788 100.27 124.48 105.853C124.423 106.089 124.74 106.292 124.927 106.137C128.356 103.391 132.224 101.205 136.36 99.7016C137.522 99.2791 138.708 98.9134 139.903 98.5965C140.268 98.499 140.073 97.9546 139.716 98.0521Z"/><path fill="#457B9D" d="M100.062 188.485C146.296 188.485 183.775 185.396 183.775 181.586C183.775 177.776 146.296 174.687 100.062 174.687C53.829 174.687 16.3496 177.776 16.3496 181.586C16.3496 185.396 53.829 188.485 100.062 188.485Z" opacity=".29"/><path fill="#2E548A" d="M93.0712 7.07506C88.1631 11.4387 85.506 17.7687 87.2693 24.44C88.4475 28.9093 91.3566 33.6141 89.3251 37.7664C87.5862 41.3256 83.1251 42.3982 79.9316 44.7384C76.47 47.2656 74.4223 51.6129 74.6661 55.8953C74.918 60.1776 77.4532 64.2568 81.1911 66.3614C83.3851 67.6046 86.0098 68.2547 87.6756 70.148C89.6258 72.3664 89.6908 75.6005 90.284 78.4933C92.2098 87.8949 101.522 95.2082 111.119 94.8506C115.157 94.7044 119.472 93.0548 121.39 89.4957C122.812 86.8548 122.755 83.5151 124.583 81.1423C127.102 77.8757 131.905 77.8513 135.781 76.4456C140.396 74.7716 144.061 70.6762 145.207 65.8982C146.352 61.1202 144.955 55.8059 141.599 52.2224C139.462 49.939 136.642 48.3544 134.602 45.9817C131.986 42.9345 130.889 38.8228 130.653 34.8086C130.418 30.7944 130.97 26.7803 131.246 22.7742C131.685 16.4198 131.287 8.21268 125.737 4.01161C117.172 -2.47283 103.83 -0.400744 95.4033 5.28736C94.5826 5.81554 93.8025 6.42499 93.0712 7.07506Z"/><path fill="#1D3557" d="M94.2335 9.82163C89.6586 13.8846 87.1802 19.7839 88.8217 26.0002C89.9186 30.1607 92.6327 34.5486 90.7394 38.4165C89.1223 41.7319 84.9619 42.7314 81.9878 44.9091C78.7618 47.2656 76.8523 51.3123 77.0879 55.3021C77.3236 59.2919 79.6882 63.0948 83.1661 65.0531C85.2138 66.207 87.6597 66.8164 89.2117 68.5798C91.0319 70.6437 91.0888 73.6584 91.6413 76.3562C93.4371 85.1159 102.116 91.9335 111.054 91.6003C114.816 91.4622 118.839 89.9264 120.626 86.6111C121.951 84.157 121.894 81.0367 123.6 78.8265C125.949 75.7793 130.418 75.7549 134.034 74.4466C138.333 72.8865 141.745 69.0673 142.818 64.6143C143.891 60.1614 142.582 55.2127 139.462 51.8649C137.471 49.7359 134.847 48.257 132.945 46.0467C130.507 43.2027 129.483 39.3754 129.264 35.6375C129.045 31.8996 129.557 28.1617 129.817 24.4238C130.223 18.5082 129.857 10.8536 124.689 6.94508C116.71 0.90756 104.277 2.83338 96.4275 8.13145C95.6474 8.6515 94.9161 9.22031 94.2335 9.82163Z"/><path fill="#FFB59E" d="M93.4287 75.2996L81.183 90.235L77.2744 95.0049L61.8597 113.816L56.4072 101.083L60.7627 94.2004L70.5544 78.7206L70.9444 78.1193L82.1906 60.3318L92.6486 74.2758L93.4287 75.2996Z"/><path fill="#FF8A65" d="M93.429 75.2997L81.1833 90.235L77.2748 95.0049C73.6263 90.1863 71.221 84.3438 70.5547 78.7207L70.9447 78.1112L82.1909 60.3237L92.6489 74.2677L93.429 75.2997Z"/><path fill="#457B9D" d="M93.4291 75.2997L81.1834 90.235C79.9889 89.6175 78.7213 88.5205 77.4699 87.1472C75.1296 84.6038 72.8138 81.1259 70.9448 78.1112L82.191 60.3237L92.649 74.2677L93.4291 75.2997Z"/><path fill="#2E5269" d="M77.4697 87.1554C78.7211 88.5286 79.9887 89.6256 81.1832 90.2432L93.4289 75.3079L92.657 74.2759C87.042 78.03 81.7439 82.1986 77.4697 87.1554Z"/><path fill="#FFB59E" d="M62.0953 98.7428C58.4468 85.4976 52.8887 72.9675 45.738 61.8513C44.3322 63.0539 42.4714 63.5334 41.0737 64.736C43.3652 77.193 45.5917 89.3167 47.8832 101.774C48.4683 104.975 49.0858 108.258 50.6135 111.005C51.8161 113.166 53.6119 114.938 55.7409 115.596C57.8699 116.254 60.3239 115.661 61.8597 113.816C63.2898 112.094 63.7693 109.526 63.5986 107.129C63.4199 104.74 62.721 101.034 62.0953 98.7428Z"/><path fill="#FFB59E" d="M46.4044 62.2821C45.5756 60.8032 44.4461 59.4868 43.0972 58.4467C41.3745 58.3005 38.9936 58.1136 37.2709 57.9673C36.0439 58.398 34.7926 58.9424 33.5574 59.3974C33.2811 59.5031 33.208 59.8687 33.4274 60.0638C34.8088 61.2826 35.9464 61.0957 37.8154 60.1125C40.7732 61.0632 40.2613 63.5173 41.8783 64.0129C43.4954 64.5167 45.4943 63.7123 46.4044 62.2821Z"/><path fill="#FFB59E" d="M39.8551 63.2652C37.9455 63.574 36.0278 63.8828 34.1182 64.1835C32.8425 63.6147 30.6972 63.1271 29.4215 62.5583C30.4697 61.9895 32.038 60.9575 32.7774 60.0068C32.9725 59.763 32.7693 59.4055 32.4605 59.4623C30.7947 59.7386 29.1371 60.1286 27.6256 60.86C27.2844 61.0225 27.0568 61.3638 27.0081 61.7457C26.9106 62.4852 26.9187 63.0865 26.8862 63.7772C26.8699 64.1916 27.065 64.5897 27.4063 64.8091C28.6251 65.5811 30.3234 66.1012 31.6317 66.4181C34.3945 67.0844 36.9704 67.1738 39.8551 66.6862V63.2652Z"/><path fill="#FFB59E" d="M30.0635 67.5558C29.4378 66.2394 29.2672 64.6224 29.5597 63.3466C30.7542 62.534 45.0395 60.4456 45.6246 61.0632C46.1852 61.6645 48.0623 64.8092 47.8267 65.5893C47.5098 66.6132 47.5748 67.7996 46.6647 68.1733C43.6744 69.4003 37.6125 70.7655 34.3946 71.1474C32.1275 71.4237 31.1199 69.7741 30.0635 67.5558Z"/><path fill="#FFB59E" d="M35.4507 63.9642C32.631 64.3623 29.8195 64.7686 26.9998 65.1668C25.0902 64.4355 22.9044 63.9642 20.7591 63.9723C20.3122 63.9723 19.7922 64.0292 19.5809 64.3217C19.4265 64.5411 19.5159 64.8174 19.7109 65.0205C19.9059 65.2156 20.1985 65.3537 20.4747 65.4756C21.9211 66.1338 25.0496 66.8001 26.496 67.4583C29.9007 67.182 31.7859 67.4908 34.9713 66.5401C35.4751 66.3938 35.9708 66.1988 36.3364 65.9063C36.7021 65.6056 36.9296 65.183 36.8077 64.7849C36.694 64.3948 35.9789 63.891 35.4507 63.9642Z"/><path fill="#FFB59E" d="M36.6939 66.077C33.8742 66.4751 31.0626 66.8814 28.243 67.2796C26.3334 66.5483 24.1475 66.077 22.0023 66.0851C21.5554 66.0851 21.0353 66.142 20.8241 66.4345C20.6697 66.6539 20.759 66.9302 20.9541 67.1333C21.1491 67.3365 21.4416 67.4665 21.7179 67.5884C23.1643 68.2466 26.2928 68.9129 27.7392 69.5711C31.1439 69.2948 33.0291 69.6036 36.2144 68.6529C36.7182 68.5066 37.2139 68.3116 37.5796 68.019C37.9453 67.7184 38.1728 67.2958 38.0509 66.8977C37.9371 66.5076 37.222 66.0038 36.6939 66.077Z"/><path fill="#FFB59E" d="M39.0991 67.8321C36.2795 68.2303 33.4679 68.6366 30.6482 69.0347C28.7387 68.3034 26.5528 67.8321 24.4076 67.8402C23.9607 67.8402 23.4406 67.8971 23.2293 68.1896C23.0749 68.409 23.1643 68.6853 23.3593 68.8885C23.5544 69.0835 23.8469 69.2216 24.1232 69.3435C25.5696 70.0017 28.698 70.668 30.1444 71.3262C33.5492 71.0499 35.4344 71.3587 38.6197 70.408C39.1235 70.2617 39.6192 70.0667 39.9849 69.7742C40.3505 69.4735 40.578 69.051 40.4562 68.6528C40.3424 68.2628 39.6273 67.759 39.0991 67.8321Z"/><path fill="#FF8A65" d="M45.0635 63.8261C42.3819 64.6143 39.4404 64.1268 37.157 62.526C36.8482 62.3066 36.5313 62.8023 36.8401 63.0217C39.2454 64.7118 42.3738 65.2319 45.1935 64.4031C45.551 64.2893 45.421 63.7205 45.0635 63.8261Z"/><path fill="#FFB59E" d="M159.63 101.083L133.839 60.3318L122.609 75.2996L154.178 113.816L159.63 101.083Z"/><path fill="#FF8A65" d="M133.839 60.3318L145.475 78.7206C144.8 84.3437 142.403 90.1862 138.755 95.0048L122.601 75.2996L133.839 60.3318Z"/><path fill="#457B9D" d="M133.839 60.3318L123.381 74.2758L122.609 75.3078L134.855 90.2431C136.049 89.6255 137.317 88.5285 138.568 87.1553C140.908 84.6119 143.224 81.134 145.093 78.1193L133.839 60.3318Z"/><path fill="#2E5269" d="M138.568 87.1554C137.317 88.5286 136.049 89.6256 134.855 90.2432L122.609 75.3079L123.381 74.2759C128.996 78.03 134.294 82.1986 138.568 87.1554Z"/><path fill="#FFB59E" d="M153.942 98.7428C157.591 85.4976 163.149 72.9675 170.299 61.8513C171.705 63.0539 173.566 63.5334 174.964 64.736C172.672 77.193 170.446 89.3167 168.154 101.774C167.569 104.975 166.951 108.258 165.424 111.005C164.221 113.166 162.425 114.938 160.296 115.596C158.167 116.254 155.713 115.661 154.178 113.816C152.747 112.094 152.268 109.526 152.439 107.129C152.617 104.74 153.316 101.034 153.942 98.7428Z"/><path fill="#FFB59E" d="M169.633 62.2821C170.462 60.8032 171.592 59.4868 172.941 58.4467C174.663 58.3005 177.044 58.1136 178.767 57.9673C179.994 58.398 181.245 58.9424 182.48 59.3974C182.757 59.5031 182.83 59.8687 182.61 60.0638C181.229 61.2826 180.091 61.0957 178.222 60.1125C175.265 61.0632 175.776 63.5173 174.159 64.0129C172.542 64.5167 170.543 63.7123 169.633 62.2821Z"/><path fill="#FFB59E" d="M176.183 63.2652C178.092 63.574 180.01 63.8828 181.919 64.1835C183.195 63.6147 185.34 63.1271 186.616 62.5583C185.568 61.9895 184 60.9575 183.26 60.0068C183.065 59.763 183.268 59.4055 183.577 59.4623C185.243 59.7386 186.901 60.1286 188.412 60.86C188.753 61.0225 188.981 61.3638 189.03 61.7457C189.127 62.4852 189.119 63.0865 189.152 63.7772C189.168 64.1916 188.973 64.5897 188.631 64.8091C187.413 65.5811 185.714 66.1012 184.406 66.4181C181.643 67.0844 179.067 67.1738 176.183 66.6862V63.2652Z"/><path fill="#FFB59E" d="M185.974 67.5558C186.6 66.2394 186.771 64.6224 186.478 63.3466C185.284 62.534 170.998 60.4456 170.413 61.0632C169.853 61.6645 167.976 64.8092 168.211 65.5893C168.528 66.6132 168.463 67.7996 169.373 68.1733C172.364 69.4003 178.425 70.7655 181.643 71.1474C183.91 71.4237 184.918 69.7741 185.974 67.5558Z"/><path fill="#FFB59E" d="M180.587 63.9642C183.407 64.3623 186.218 64.7686 189.038 65.1668C190.947 64.4355 193.133 63.9642 195.278 63.9723C195.725 63.9723 196.245 64.0292 196.457 64.3217C196.611 64.5411 196.522 64.8174 196.327 65.0205C196.132 65.2156 195.839 65.3537 195.563 65.4756C194.116 66.1338 190.988 66.8001 189.542 67.4583C186.137 67.182 184.252 67.4908 181.066 66.5401C180.563 66.3938 180.067 66.1988 179.701 65.9063C179.336 65.6056 179.108 65.183 179.23 64.7849C179.344 64.3948 180.051 63.891 180.587 63.9642Z"/><path fill="#FFB59E" d="M179.344 66.077C182.163 66.4751 184.975 66.8814 187.795 67.2796C189.704 66.5483 191.89 66.077 194.035 66.0851C194.482 66.0851 195.002 66.142 195.214 66.4345C195.368 66.6539 195.279 66.9302 195.084 67.1333C194.889 67.3283 194.596 67.4665 194.32 67.5884C192.873 68.2466 189.745 68.9129 188.298 69.5711C184.894 69.2948 183.009 69.6036 179.823 68.6529C179.319 68.5066 178.824 68.3116 178.458 68.019C178.092 67.7184 177.865 67.2958 177.987 66.8977C178.1 66.5076 178.816 66.0038 179.344 66.077Z"/><path fill="#FFB59E" d="M176.938 67.8321C179.758 68.2303 182.57 68.6366 185.389 69.0347C187.299 68.3034 189.485 67.8321 191.63 67.8402C192.077 67.8402 192.597 67.8971 192.808 68.1896C192.963 68.409 192.873 68.6853 192.678 68.8885C192.483 69.0835 192.191 69.2216 191.914 69.3435C190.468 70.0017 187.34 70.668 185.893 71.3262C182.488 71.0499 180.603 71.3587 177.418 70.408C176.914 70.2617 176.418 70.0667 176.053 69.7742C175.687 69.4735 175.46 69.051 175.581 68.6528C175.695 68.2628 176.41 67.759 176.938 67.8321Z"/><path fill="#FF8A65" d="M170.974 63.8261C173.656 64.6143 176.597 64.1268 178.881 62.526C179.189 62.3066 179.506 62.8023 179.198 63.0217C176.792 64.7118 173.664 65.2319 170.844 64.4031C170.487 64.2893 170.617 63.7205 170.974 63.8261Z"/><path fill="#FFB59E" d="M134.286 124.234C132.352 121.284 130.19 118.513 127.866 116.002C124.315 115.799 96.9881 115.815 93.7621 116.002C90.6012 119.415 87.7246 123.316 85.3438 127.476C101.604 130.174 118.554 129.223 134.286 124.234Z"/><path fill="#457B9D" d="M82.1987 60.332C82.1987 60.332 105.617 49.7846 133.847 60.332L127.866 116.002C113.361 121.829 93.7618 116.002 93.7618 116.002L82.1987 60.332Z"/><path fill="#457B9D" d="M169.146 131.702C168.349 129.54 165.96 128.289 163.653 128.183C161.353 128.077 159.11 128.89 156.981 129.768C151.431 132.035 146.068 134.773 140.965 137.934C139.413 133.197 137.097 128.532 134.278 124.234C118.554 129.223 101.595 130.174 85.3356 127.484C83.4097 130.848 81.8089 134.375 80.6469 137.942C75.552 134.781 70.1889 132.043 64.6309 129.776C62.4938 128.906 60.2591 128.086 57.9595 128.191C55.6599 128.297 53.2628 129.548 52.4664 131.71C51.467 134.432 51.3126 137.698 52.5558 140.323C53.7991 142.948 55.7655 145.142 57.7726 147.246C64.3627 154.17 71.6516 160.532 80.005 165.18C88.3584 169.82 97.8494 172.688 107.405 172.331C107.357 169.706 107.454 169.706 107.405 172.331C116.953 172.68 133.254 169.82 141.607 165.18C149.961 160.54 157.249 154.17 163.84 147.246C165.838 145.142 167.813 142.948 169.056 140.323C170.3 137.69 170.145 134.424 169.146 131.702Z"/><path fill="#2E5269" d="M51.7106 135.472C51.6212 137.146 51.865 138.836 52.5638 140.315C53.807 142.939 55.7735 145.133 57.7806 147.238C64.3707 154.161 71.6596 160.524 80.013 165.172C88.3663 169.812 97.8574 172.68 107.413 172.323C107.365 169.698 107.462 169.698 107.413 172.323C116.961 172.672 133.262 169.812 141.615 165.172C149.969 160.532 157.257 154.161 163.847 147.238C165.846 145.133 167.821 142.939 169.064 140.315C170.308 137.69 170.153 134.424 169.154 131.701C168.877 130.946 168.398 130.304 167.805 129.784C154.381 134.017 142.403 143.256 131.011 152.804C121.731 160.589 108.38 161.312 98.3368 154.535C84.0596 144.89 67.5641 137.138 51.7106 135.472Z"/><path fill="#FFB59E" d="M104.976 42.9915L104.577 53.4088C104.529 54.6602 103.911 55.7897 102.977 56.6267C102.871 56.7242 102.773 56.8298 102.684 56.9436C102.261 57.5124 102.115 58.3656 102.302 59.0969C102.489 59.812 109.266 71.6514 112.882 68.5717C113.435 68.1004 116.856 60.1614 117.172 59.4382C117.489 58.7069 117.562 57.7724 117.213 57.0654C117.107 56.8542 116.961 56.6754 116.791 56.5373C115.84 55.7897 115.076 54.8308 114.84 53.6445C114.182 50.2722 113.857 46.8025 113.8 43.3327L104.976 42.9915Z"/><path fill="#FF8A65" d="M112.167 50.1747C112.89 50.061 113.565 49.7766 114.199 49.3946C113.971 47.3876 113.841 45.3723 113.801 43.3409L104.968 42.9915C104.911 44.381 104.862 45.7786 104.805 47.1681C106.95 48.7283 109.656 50.5729 112.167 50.1747Z"/><path fill="#FF8A65" d="M99.8237 30.2176C99.2549 29.9657 98.6617 29.7057 98.0442 29.6488C97.4185 29.5919 96.7359 29.7788 96.354 30.2745C95.9233 30.8351 95.9721 31.6477 96.2484 32.2978C96.7684 33.5004 98.0361 34.3374 99.3443 34.3455L99.8237 30.2176Z"/><path fill="#FF8A65" d="M119.643 30.2176C120.211 29.9657 120.805 29.7057 121.422 29.6488C122.048 29.5919 122.73 29.7788 123.112 30.2745C123.543 30.8351 123.494 31.6477 123.218 32.2978C122.698 33.5004 121.43 34.3374 120.122 34.3455L119.643 30.2176Z"/><path fill="#FFB59E" d="M109.965 46.3068C106.861 46.4449 100.328 42.6664 99.515 36.6776L99.0599 33.0047L98.0117 26.1546C98.0117 19.1258 103.359 14.0227 109.957 14.0227C110.802 23.6681 121.902 19.4508 121.902 26.1546L120.431 34.8412C120.358 35.2475 120.333 35.6619 120.309 36.0763C119.935 42.3982 113.849 46.1361 109.965 46.3068Z"/><path fill="#FF8A65" d="M111.972 40.8786C110.534 41.2849 109.014 41.293 107.568 40.8948C107.3 40.8217 107.161 41.2361 107.438 41.3093C108.949 41.7237 110.558 41.7237 112.069 41.3011C112.338 41.228 112.248 40.8055 111.972 40.8786Z"/><path fill="#1D3557" d="M105.788 29.275C104.382 29.7788 102.847 29.7545 101.465 29.2019C101.205 29.0963 101.075 29.5107 101.335 29.6163C102.781 30.2014 104.423 30.2339 105.886 29.7057C106.146 29.6082 106.048 29.1856 105.788 29.275Z"/><path fill="#1D3557" d="M118.741 29.275C117.335 29.7788 115.799 29.7545 114.418 29.2019C114.158 29.0963 114.028 29.5107 114.288 29.6163C115.734 30.2014 117.376 30.2339 118.838 29.7057C119.098 29.6082 119.001 29.1856 118.741 29.275Z"/><path fill="#FFB59E" d="M156.355 130.881C138.836 145.312 117.116 164.684 99.5962 179.108C102.31 184.625 101.514 184.04 104.228 189.55C124.177 182.236 148.847 171.965 164.676 157.794C167.537 155.226 170.348 152.528 172.355 149.253C174.362 145.979 175.524 142.038 174.825 138.259C174.086 134.237 171.161 130.694 167.35 129.199C163.555 127.712 159.508 128.281 156.355 130.881Z"/><path fill="#FF8A65" d="M99.6045 179.108C102.319 184.625 101.522 184.04 104.236 189.55C114.158 185.909 125.25 181.546 135.838 176.329C127.996 175.029 120.52 172.168 114.264 166.773C109.185 171.112 104.244 175.289 99.6045 179.108Z"/><path fill="#FFB59E" d="M174.834 138.259C174.094 134.237 171.169 130.694 167.358 129.199C163.555 127.712 159.508 128.272 156.355 130.873C143.476 141.477 128.337 154.746 114.255 166.773C120.512 172.16 127.988 175.029 135.83 176.329C146.531 171.055 156.721 164.92 164.676 157.794C167.537 155.226 170.348 152.528 172.355 149.253C174.371 145.979 175.533 142.038 174.834 138.259Z"/><path fill="#1D3557" d="M100.019 179.368L99.5963 179.108L79.436 187.81C78.7372 188.111 78.1034 188.485 77.5183 188.916C73.7642 191.703 72.4966 196.944 74.8693 201.218C77.7702 206.435 84.6285 207.686 89.1708 204.046C89.4065 203.859 89.6421 203.656 89.8615 203.445L104.22 189.549C105.187 185.6 103.489 181.489 100.019 179.368Z"/><path fill="#FFB59E" d="M65.2646 130.881C82.7839 145.313 104.504 164.685 122.024 179.108C119.31 184.626 120.033 183.691 117.311 189.201C97.3617 181.887 72.7647 171.966 56.9437 157.794C54.0834 155.226 51.2718 152.529 49.2647 149.254C47.2576 145.979 46.0956 142.038 46.7945 138.26C47.5339 134.237 50.4592 130.694 54.2703 129.199C58.065 127.712 62.1117 128.281 65.2646 130.881Z"/><path fill="#1D3557" d="M144.102 188.924C143.517 188.493 142.883 188.119 142.184 187.819L122.024 179.116L121.601 179.376C118.14 181.497 116.433 185.616 117.384 189.566L131.742 203.461C131.97 203.68 132.198 203.875 132.433 204.062C136.984 207.703 143.834 206.451 146.735 201.234C149.124 196.952 147.848 191.703 144.102 188.924Z"/><path fill="#FF8A65" d="M110.079 35.9625C109.672 36.3282 109.047 36.2632 108.738 35.8081C108.437 35.3693 108.429 34.7761 108.405 34.2642C108.34 32.8422 108.34 31.4202 108.389 29.9981C108.405 29.6243 107.82 29.5918 107.804 29.9738C107.771 30.8838 107.763 31.7858 107.771 32.6959C107.779 33.4841 107.771 34.2967 107.885 35.0768C107.966 35.6619 108.202 36.2876 108.738 36.5963C109.291 36.9214 110.006 36.8157 110.477 36.3932C110.753 36.1413 110.363 35.7106 110.079 35.9625Z"/><path fill="#1D3557" d="M112.021 38.7091C110.737 40.0174 108.633 40.0743 107.316 38.7904C107.048 38.5303 106.617 38.9204 106.885 39.1885C108.421 40.6837 110.908 40.6837 112.419 39.1479C112.679 38.8716 112.281 38.441 112.021 38.7091Z"/><path fill="#fff" d="M129.418 185.097C126.517 186.657 124.64 189.842 124.689 193.141C124.697 193.515 125.282 193.548 125.274 193.166C125.233 190.07 126.972 187.087 129.694 185.617C130.028 185.43 129.751 184.918 129.418 185.097Z"/><path fill="#fff" d="M133.96 187.087C130.58 188.249 128.321 191.524 128.516 195.108C128.54 195.481 129.117 195.506 129.101 195.132C128.922 191.817 130.938 188.737 134.09 187.656C134.44 187.542 134.318 186.965 133.96 187.087Z"/><path fill="#fff" d="M90.9341 185.097C93.8351 186.657 95.7121 189.842 95.6634 193.141C95.6553 193.515 95.0702 193.548 95.0783 193.166C95.119 190.07 93.38 187.087 90.6579 185.617C90.3328 185.43 90.601 184.918 90.9341 185.097Z"/><path fill="#fff" d="M86.3999 187.087C89.7803 188.249 92.0392 191.524 91.8442 195.108C91.8198 195.481 91.2429 195.506 91.2592 195.132C91.4379 191.817 89.4227 188.737 86.2699 187.656C85.9205 187.542 86.0424 186.965 86.3999 187.087Z"/><path fill="#2E5269" d="M109.786 71.1394C106.568 68.1654 103.261 65.1019 101.295 61.1202C100.758 60.0476 100.344 58.9181 100.068 57.748C99.9782 57.3823 99.4094 57.5124 99.4988 57.878C100.523 62.201 103.375 65.7439 106.471 68.8073C107.413 69.7418 108.388 70.6356 109.355 71.5376C109.632 71.7895 110.062 71.3995 109.786 71.1394Z"/><path fill="#2E5269" d="M118.131 61.2339C117.002 63.8017 115.864 66.3695 114.735 68.9373C114.58 69.2785 115.141 69.4573 115.295 69.116C116.425 66.5483 117.562 63.9805 118.692 61.4127C118.846 61.0714 118.286 60.8927 118.131 61.2339Z"/><path fill="#2E5269" d="M151.106 131.904C143.517 135.139 136.529 139.754 130.589 145.475C128.931 147.075 127.346 148.758 125.859 150.513C125.494 150.943 126.201 151.463 126.566 151.033C131.832 144.841 138.235 139.608 145.361 135.683C147.344 134.586 149.392 133.603 151.472 132.709C151.984 132.49 151.626 131.685 151.106 131.904Z"/><path fill="#2E5269" d="M98.9382 152.82C94.7859 147.864 89.9998 143.435 84.718 139.705C83.1903 138.625 81.622 137.609 80.0212 136.65C79.5418 136.357 79.0136 137.073 79.5011 137.357C85.0105 140.664 90.0973 144.67 94.5746 149.286C95.8504 150.602 97.0855 151.975 98.2638 153.381C98.6132 153.804 99.3039 153.251 98.9382 152.82Z"/><path fill="#2E5269" d="M132.238 129.516C121.349 133.806 109.413 135.334 97.7925 133.977C94.5015 133.595 91.235 132.977 88.0252 132.132C87.4808 131.986 87.1558 132.806 87.7002 132.953C99.2308 136 111.493 136.13 123.088 133.327C126.322 132.546 129.508 131.539 132.604 130.32C133.132 130.109 132.766 129.312 132.238 129.516Z"/><path fill="#F1FAEE" d="M105.707 149.578C104.342 144.272 104.131 138.738 105.097 133.343C105.195 132.782 104.326 132.685 104.22 133.245C103.245 138.706 103.456 144.345 104.837 149.716C104.976 150.261 105.845 150.131 105.707 149.578Z"/><path fill="#F1FAEE" d="M117.05 133.855C116.75 133.375 116.075 133.936 116.368 134.407C119.407 139.275 120.333 145.304 118.976 150.87C118.838 151.423 119.716 151.512 119.854 150.968C121.268 145.158 120.22 138.917 117.05 133.855Z"/><path fill="#1D3557" d="M118.92 25.0251C117.156 24.2451 115.125 24.2207 113.337 24.9357C112.809 25.147 113.175 25.9434 113.703 25.7402C115.279 25.1145 117.059 25.1633 118.603 25.8458C119.123 26.0734 119.44 25.2527 118.92 25.0251Z"/><path fill="#1D3557" d="M105.61 24.9438C103.749 24.3506 101.669 24.5619 99.9946 25.5776C99.7914 25.6995 99.6695 25.927 99.7752 26.1627C99.8646 26.3577 100.149 26.5039 100.36 26.3821C101.831 25.4882 103.643 25.2363 105.293 25.7645C105.821 25.9351 106.146 25.1144 105.61 24.9438Z"/><path fill="#2E5269" d="M94.0547 100.238C98.4508 101.116 103.733 101.993 108.129 100.238C98.8977 97.9303 92.3645 89.5688 86.7495 82.2148L93.7703 116.002C93.7703 116.002 113.362 121.828 127.875 116.002L127.948 115.328C115.418 116.636 102.124 111.338 94.0547 100.238Z"/></svg>