<svg width="322" height="201" viewBox="0 0 322 201" fill="none" xmlns="http://www.w3.org/2000/svg">
<mask id="mask0_394:512" style="mask-type:alpha" maskUnits="userSpaceOnUse" x="0" y="0" width="322" height="201">
<rect y="0.62207" width="322" height="200.378" rx="25" fill="#C4C4C4"/>
</mask>
<g mask="url(#mask0_394:512)">
<path d="M328.228 -158.841H-8.39276V448.031H328.228V-158.841Z" fill="#F1FAEE"/>
<path opacity="0.09" d="M-8.39276 334.041V448.02H328.228V150.158C288.77 152.305 249.475 161.873 213.277 178.053C129.228 214.554 53.0467 266.79 -8.39276 334.041Z" fill="#457B9D"/>
<path opacity="0.09" d="M1.6615 -158.841C59.9216 -55.1188 183.904 7.74832 302.905 -6.80151C311.542 -7.8849 319.966 -9.4442 328.228 -11.368V-158.841H1.6615Z" fill="#457B9D"/>
<path d="M249.978 74.0221C239.82 62.2012 226.214 52.3153 210.69 50.8465C195.175 49.3865 178.086 58.5775 174.427 73.7231C177.215 70.029 182.246 68.5338 186.837 69.0791C191.428 69.6244 195.632 71.9288 199.37 74.6553C210.76 82.9669 218.641 95.2891 224.375 108.165C230.11 121.042 233.945 134.674 238.905 147.876C241.104 153.716 243.619 159.627 247.964 164.095C253.347 169.627 263.092 172.908 269.425 166.971C273.902 162.767 275.793 157.604 275.801 151.641C275.819 142.968 275.722 134.446 274.236 125.87C272.67 116.89 269.988 108.095 266.259 99.7747C262.098 90.4781 256.628 81.7532 249.978 74.0221Z" fill="#50B2B5"/>
<path d="M212.036 79.6072C229.16 102.712 238.571 127.612 250.295 154.684C254.754 163.849 262.063 166.865 269.935 166.478C269.768 166.645 269.601 166.813 269.425 166.98C263.092 172.925 253.347 169.636 247.964 164.104C243.611 159.627 241.095 153.725 238.905 147.885C233.945 134.692 230.11 121.059 224.375 108.174C218.641 95.298 210.76 82.9757 199.37 74.6642C195.632 71.9376 191.428 69.6333 186.837 69.088C182.246 68.5427 177.215 70.0379 174.427 73.7319C174.787 72.2367 175.289 70.8031 175.896 69.4222C187.673 61.2338 204.005 67.8654 212.036 79.6072Z" fill="#459A9D"/>
<path d="M207.99 65.2002C215.87 65.0506 223.434 68.0586 229.723 72.6762C236.821 77.8918 242.107 85.1127 246.223 92.8174C250.814 101.393 254.306 110.593 257.586 119.731C261.043 129.344 264.06 139.116 266.628 149.002C269.187 158.844 271.307 168.809 272.978 178.835C273.189 180.076 273.383 181.324 273.576 182.573C273.664 183.136 272.785 183.198 272.697 182.635C271.149 172.661 269.161 162.758 266.725 152.96C264.315 143.25 261.474 133.645 258.211 124.181C255.053 115.026 251.65 105.861 247.428 97.1271C243.575 89.1585 238.729 81.4451 231.974 75.605C226.108 70.5301 218.834 66.8185 211.024 66.1588C210.03 66.0709 209.036 66.0533 208.034 66.0709C207.497 66.0797 207.427 65.209 207.99 65.2002Z" fill="#1D3557"/>
<path d="M214.85 72.4214C219.89 71.5682 225.07 71.964 229.934 73.5032C227.401 69.4134 224.868 65.3148 222.335 61.225C222.036 60.7412 222.757 60.2399 223.056 60.7236C225.8 65.1565 228.544 69.5981 231.297 74.0309C231.543 74.4267 231.148 74.8225 230.743 74.673C225.686 72.8612 220.206 72.395 214.912 73.2921C214.357 73.3977 214.296 72.5181 214.85 72.4214Z" fill="#1D3557"/>
<path d="M235.361 96.6173C241.394 100.628 246.97 105.333 251.922 110.619C253.013 111.789 254.068 112.985 255.097 114.208C254.763 107.295 253.655 100.434 251.755 93.7764C251.183 91.771 250.541 89.7833 249.829 87.822C249.635 87.2855 250.462 86.9952 250.656 87.5229C253.162 94.48 254.833 101.736 255.599 109.089C255.818 111.2 255.959 113.32 256.03 115.439C256.047 115.897 255.502 116.055 255.229 115.721C250.664 110.18 245.466 105.175 239.758 100.821C238.14 99.5901 236.478 98.4027 234.78 97.2769C234.314 96.9779 234.894 96.3094 235.361 96.6173Z" fill="#1D3557"/>
<path d="M249.723 132.511C255.203 136.407 260.031 141.192 263.981 146.627C264.86 147.841 265.687 149.108 266.478 150.383C267.481 142.221 267.771 133.98 267.323 125.765C267.288 125.202 268.167 125.132 268.202 125.703C268.677 134.402 268.343 143.136 267.2 151.764C267.156 152.133 266.593 152.247 266.408 151.931C263.004 146.179 258.677 141.007 253.602 136.653C252.177 135.431 250.691 134.27 249.152 133.179C248.685 132.845 249.266 132.185 249.723 132.511Z" fill="#1D3557"/>
<path d="M215.308 135.765C202.335 133.329 185.219 136.759 177.022 149.477C177.198 138.747 185.421 129.23 195.589 125.141C198.676 124.885 201.754 125.061 204.789 125.765C206.53 126.17 207.243 123.478 205.492 123.074C205.325 123.038 205.149 123.003 204.982 122.968C213.153 122.256 221.412 124.199 229.064 127.612C231.623 129.943 233.875 132.617 235.634 135.598C236.548 137.146 238.95 135.739 238.035 134.191C237.428 133.162 236.751 132.159 236.038 131.192C236.777 131.623 237.507 132.062 238.228 132.511C243.207 135.642 247.85 139.292 252.116 143.338C254.676 147.903 256.47 152.986 258.203 157.789C258.809 159.469 261.501 158.756 260.894 157.076C260.006 154.605 259.091 152.072 258.088 149.565C263.075 155.291 267.358 161.623 270.806 168.387C274.157 174.948 276.356 181.826 278.511 188.836C279.988 193.656 279.751 198.317 277.183 202.829C277.148 202.891 277.112 202.944 277.077 202.997C261.932 175.599 246.698 143.549 215.308 135.765Z" fill="#459A9D"/>
<path d="M215.307 135.765C246.698 143.54 261.931 175.59 277.068 203.005C273.374 209.215 264.781 208.977 259.099 205.872C254.877 203.568 251.597 199.918 248.598 196.136C251.913 196.752 255.176 197.702 258.351 198.827C260.04 199.425 260.735 196.734 259.055 196.136C254.86 194.641 250.568 193.524 246.144 192.952C242.951 188.739 239.881 184.438 236.768 180.173C238.879 180.647 240.963 181.237 242.995 181.879C244.71 182.415 245.405 179.724 243.699 179.187C240.655 178.229 237.507 177.402 234.305 176.866C231.658 173.33 228.94 169.864 226.038 166.54C222.036 161.957 217.612 157.639 212.748 153.989C215.773 153.699 218.817 153.664 221.86 153.892C223.654 154.024 223.636 151.236 221.86 151.104C217.656 150.796 213.548 151.06 209.476 151.676C205.72 149.196 201.71 147.137 197.435 145.677C197.224 145.607 197.004 145.537 196.784 145.466C197.286 145.299 197.778 145.132 198.28 144.965C198.992 144.727 199.476 144.024 199.265 143.259C199.08 142.564 198.28 142.036 197.558 142.274C195.72 142.88 193.847 143.523 192.044 144.297C190.003 143.98 187.936 143.918 185.905 144.297C182.052 145 178.358 147.472 177.03 151.148C176.995 150.585 176.986 150.031 176.995 149.468C185.219 136.768 202.334 133.329 215.307 135.765Z" fill="#50B2B5"/>
<path d="M202.07 135.871C208.412 133.786 215.272 134.323 221.517 136.487C228.562 138.932 234.639 143.452 239.899 148.65C245.757 154.438 250.875 161.008 255.81 167.578C261.008 174.491 265.889 181.642 270.436 188.994C274.966 196.312 279.17 203.841 283.031 211.537C283.506 212.495 283.981 213.445 284.447 214.404C284.658 214.835 283.963 215.108 283.752 214.677C280.005 206.998 275.924 199.487 271.509 192.17C267.129 184.922 262.432 177.86 257.437 171.026C252.599 164.403 247.551 157.842 241.966 151.843C236.856 146.355 231.016 141.333 224.094 138.298C218.078 135.66 211.27 134.472 204.788 135.888C203.961 136.073 203.152 136.302 202.352 136.566C201.886 136.715 201.613 136.02 202.07 135.871Z" fill="#1D3557"/>
<path d="M209.423 140.005C213.284 138.052 217.577 137.085 221.895 137.111C218.825 134.437 215.756 131.755 212.686 129.081C212.326 128.764 212.783 128.184 213.144 128.5C216.468 131.403 219.802 134.305 223.126 137.208C223.425 137.463 223.206 137.885 222.836 137.867C218.289 137.665 213.751 138.659 209.687 140.699C209.265 140.91 208.992 140.216 209.423 140.005Z" fill="#1D3557"/>
<path d="M232.053 154.455C237.938 156.188 243.619 158.607 248.949 161.641C250.128 162.309 251.28 163.022 252.415 163.752C250.418 158.246 247.806 152.969 244.613 148.061C243.646 146.583 242.634 145.141 241.57 143.725C241.28 143.338 241.878 142.898 242.168 143.276C245.932 148.272 249.09 153.725 251.553 159.486C252.256 161.14 252.898 162.811 253.488 164.508C253.611 164.869 253.215 165.133 252.907 164.939C247.832 161.597 242.379 158.844 236.671 156.751C235.053 156.153 233.408 155.616 231.754 155.132C231.297 155.001 231.596 154.315 232.053 154.455Z" fill="#1D3557"/>
<path d="M252.635 179.891C258.035 181.668 263.136 184.333 267.692 187.754C268.712 188.519 269.689 189.328 270.647 190.164C269.425 183.312 267.595 176.575 265.177 170.04C265.01 169.592 265.704 169.319 265.871 169.768C268.431 176.681 270.339 183.831 271.571 191.096C271.624 191.404 271.201 191.641 270.973 191.43C266.786 187.631 261.993 184.526 256.804 182.274C255.344 181.641 253.848 181.078 252.335 180.577C251.878 180.419 252.177 179.741 252.635 179.891Z" fill="#1D3557"/>
<path d="M255.528 46.4842C244.279 39.5799 227.067 36.6774 214.867 45.631C218.861 35.666 229.943 29.7204 240.902 29.5269C243.874 30.3888 246.689 31.6553 249.275 33.3968C250.761 34.3994 252.388 32.1391 250.893 31.1364C250.752 31.0396 250.603 30.9517 250.453 30.8549C258.334 33.1065 265.361 37.8736 271.289 43.7928C272.846 46.88 273.989 50.187 274.57 53.5996C274.869 55.3674 277.613 54.9101 277.314 53.151C277.112 51.9725 276.848 50.7939 276.523 49.6329C277.059 50.3014 277.578 50.9698 278.088 51.647C281.624 56.3437 284.658 61.4186 287.191 66.7222C287.956 71.9026 287.816 77.2853 287.719 82.3954C287.684 84.1808 290.454 84.4799 290.489 82.6856C290.542 80.0558 290.595 77.3645 290.551 74.6643C293.163 81.7885 294.905 89.2381 295.714 96.7845C296.497 104.111 296.101 111.314 295.608 118.641C295.274 123.672 293.383 127.937 289.372 131.236C289.32 131.28 289.267 131.315 289.214 131.359C284.86 100.329 282.072 64.9543 255.528 46.4842Z" fill="#459A9D"/>
<path d="M255.528 46.4841C282.072 64.9542 284.86 100.338 289.214 131.341C283.55 135.827 275.608 132.528 271.404 127.603C268.281 123.944 266.513 119.362 265.071 114.753C267.947 116.512 270.656 118.562 273.224 120.752C274.588 121.921 276.197 119.643 274.843 118.491C271.456 115.598 267.842 113.021 263.919 110.91C262.441 105.835 261.113 100.725 259.715 95.6234C261.518 96.8196 263.259 98.1125 264.93 99.4406C266.338 100.558 267.956 98.2884 266.549 97.1802C264.051 95.2012 261.403 93.3014 258.606 91.6567C257.393 87.4174 256.1 83.2045 254.569 79.0619C252.467 73.3537 249.873 67.7423 246.636 62.5971C249.565 63.4062 252.423 64.4617 255.185 65.7634C256.812 66.5286 257.789 63.9164 256.179 63.16C252.371 61.3657 248.43 60.152 244.411 59.2724C241.781 55.6136 238.773 52.2626 235.308 49.3689C235.132 49.2282 234.956 49.0875 234.78 48.9468C235.308 48.9644 235.835 48.9907 236.354 49.0171C237.111 49.0523 237.806 48.5686 237.885 47.777C237.964 47.0646 237.401 46.2818 236.645 46.2466C234.71 46.1587 232.731 46.0883 230.769 46.1675C228.975 45.1384 227.067 44.3468 225.035 43.9686C221.191 43.2562 216.855 44.2413 214.296 47.2053C214.463 46.6688 214.656 46.1411 214.867 45.6309C227.067 36.6685 244.279 39.571 255.528 46.4841Z" fill="#50B2B5"/>
<path d="M243.118 41.8576C249.785 42.1742 256.003 45.1295 261.06 49.3776C266.769 54.171 270.832 60.5652 273.884 67.3024C277.288 74.796 279.724 82.7646 281.993 90.6627C284.377 98.9743 286.382 107.391 288.009 115.888C289.628 124.34 290.868 132.871 291.721 141.438C291.826 142.502 291.923 143.566 292.02 144.631C292.064 145.106 291.316 145.114 291.272 144.639C290.516 136.126 289.381 127.656 287.869 119.247C286.373 110.91 284.5 102.642 282.275 94.4711C280.12 86.5641 277.745 78.6307 274.667 71.0228C271.852 64.0745 268.185 57.2934 262.811 51.9898C258.14 47.3811 252.195 43.8365 245.633 42.8515C244.798 42.7283 243.954 42.6492 243.118 42.6052C242.652 42.5788 242.643 41.8312 243.118 41.8576Z" fill="#1D3557"/>
<path d="M248.51 48.34C252.819 47.9002 257.164 48.5247 261.192 50.0903C259.284 46.493 257.366 42.8957 255.458 39.2984C255.229 38.8763 255.871 38.4893 256.1 38.9202C258.176 42.8166 260.242 46.7217 262.318 50.618C262.503 50.9698 262.151 51.2776 261.817 51.1281C257.648 49.3163 253.048 48.6214 248.527 49.0876C248.043 49.1316 248.035 48.384 248.51 48.34Z" fill="#1D3557"/>
<path d="M264.499 69.9147C269.381 73.6352 273.822 77.9185 277.71 82.6591C278.572 83.7058 279.39 84.7788 280.199 85.8694C280.296 80.0117 279.742 74.1541 278.51 68.4283C278.141 66.7045 277.701 64.9894 277.217 63.2919C277.086 62.8345 277.798 62.6234 277.93 63.0896C279.663 69.1056 280.665 75.3238 280.911 81.5773C280.982 83.3715 280.982 85.1658 280.929 86.96C280.92 87.347 280.454 87.4526 280.234 87.1535C276.69 82.2194 272.574 77.7074 267.991 73.7143C266.689 72.5797 265.353 71.4891 263.981 70.4425C263.594 70.1522 264.121 69.6245 264.499 69.9147Z" fill="#1D3557"/>
<path d="M274.64 101.015C279.047 104.603 282.864 108.913 285.898 113.733C286.576 114.815 287.2 115.923 287.798 117.04C289.1 110.197 289.795 103.258 289.874 96.2918C289.883 95.8168 290.621 95.808 290.621 96.283C290.542 103.653 289.768 111.015 288.335 118.236C288.273 118.544 287.798 118.614 287.657 118.333C285.098 113.284 281.729 108.676 277.692 104.718C276.558 103.601 275.362 102.545 274.13 101.534C273.743 101.244 274.271 100.716 274.64 101.015Z" fill="#1D3557"/>
<path opacity="0.29" d="M75.8579 182.231C77.4498 190.56 86.5705 195.107 94.8997 196.743C103.229 198.379 112.262 198.528 119.254 203.33C124.487 206.928 127.812 212.645 132.271 217.157C141.26 226.242 154.567 229.989 167.347 229.971C180.126 229.954 192.642 226.576 204.973 223.217C212.343 221.211 221.147 217.623 221.93 210.024C222.581 203.726 216.759 198.352 210.619 196.787C204.489 195.221 198.042 196.329 191.718 196.567C185.395 196.804 178.446 195.872 174.084 191.29C169 185.942 169.141 177.578 166.071 170.867C159.176 155.827 140.424 153.505 125.982 155.845C119.694 156.865 113.423 157.375 107.09 158.035C100.951 158.677 95.058 160.506 89.3587 162.837C81.7859 165.942 74.134 173.224 75.8579 182.231Z" fill="#457B9D"/>
<path d="M204.392 195.81C203.909 195.432 203.742 195.274 203.742 195.274L202.387 184.992L190.9 188.15L193.002 194.975C196.441 195.828 200.953 197.007 204.392 195.81Z" fill="#FFC9B9"/>
<path d="M204.392 195.81C200.953 197.006 196.441 195.828 193.011 194.966L193.108 195.274C193.108 195.274 192.105 197.939 191.454 201.518C190.883 204.658 192.703 207.745 195.703 208.818L221.332 218.027C223.619 218.854 225.879 216.752 225.237 214.403C224.349 211.123 205.58 196.734 204.392 195.81Z" fill="#457B9D"/>
<path d="M210.312 199.83C207.946 199.803 205.65 200.955 204.313 202.925C203.953 203.453 204.753 204.042 205.114 203.506C206.239 201.852 208.183 200.788 210.197 200.806C210.461 200.806 210.716 200.656 210.743 200.366C210.778 200.137 210.575 199.838 210.312 199.83Z" fill="#1D3557"/>
<path d="M182.483 202.486C182 202.107 181.832 201.949 181.832 201.949L180.478 191.667L168.991 194.825L171.093 201.65C174.524 202.503 179.036 203.682 182.483 202.486Z" fill="#FFC9B9"/>
<path d="M204.155 99.2735C205.087 100.109 205.993 101.033 206.494 102.176C206.996 103.328 207.005 104.762 206.222 105.747C204.982 107.304 202.581 107.013 200.646 106.574C198.438 106.072 196.222 105.58 194.014 105.087C191.736 104.577 189.352 104.014 187.585 102.475C186.089 101.173 185.21 99.212 185.166 97.233C185.122 95.2189 186.037 93.0289 187.655 91.7799C188.983 90.7597 190.549 91.4193 191.938 91.9382C194.049 92.721 196.098 93.6709 198.042 94.8055C199.977 95.9401 201.815 97.2506 203.522 98.7106C203.733 98.8953 203.944 99.0888 204.155 99.2735Z" fill="#FFAB90"/>
<path d="M145.807 61.2339C154.761 66.5023 163.723 71.7619 172.677 77.0302C175.588 78.7453 178.543 80.4868 180.671 82.7824C182.809 85.0779 184.066 88.0332 183.231 91.0148C182.219 94.656 177.523 97.9894 172.826 97.8487C169.378 97.7432 166.687 95.9841 164.242 94.313C159.07 90.7685 153.872 87.1976 149.73 82.9143C145.578 78.6398 142.5 73.5649 142.06 67.9887L145.807 61.2339Z" fill="#94C0C2"/>
<path d="M166.581 5.84971C163.872 3.11437 160.346 1.08265 156.511 0.686863C152.685 0.291075 148.586 1.71592 146.238 4.75909C143.846 7.85503 143.397 12.2703 140.547 14.9528C138.665 16.7207 136.044 17.4419 133.502 17.8905C130.96 18.339 128.339 18.5853 125.982 19.6407C123.625 20.705 121.541 22.8158 121.382 25.3929C121.206 28.2777 123.414 31.2065 122.288 33.8627C121.374 36.0264 118.717 36.818 117.161 38.5682C115.868 40.0282 115.428 42.1127 115.718 44.0389C116.008 45.9651 116.976 47.7417 118.19 49.2633C121.426 53.3267 126.633 55.7454 131.831 55.6135C137.029 55.4728 142.095 52.7814 145.112 48.5597C147.909 44.637 148.903 39.7468 150.935 35.3755C153.819 29.166 158.903 24.012 165.069 21.048C167.558 19.8518 170.689 18.7788 172.246 16.3337C172.826 15.419 172.474 14.733 172.035 13.8534C171.357 12.4902 170.627 11.1621 169.792 9.88675C168.859 8.43553 167.795 7.07226 166.581 5.84971Z" fill="#2A4E80"/>
<path d="M165.895 8.19803C163.389 5.66499 160.108 3.774 156.564 3.41339C153.019 3.04399 149.219 4.36327 147.038 7.18657C144.822 10.0626 144.4 14.1437 141.761 16.6327C140.02 18.2774 137.592 18.9371 135.226 19.3505C132.869 19.7638 130.442 19.9925 128.26 20.9776C126.079 21.9627 124.144 23.924 123.995 26.3075C123.827 28.9813 125.877 31.6991 124.839 34.1618C123.995 36.1671 121.532 36.8971 120.089 38.5242C118.893 39.8787 118.489 41.8137 118.753 43.5991C119.025 45.3846 119.914 47.0293 121.039 48.4365C124.047 52.2009 128.867 54.4437 133.678 54.3206C138.498 54.1974 143.195 51.6996 145.992 47.7769C148.586 44.1444 149.51 39.606 151.383 35.5514C154.057 29.7993 158.771 25.0146 164.488 22.2705C166.801 21.1623 169.695 20.1684 171.146 17.8992C171.683 17.0549 171.357 16.4216 170.953 15.5949C170.328 14.3372 169.651 13.097 168.877 11.9184C168.006 10.5991 167.012 9.33263 165.895 8.19803Z" fill="#1D3557"/>
<path d="M115.639 51.9371C88.5231 59.1492 82.1377 95.1044 80.2555 108.763C78.3733 122.423 80.5986 137.155 88.9805 148.096C97.3712 159.037 112.684 165.124 125.622 160.357C130.222 158.659 134.479 155.563 136.669 151.183C139.281 145.976 138.7 139.837 138.595 134.015C138.428 124.648 139.659 115.254 142.245 106.248C144.822 97.2768 158.762 82.8262 152.922 68.5602C148.366 57.4341 132.368 47.4954 115.639 51.9371Z" fill="#A8DADC"/>
<path d="M151.533 87.6282C135.49 92.1314 118.542 84.9456 105.445 76.2119C107.424 94.0576 117.345 118.843 97.512 130.734C100.485 130.734 102.473 130.734 105.445 129.74C100.652 139.327 90.1767 140.4 82.5248 135.888C84.0288 140.259 86.1484 144.393 88.9805 148.087C97.3712 159.028 112.684 165.115 125.622 160.348C130.222 158.65 134.479 155.554 136.669 151.174C139.281 145.967 138.7 139.828 138.595 134.006C138.428 124.639 139.659 115.245 142.245 106.239C143.652 101.366 148.419 94.8492 151.533 87.6282Z" fill="#94C0C2"/>
<path d="M184.102 42.0422C184.392 41.4793 183.504 41.0395 183.213 41.6112C180.504 46.8356 177.206 51.7346 173.354 56.185C170.152 59.8878 166.124 64.2679 160.785 64.1184C158.12 64.0392 155.491 62.4737 154.637 59.8703C154.435 59.2634 153.503 59.5888 153.696 60.1957C154.462 62.544 156.511 64.2151 158.859 64.8396C161.243 65.4816 163.828 64.9539 166.01 63.8897C168.534 62.6584 170.601 60.6882 172.483 58.6477C174.656 56.2994 176.67 53.8103 178.525 51.1981C180.592 48.2781 182.457 45.2173 184.102 42.0422Z" fill="#1D3557"/>
<path d="M186.644 34.1179C186.749 27.0817 183.68 20.151 177.373 16.1051C170.319 11.5755 160.9 12.4375 154.629 17.917C147.988 23.7219 143.547 34.3378 146.229 43.0363C149.026 52.1043 158.956 57.3023 168.059 55.4289C174.066 54.1976 180.716 50.6179 183.724 45.1648C185.614 41.7346 186.591 37.9087 186.644 34.1179Z" fill="#2A4E80"/>
<path d="M184.814 35.5518C184.911 28.9905 182.052 22.5259 176.177 18.7615C169.598 14.5398 160.821 15.3402 154.98 20.4502C148.797 25.8594 144.646 35.7541 147.153 43.8633C149.765 52.3156 159.017 57.1618 167.505 55.4204C173.108 54.2682 179.299 50.9347 182.105 45.8511C183.847 42.6584 184.761 39.0875 184.814 35.5518Z" fill="#1D3557"/>
<path d="M150.284 37.8032C144.989 43.9247 139.254 49.7121 133.186 55.0332C131.954 56.1062 131.18 57.5926 131.189 58.9119C131.207 62.5356 132.737 65.5964 135.376 67.2059C136.721 68.0239 138.938 67.2763 140.424 65.5524C143.837 61.5769 147.214 57.9357 151.022 54.1009C152.746 47.9618 152.104 42.5967 150.284 37.8032Z" fill="#FFC9B9"/>
<path d="M151.031 54.1009C152.746 47.9706 152.113 42.5967 150.293 37.8032C148.903 39.4128 147.478 40.9959 146.018 42.5615C143.371 49.3251 141.673 57.0737 142.852 62.7995C145.464 59.8618 148.12 57.0297 151.031 54.1009Z" fill="#FFAB90"/>
<path d="M177.013 50.5475C167.364 58.9558 153.037 62.984 151.023 60.3278C144.365 51.5149 149.897 40.2921 149.976 40.169C149.897 40.2921 148.331 39.2807 147.724 38.5155C147.126 37.7591 147.109 36.0528 147.346 35.1293C147.803 33.3526 148.877 30.9867 150.908 30.6349C153.353 30.2127 156.053 32.7985 155.042 35.3668C162.289 35.2348 165.614 33.0096 169.677 30.6701C175.957 33.423 179.176 36.8268 182.035 43.2298C182.519 44.294 177.901 49.7735 177.013 50.5475Z" fill="#FFC9B9"/>
<path d="M172.624 40.3535C171.357 38.4362 169.563 36.9234 167.478 35.9647C166.889 35.692 166.537 36.6419 167.127 36.9146C169.053 37.8029 170.671 39.2365 171.841 40.9956C171.99 41.2243 172.36 41.2243 172.553 41.0659C172.782 40.8812 172.773 40.591 172.624 40.3535Z" fill="#1D3557"/>
<path d="M177.268 49.5272C177.663 48.0672 177.338 46.4665 176.353 45.3055C176.177 45.1032 175.843 45.0505 175.641 45.2352C175.438 45.4199 175.385 45.7365 175.57 45.9476C175.676 46.0707 175.772 46.1938 175.86 46.3258C175.869 46.3346 175.896 46.3785 175.896 46.3873C175.904 46.4049 175.922 46.4313 175.931 46.4489C175.966 46.5105 176.001 46.5808 176.036 46.6512C176.107 46.7919 176.168 46.9414 176.221 47.091C176.239 47.1261 176.247 47.1701 176.265 47.2141C176.265 47.2229 176.274 47.2493 176.283 47.2669C176.291 47.2845 176.3 47.346 176.309 47.3548C176.318 47.3988 176.327 47.434 176.335 47.478C176.371 47.6275 176.397 47.777 176.415 47.9265C176.423 48.0057 176.432 48.076 176.432 48.1552C176.432 48.1728 176.432 48.1816 176.432 48.1904C176.432 48.1904 176.432 48.1904 176.432 48.1992C176.432 48.2431 176.432 48.2871 176.432 48.3223C176.432 48.4718 176.423 48.6213 176.397 48.7709C176.388 48.85 176.371 48.938 176.353 49.0171C176.344 49.0435 176.344 49.0699 176.335 49.0875C176.335 49.0963 176.309 49.1754 176.309 49.1754C176.239 49.4393 176.335 49.7296 176.608 49.8263C176.854 49.923 177.197 49.7999 177.268 49.5272Z" fill="#1D3557"/>
<path d="M156.256 56.6864C155.587 55.7893 154.919 54.8921 154.259 53.995C154.101 53.7839 153.74 53.7487 153.547 53.9246C153.336 54.1181 153.309 54.4084 153.476 54.6371C154.145 55.5342 154.813 56.4313 155.473 57.3284C155.631 57.5395 155.992 57.5747 156.185 57.3988C156.396 57.2141 156.423 56.9151 156.256 56.6864Z" fill="#FFAB90"/>
<path d="M168.121 50.2396C168.34 49.6239 167.408 49.2105 167.188 49.8262C166.731 51.0663 166.177 52.368 165.06 53.1684C164.127 53.8369 162.835 53.9952 161.946 53.1684C161.462 52.7199 160.82 53.5114 161.304 53.96C162.43 54.9978 164.11 54.9363 165.368 54.1887C166.801 53.3355 167.566 51.7524 168.121 50.2396Z" fill="#FFAB90"/>
<path d="M166.054 45.3054C166.098 45.0504 165.904 44.7425 165.631 44.7249C165.077 44.681 164.55 44.4435 164.224 44.0565C164.022 43.819 163.925 43.6431 163.828 43.3705C163.749 43.1418 163.705 42.8428 163.723 42.6229C163.74 42.3502 163.591 42.0864 163.301 42.0424C163.046 42.0072 162.738 42.1919 162.72 42.4645C162.667 43.2473 162.887 44.0389 163.397 44.6458C163.925 45.2615 164.673 45.666 165.482 45.7276C165.737 45.754 166.001 45.5957 166.054 45.3054Z" fill="#1D3557"/>
<path d="M171.779 53.5818C171.735 53.2828 171.507 53.1333 171.216 53.1245C171.287 53.1245 171.234 53.1245 171.19 53.1157C171.155 53.1157 171.12 53.1069 171.085 53.0981C171.058 53.0893 171.032 53.0893 170.997 53.0805C170.979 53.0805 170.988 53.0805 170.979 53.0805C170.917 53.0629 170.856 53.0365 170.794 53.0101C170.759 52.9925 170.724 52.9749 170.698 52.9661C170.68 52.9573 170.671 52.9486 170.662 52.9486C170.618 52.9134 170.566 52.887 170.522 52.8518C170.495 52.8254 170.469 52.8078 170.443 52.7815C170.434 52.7815 170.416 52.7551 170.399 52.7463C170.381 52.7287 170.355 52.6935 170.355 52.6935C170.337 52.6671 170.319 52.6495 170.302 52.6231C170.284 52.5967 170.258 52.5616 170.24 52.5352C170.231 52.5264 170.231 52.5176 170.223 52.5C170.179 52.4032 170.135 52.2977 170.108 52.1922C170.108 52.1746 170.099 52.1658 170.099 52.157C170.091 52.1218 170.091 52.0866 170.082 52.0514C170.073 51.9899 170.073 51.9283 170.073 51.8667C170.073 51.8579 170.073 51.8579 170.073 51.8492C170.082 51.814 170.082 51.7788 170.082 51.7436C170.091 51.682 170.099 51.6205 170.117 51.5589C170.117 51.5501 170.117 51.5589 170.117 51.5501C170.117 51.5501 170.117 51.5501 170.117 51.5413C170.135 51.5061 170.143 51.4797 170.152 51.4446C170.179 51.383 170.214 51.3214 170.24 51.2599C170.372 51.0224 170.223 50.6794 169.976 50.5826C169.695 50.4771 169.44 50.5914 169.299 50.8465C168.921 51.5237 168.956 52.3681 169.326 53.0277C169.721 53.7401 170.495 54.1271 171.296 54.1447C171.595 54.1535 171.815 53.8369 171.779 53.5818Z" fill="#1D3557"/>
<path d="M159.026 55.5871C158.173 54.1183 156.95 52.9397 155.464 52.1217C155.227 51.9898 154.91 52.1745 154.822 52.4032C154.716 52.6758 154.866 52.9133 155.103 53.0452C155.051 53.0101 155.183 53.0892 155.174 53.0892C155.209 53.1068 155.253 53.1332 155.288 53.1596C155.367 53.2123 155.455 53.2563 155.534 53.3091C155.684 53.4058 155.825 53.5026 155.965 53.6081C156.124 53.7225 156.273 53.8456 156.423 53.9687C156.493 54.0215 156.555 54.0831 156.625 54.1446C156.704 54.215 156.731 54.2414 156.783 54.2942C157.047 54.5492 157.293 54.8307 157.522 55.1209C157.637 55.2704 157.742 55.42 157.848 55.5695C157.971 55.7542 158.015 55.8245 158.12 56.0005C158.252 56.2291 158.516 56.3699 158.78 56.2467C159.009 56.1412 159.167 55.8246 159.026 55.5871Z" fill="#1D3557"/>
<path d="M151.717 32.1918C151.198 31.8136 150.618 32.614 151.137 32.9922C151.682 33.388 151.964 34.0564 151.867 34.7073C151.77 35.3141 151.321 35.8419 150.732 36.0705C150.486 36.1673 150.38 36.4927 150.486 36.7302C150.6 36.9852 150.891 37.0732 151.146 36.9765C152.043 36.6158 152.711 35.7715 152.852 34.8216C152.993 33.8277 152.526 32.7811 151.717 32.1918Z" fill="#FFAB90"/>
<path d="M139.633 68.7097C137.416 69.8443 134.822 68.9824 133.089 67.3904C131.04 65.5082 130.019 62.8609 129.043 60.3278C128.806 59.7209 127.829 60.0112 128.067 60.6268C129.184 63.5205 130.389 66.5988 132.904 68.569C134.971 70.1961 137.759 70.8118 140.178 69.5804C140.75 69.2814 140.213 68.4107 139.633 68.7097Z" fill="#94C0C2"/>
<path d="M170.865 39.4034C166.388 39.7728 161.797 38.5151 158.138 35.9205C157.39 35.384 156.607 34.6716 156.607 33.7569C156.599 32.719 157.557 31.9714 158.454 31.4525C162.263 29.2625 166.731 28.2422 171.12 28.5676C173.02 28.7084 174.902 29.1129 176.696 29.7374C177.602 30.054 178.481 30.4234 179.335 30.8544C180.161 31.2678 181.041 31.7164 181.78 32.288C183.081 33.3083 182.087 34.6452 181.094 35.4104C179.713 36.4834 178.182 37.3629 176.564 38.0226C174.946 38.6822 173.239 39.1308 171.507 39.3419C171.287 39.3595 171.076 39.3858 170.865 39.4034Z" fill="#1D3557"/>
<path d="M129.914 148.518C138.005 126.442 145.939 114.226 159.862 95.2805C165.895 87.0657 174.312 78.4111 184.427 79.6689C190.109 80.3813 196.406 89.0622 197.163 99.3791C198.394 116.161 201.006 162.837 206.556 190.49C201.015 191.659 195.272 191.677 189.731 192.838C179.713 176.575 175.429 146.698 176.379 131.983C172.237 143.593 167.267 196.048 130.714 194.535C121.664 194.157 114.117 185.775 110.388 177.517C106.633 169.196 106.562 161.931 111.901 146.909L129.914 148.518Z" fill="#213A4A"/>
<path d="M205.597 101.736C204.436 100.857 202.853 100.769 201.587 101.499C197.945 103.583 194.471 105.976 191.226 108.658C190.153 109.538 189.027 110.602 188.913 111.974C188.781 113.478 189.915 114.718 190.971 115.747C192.431 117.181 194.146 118.72 196.222 118.606C197.989 118.509 199.502 117.234 200.725 115.914C203.416 113.021 205.501 109.564 206.811 105.861C207.339 104.357 206.855 102.695 205.597 101.736Z" fill="#FFAB90"/>
<path d="M189.432 110.452C188.121 112.079 186.811 113.715 185.5 115.342C186.089 116.934 186.564 118.579 187.145 120.162C188.262 120.927 189.564 121.956 190.681 122.722C191.094 121.341 190.258 119.511 188.904 118.992C188.834 118.21 188.447 117.216 188.385 116.433C189.432 115.14 190.382 113.539 191.428 112.246L189.432 110.452Z" fill="#FFAB90"/>
<path d="M192.835 111.596C191.525 113.223 190.214 114.859 188.904 116.486C189.493 118.078 189.968 119.723 190.549 121.306C191.666 122.071 192.967 123.1 194.084 123.865C194.498 122.484 193.662 120.655 192.308 120.136C192.237 119.353 191.85 118.359 191.789 117.576C192.835 116.284 193.785 114.683 194.832 113.39L192.835 111.596Z" fill="#FFAB90"/>
<path d="M195.43 111.35C194.119 112.977 192.809 114.613 191.498 116.24C192.088 117.832 192.563 119.476 193.143 121.06C194.26 121.825 195.562 122.854 196.679 123.619C197.092 122.238 196.257 120.409 194.902 119.89C194.832 119.107 194.445 118.113 194.383 117.33C195.43 116.037 196.38 114.437 197.427 113.144L195.43 111.35Z" fill="#FFAB90"/>
<path d="M198.148 111.235C196.837 112.862 195.527 114.498 194.216 116.126C194.806 117.717 195.28 119.362 195.861 120.945C196.978 121.711 198.28 122.74 199.397 123.505C199.81 122.124 198.974 120.295 197.62 119.776C197.55 118.993 197.163 117.999 197.101 117.216C198.148 115.923 199.098 114.323 200.144 113.03L198.148 111.235Z" fill="#FFAB90"/>
<path d="M102.376 152.458C98.7608 153.109 95.0844 153.083 91.4783 152.379C90.8538 152.256 90.7395 153.241 91.3639 153.364C95.0404 154.086 98.8311 154.103 102.525 153.435C103.15 153.32 103 152.344 102.376 152.458Z" fill="#213A4A"/>
<path d="M106.993 149.697C115.085 127.621 123.018 115.404 136.941 96.4592C142.975 88.2444 151.392 79.5898 161.506 80.8476C167.188 81.56 173.486 90.241 174.242 100.558C175.473 117.339 178.094 165.995 183.644 193.647C178.103 194.808 172.36 194.835 166.819 195.996C156.801 179.733 152.5 147.885 153.459 133.171C149.316 144.781 144.347 197.236 107.794 195.723C98.7432 195.345 91.1969 186.963 87.4677 178.704C83.7121 170.384 83.6417 163.119 88.9804 148.096L106.993 149.697Z" fill="#345C75"/>
<path d="M121.901 117.603C115.349 127.163 110.415 137.814 107.38 148.993C106.536 152.115 105.832 155.282 105.269 158.466C105.164 159.099 106.149 159.204 106.254 158.58C108.225 147.296 112.086 136.337 117.653 126.328C119.21 123.539 120.89 120.822 122.693 118.183C123.062 117.655 122.262 117.075 121.901 117.603Z" fill="#213A4A"/>
<path d="M102.859 152.934C101.435 155.045 100.001 157.155 98.5761 159.275C98.2155 159.803 99.0159 160.392 99.3765 159.856C100.801 157.745 102.235 155.634 103.66 153.514C104.012 152.995 103.22 152.406 102.859 152.934Z" fill="#213A4A"/>
<path d="M154.347 134.006C154.585 131.702 154.919 129.397 155.332 127.119C155.447 126.486 154.461 126.381 154.347 127.005C152.896 135.044 152.526 143.268 153.265 151.403C153.476 153.751 153.784 156.091 154.18 158.422C154.286 159.046 155.271 158.897 155.156 158.272C153.793 150.26 153.512 142.08 154.347 134.006Z" fill="#213A4A"/>
<path d="M178.974 188.757C175.341 189.399 171.709 190.041 168.077 190.683C167.452 190.797 167.602 191.774 168.226 191.659C171.859 191.017 175.491 190.375 179.123 189.733C179.757 189.627 179.607 188.642 178.974 188.757Z" fill="#213A4A"/>
<path d="M154.849 106.398C150.486 106.538 145.913 106.697 140.785 106.802C134.663 92.7211 127.653 78.5606 121.523 64.4794C120.353 61.788 119.025 58.9207 116.483 57.4607C113.731 55.8864 110.072 56.4581 107.539 58.3754C105.006 60.2928 102.349 69.4663 103.387 75.5614C106.756 95.3069 116.008 106.626 128.014 122.66C136.757 122.625 145.789 121.895 154.769 120.532C153.802 115.809 154.031 111.103 154.849 106.398Z" fill="#A8DADC"/>
<path d="M134.197 116.864C133.203 116.864 136.176 112.898 135.191 110.919C134.197 112.898 131.224 113.891 130.23 115.879C117.838 100.83 105.463 84.2073 104.355 64.585C103.352 68.0503 102.824 72.2545 103.387 75.5615C106.756 95.3069 116.008 106.626 128.014 122.66C136.757 122.625 145.789 121.895 154.769 120.532C154.655 119.978 154.558 119.432 154.479 118.878C147.663 119.89 140.644 119.547 134.197 116.864Z" fill="#94C0C2"/>
<path d="M138.234 100.874C133.784 92.1671 129.333 83.4509 124.874 74.7436L121.101 67.3555C120.811 66.7926 119.887 67.1445 120.177 67.7162C124.628 76.4235 129.078 85.1396 133.538 93.847C134.795 96.3097 136.053 98.7724 137.311 101.235C137.601 101.789 138.524 101.446 138.234 100.874Z" fill="#94C0C2"/>
<path d="M188.746 106.741C175.579 105.773 165.966 106.028 154.849 106.389C154.031 111.094 153.793 115.808 154.778 120.514C166.546 118.729 178.218 115.87 189.027 112.106C188.939 110.241 188.834 108.614 188.746 106.741Z" fill="#FFC9B9"/>
<path d="M179.59 106.925C184.225 105.043 189.071 103.627 194.005 102.712C195.368 102.457 196.908 102.281 198.033 103.073C199.274 103.944 199.493 105.606 199.608 107.075C199.766 109.115 199.845 111.411 198.42 112.933C197.215 114.225 195.263 114.56 193.46 114.648C188.605 114.894 183.688 113.891 179.352 111.772L179.59 106.925Z" fill="#FFC9B9"/>
<path d="M196.547 102.501C198.64 102.545 200.725 102.589 202.818 102.633C203.662 104.102 204.612 105.527 205.457 106.996C205.325 108.35 205.281 110.004 205.14 111.358C203.812 110.787 202.95 108.966 203.416 107.603C202.862 107.049 202.352 106.116 201.798 105.562C200.135 105.536 198.297 105.228 196.635 105.202L196.547 102.501Z" fill="#FFC9B9"/>
<path d="M195.237 105.835C197.33 105.879 199.414 105.923 201.508 105.967C202.352 107.436 203.302 108.861 204.146 110.329C204.014 111.684 203.97 113.337 203.83 114.692C202.501 114.12 201.639 112.299 202.106 110.936C201.552 110.382 201.041 109.45 200.487 108.896C198.825 108.869 196.987 108.561 195.324 108.535L195.237 105.835Z" fill="#FFC9B9"/>
<path d="M193.381 107.664C195.474 107.708 197.559 107.752 199.652 107.796C200.496 109.265 201.446 110.69 202.29 112.158C202.159 113.513 202.115 115.166 201.974 116.521C200.646 115.949 199.784 114.129 200.25 112.765C199.696 112.211 199.186 111.279 198.632 110.725C196.969 110.698 195.131 110.391 193.469 110.364L193.381 107.664Z" fill="#FFC9B9"/>
<path d="M191.543 109.678C193.636 109.722 195.72 109.766 197.814 109.81C198.658 111.279 199.608 112.704 200.452 114.173C200.32 115.527 200.276 117.181 200.136 118.535C198.807 117.963 197.946 116.143 198.412 114.779C197.858 114.225 197.347 113.293 196.793 112.739C195.131 112.713 193.293 112.405 191.63 112.378L191.543 109.678Z" fill="#FFC9B9"/>
<path d="M37.2289 153.461C44.4411 139.644 55.4528 126.926 70.2289 121.983C85.0138 117.04 103.73 122.115 110.74 136.038C107.187 133.074 101.954 132.757 97.5999 134.332C93.2462 135.906 89.6753 139.107 86.6585 142.608C77.4498 153.285 72.5684 167.076 69.9035 180.92C67.2385 194.764 66.5964 208.916 64.7582 222.891C63.9403 229.074 62.832 235.398 59.613 240.746C55.6287 247.351 46.8774 252.769 39.3662 248.415C34.0538 245.337 31.037 240.737 29.6738 234.932C27.6948 226.489 25.8478 218.168 25.3553 209.479C24.8364 200.375 25.4608 191.202 27.2023 182.257C29.1549 172.239 32.5059 162.503 37.2289 153.461Z" fill="#50B2B5"/>
<path d="M75.4445 150.295C64.0106 176.681 60.4925 203.067 55.2153 232.091C52.9549 242.03 46.5167 246.621 38.7593 248.037C38.9616 248.16 39.1639 248.292 39.3662 248.415C46.8773 252.769 55.6287 247.36 59.6129 240.746C62.832 235.407 63.949 229.075 64.7582 222.892C66.5964 208.916 67.2385 194.764 69.9034 180.92C72.5684 167.077 77.4498 153.286 86.6585 142.608C89.6753 139.108 93.2549 135.906 97.5998 134.332C101.945 132.757 107.187 133.074 110.74 136.038C110.045 134.666 109.236 133.373 108.33 132.177C95.0052 126.873 80.5985 137.032 75.4445 150.295Z" fill="#459A9D"/>
<path d="M76.1129 135.343C68.3994 136.988 61.7238 141.632 56.6401 147.56C50.9143 154.244 47.405 162.485 45.1358 170.92C42.6116 180.313 41.3011 190.067 40.1753 199.707C38.9967 209.857 38.2755 220.059 38.0116 230.271C37.7478 240.438 37.9413 250.623 38.5921 260.773C38.6713 262.03 38.7592 263.288 38.856 264.546C38.9 265.109 39.7707 264.968 39.7267 264.414C38.9703 254.352 38.6625 244.255 38.812 234.158C38.9615 224.149 39.542 214.158 40.5711 204.201C41.5649 194.57 42.8051 184.869 44.9335 175.406C46.8773 166.769 49.8501 158.158 55.0921 150.937C59.6569 144.657 65.9015 139.398 73.3599 136.979C74.3098 136.671 75.2773 136.425 76.2536 136.214C76.7989 136.091 76.667 135.22 76.1129 135.343Z" fill="#1D3557"/>
<path d="M71.0733 143.936C65.972 144.252 61.0114 145.809 56.6226 148.413C58.1618 143.848 59.7009 139.292 61.2401 134.727C61.4248 134.191 60.6068 133.865 60.4221 134.402C58.751 139.345 57.0887 144.288 55.4176 149.231C55.2681 149.67 55.743 149.969 56.1037 149.732C60.6156 146.812 65.8488 145.123 71.2052 144.798C71.7769 144.771 71.6362 143.901 71.0733 143.936Z" fill="#1D3557"/>
<path d="M56.5874 172.16C51.618 177.437 47.2644 183.277 43.6319 189.557C42.8315 190.938 42.0839 192.354 41.3539 193.77C40.1138 186.962 39.63 180.032 39.9731 173.119C40.0786 171.034 40.2545 168.959 40.492 166.883C40.5623 166.32 39.6828 166.223 39.6212 166.786C38.7593 174.13 38.7769 181.571 39.7004 188.906C39.9643 191.008 40.3073 193.102 40.7207 195.186C40.8086 195.635 41.3715 195.661 41.565 195.283C44.7489 188.853 48.6804 182.794 53.254 177.261C54.5557 175.687 55.9013 174.165 57.2998 172.679C57.6868 172.266 56.9744 171.747 56.5874 172.16Z" fill="#1D3557"/>
<path d="M84.9962 205.732C97.0809 200.411 114.522 199.874 125.393 210.402C122.79 199.988 112.622 192.592 101.786 190.912C98.7256 191.36 95.7616 192.231 92.9647 193.612C91.3552 194.403 90.0535 191.941 91.663 191.149C91.8213 191.07 91.9796 191.008 92.1379 190.929C84.0199 192.09 76.4208 195.863 69.7451 200.912C67.7838 203.762 66.2006 206.875 65.1628 210.182C64.6263 211.897 61.9701 211.07 62.5066 209.364C62.8672 208.221 63.2894 207.095 63.7643 205.987C63.1399 206.576 62.533 207.165 61.9349 207.772C57.7923 211.95 54.0983 216.559 50.8704 221.467C49.4104 226.489 48.8211 231.845 48.223 236.92C48.0119 238.688 45.2326 238.609 45.4349 236.832C45.7428 234.22 46.0506 231.546 46.464 228.881C42.9107 235.583 40.1753 242.725 38.3459 250.095C36.578 257.246 35.9888 264.44 35.4786 271.758C35.1268 276.789 36.4285 281.266 39.9466 285.083C39.9906 285.136 40.0434 285.18 40.0874 285.224C48.6276 255.1 56.1916 220.429 84.9962 205.732Z" fill="#459A9D"/>
<path d="M84.9962 205.732C56.1916 220.429 48.6277 255.1 40.105 285.232C45.1096 290.448 53.4211 288.258 58.2497 283.948C61.8382 280.747 64.213 276.446 66.2711 272.083C63.1751 273.438 60.2199 275.1 57.379 276.921C55.8662 277.888 54.5821 275.417 56.0773 274.458C59.8241 272.057 63.7556 269.981 67.9246 268.433C70.0706 263.605 72.0847 258.723 74.1604 253.86C72.2079 254.801 70.3169 255.847 68.4787 256.929C66.9307 257.844 65.6378 255.381 67.177 254.466C69.9211 252.848 72.806 251.318 75.7964 250.069C77.573 246.032 79.4288 242.03 81.5045 238.134C84.363 232.768 87.6876 227.562 91.6015 222.9C88.5847 223.305 85.6119 223.964 82.7007 224.879C80.9856 225.416 80.3699 222.698 82.0674 222.17C86.0869 220.912 90.1591 220.244 94.2577 219.918C97.3536 216.655 100.793 213.744 104.619 211.343C104.812 211.22 105.006 211.106 105.199 210.991C104.671 210.939 104.152 210.895 103.633 210.842C102.886 210.771 102.261 210.2 102.288 209.408C102.314 208.687 102.974 207.992 103.721 208.062C105.656 208.238 107.618 208.441 109.553 208.784C111.47 208.01 113.467 207.482 115.534 207.385C119.439 207.2 123.599 208.766 125.736 212.047C125.639 211.493 125.525 210.947 125.384 210.411C114.531 199.874 97.081 200.419 84.9962 205.732Z" fill="#50B2B5"/>
<path d="M91.6982 208.52C87.4941 207.5 83.0964 207.526 78.8923 208.529C81.2758 205.222 83.6593 201.923 86.0428 198.616C86.3243 198.229 85.7438 197.763 85.4624 198.15C82.8765 201.73 80.2995 205.31 77.7137 208.898C77.485 209.215 77.7929 209.575 78.1447 209.479C82.5247 208.247 87.1774 208.186 91.5927 209.259C92.05 209.373 92.1556 208.634 91.6982 208.52Z" fill="#1D3557"/>
</g>
</svg>
