<svg xmlns="http://www.w3.org/2000/svg" width="186" height="284" fill="none" viewBox="0 0 186 284"><path fill="#457B9D" d="M0.945105 224.758C2.91529 235.066 14.2031 240.694 24.5112 242.718C34.8193 244.743 45.9982 244.928 54.6518 250.871C61.1284 255.323 65.2429 262.398 70.7616 267.982C81.8861 279.227 98.3552 283.864 114.171 283.842C129.987 283.82 145.476 279.64 160.737 275.482C169.859 273 180.755 268.559 181.724 259.155C182.529 251.361 175.323 244.71 167.725 242.773C160.139 240.835 152.16 242.207 144.333 242.501C136.507 242.794 127.908 241.641 122.509 235.97C116.217 229.351 116.392 219 112.593 210.695C104.059 192.081 80.852 189.207 62.9788 192.103C55.1961 193.366 47.435 193.997 39.5978 194.813C32.0001 195.608 24.7071 197.872 17.6536 200.757C8.28161 204.599 -1.18836 213.612 0.945105 224.758Z" opacity=".29"/><path fill="#FFC9B9" d="M160.019 241.565C159.42 241.097 159.213 240.901 159.213 240.901L157.537 228.176L143.321 232.084L145.923 240.53C150.179 241.586 155.763 243.045 160.019 241.565Z"/><path fill="#1D3557" d="M150.505 260.776C159.54 264.379 168.738 267.568 178.066 270.322C179.416 270.725 180.809 271.117 182.224 271.019C183.628 270.921 185.087 270.224 185.696 268.951C186.437 267.416 185.74 265.489 184.499 264.314C183.258 263.138 181.593 262.54 179.982 261.974C179.601 261.974 179.046 261.647 178.687 261.516C178.218 261.353 177.761 261.19 177.293 261.027C176.346 260.7 175.41 260.363 174.463 260.036C172.613 259.383 170.751 258.741 168.901 258.088C165.178 256.781 161.456 255.475 157.733 254.169C155.861 253.516 153.999 252.863 152.127 252.199C150.44 251.611 148.753 250.904 147.011 250.457C146.01 250.196 144.714 249.989 143.822 250.675C142.766 251.48 142.744 253.178 142.962 254.354C143.561 257.511 146.739 259.198 149.428 260.341C149.809 260.493 150.157 260.635 150.505 260.776Z"/><path fill="#457B9D" d="M160.019 241.564C155.763 243.045 150.179 241.586 145.934 240.52L146.053 240.901C146.053 240.901 144.812 244.199 144.007 248.629C143.299 252.515 145.553 256.335 149.264 257.663L180.983 269.06C183.813 270.083 186.611 267.482 185.816 264.575C184.717 260.515 161.488 242.707 160.019 241.564Z"/><path fill="#1D3557" d="M167.345 246.539C164.417 246.506 161.576 247.932 159.921 250.37C159.475 251.023 160.465 251.753 160.912 251.089C162.305 249.042 164.71 247.725 167.203 247.747C167.53 247.747 167.845 247.562 167.878 247.203C167.922 246.92 167.671 246.55 167.345 246.539Z"/><path fill="#1D3557" d="M170.719 248.944C167.791 248.912 164.95 250.338 163.295 252.776C162.849 253.429 163.839 254.158 164.286 253.494C165.679 251.448 168.084 250.131 170.577 250.153C170.904 250.153 171.219 249.968 171.252 249.608C171.296 249.325 171.056 248.955 170.719 248.944Z"/><path fill="#1D3557" d="M174.093 251.361C171.165 251.328 168.324 252.754 166.67 255.192C166.223 255.846 167.214 256.575 167.66 255.911C169.053 253.864 171.459 252.547 173.952 252.569C174.278 252.569 174.594 252.384 174.627 252.025C174.67 251.731 174.431 251.361 174.093 251.361Z"/><path fill="#FFC9B9" d="M132.905 249.826C132.306 249.358 132.099 249.162 132.099 249.162L130.423 236.437L116.207 240.345L118.809 248.792C123.054 249.848 128.638 251.306 132.905 249.826Z"/><path fill="#1D3557" d="M123.38 269.038C132.415 272.641 141.613 275.831 150.941 278.585C152.291 278.987 153.684 279.379 155.099 279.281C156.503 279.183 157.962 278.487 158.571 277.213C159.312 275.678 158.615 273.752 157.374 272.576C156.133 271.4 154.468 270.802 152.857 270.236C152.476 270.236 151.921 269.909 151.562 269.779C151.093 269.615 150.636 269.452 150.168 269.289C149.221 268.962 148.285 268.625 147.338 268.298C145.488 267.645 143.626 267.003 141.776 266.35C138.053 265.044 134.331 263.737 130.608 262.431C128.736 261.778 126.874 261.125 125.002 260.461C123.315 259.873 121.628 259.166 119.886 258.719C118.885 258.458 117.589 258.251 116.697 258.937C115.641 259.743 115.619 261.441 115.837 262.616C116.436 265.773 119.614 267.471 122.303 268.603C122.684 268.755 123.032 268.897 123.38 269.038Z"/><path fill="#457B9D" d="M132.905 249.826C128.648 251.307 123.064 249.848 118.819 248.781L118.939 249.162C118.939 249.162 117.698 252.46 116.893 256.891C116.185 260.777 118.438 264.597 122.15 265.925L153.869 277.322C156.699 278.345 159.497 275.743 158.702 272.837C157.592 268.777 134.363 250.969 132.905 249.826Z"/><path fill="#1D3557" d="M140.22 254.801C137.292 254.768 134.451 256.194 132.796 258.632C132.35 259.285 133.34 260.015 133.787 259.351C135.18 257.304 137.585 255.987 140.078 256.009C140.405 256.009 140.72 255.824 140.753 255.465C140.797 255.182 140.557 254.812 140.22 254.801Z"/><path fill="#1D3557" d="M143.594 257.206C140.666 257.174 137.825 258.6 136.17 261.038C135.724 261.691 136.714 262.42 137.161 261.756C138.554 259.71 140.959 258.393 143.452 258.415C143.779 258.415 144.094 258.23 144.127 257.87C144.171 257.587 143.931 257.217 143.594 257.206Z"/><path fill="#1D3557" d="M146.979 259.623C144.051 259.59 141.21 261.016 139.555 263.454C139.109 264.107 140.1 264.837 140.546 264.173C141.939 262.126 144.345 260.809 146.837 260.831C147.164 260.831 147.48 260.646 147.512 260.287C147.545 259.993 147.305 259.623 146.979 259.623Z"/><path fill="#FFAB90" d="M159.725 122.091C160.879 123.125 162 124.268 162.621 125.683C163.241 127.109 163.252 128.883 162.283 130.102C160.748 132.029 157.777 131.669 155.382 131.125C152.65 130.505 149.907 129.895 147.175 129.286C144.356 128.654 141.406 127.958 139.218 126.053C137.367 124.442 136.279 122.014 136.225 119.565C136.17 117.073 137.302 114.362 139.305 112.817C140.949 111.554 142.886 112.37 144.606 113.012C147.218 113.981 149.755 115.157 152.16 116.561C154.555 117.965 156.83 119.587 158.942 121.394C159.203 121.623 159.464 121.862 159.725 122.091Z"/><path fill="#94C0C2" d="M87.514 75.0127C98.5949 81.5328 109.687 88.0421 120.768 94.5622C124.371 96.6848 128.028 98.84 130.662 101.681C133.307 104.522 134.864 108.179 133.83 111.869C132.578 116.376 126.765 120.501 120.953 120.327C116.686 120.196 113.355 118.019 110.329 115.951C103.929 111.565 97.4955 107.145 92.3687 101.844C87.231 96.5542 83.4212 90.2735 82.877 83.3724L87.514 75.0127Z"/><path fill="#2A4E80" d="M113.224 6.46971C109.872 3.08446 105.507 0.570013 100.761 0.0801872C96.0261 -0.409639 90.9537 1.35374 88.0474 5.11996C85.0867 8.95149 84.5315 14.4158 81.0048 17.7357C78.6754 19.9236 75.4316 20.8162 72.2859 21.3713C69.1401 21.9264 65.8964 22.2312 62.9792 23.5374C60.062 24.8545 57.4822 27.4669 57.2863 30.6562C57.0686 34.2265 59.8007 37.8512 58.4075 41.1385C57.2754 43.8162 53.9881 44.7959 52.0615 46.962C50.4614 48.7689 49.9171 51.3487 50.2764 53.7325C50.6356 56.1163 51.8329 58.3151 53.335 60.1982C57.3407 65.2271 63.7847 68.2204 70.2177 68.0572C76.6508 67.883 82.9205 64.5522 86.6541 59.3274C90.1155 54.4727 91.3455 48.4206 93.86 43.0107C97.4303 35.3259 103.722 28.9473 111.352 25.279C114.433 23.7987 118.308 22.4707 120.234 19.4447C120.953 18.3126 120.517 17.4636 119.973 16.3751C119.135 14.6879 118.232 13.0443 117.197 11.4659C116.044 9.6699 114.727 7.98273 113.224 6.46971Z"/><path fill="#1D3557" d="M112.375 9.37591C109.273 6.24103 105.213 3.90074 100.826 3.45446C96.4396 2.99729 91.7373 4.63003 89.0378 8.12412C86.2948 11.6835 85.7723 16.7342 82.5068 19.8146C80.3516 21.8501 77.3473 22.6665 74.4192 23.1781C71.502 23.6897 68.4978 23.9727 65.7983 25.1918C63.0988 26.411 60.7041 28.8383 60.519 31.7882C60.3122 35.0972 62.8484 38.4607 61.564 41.5085C60.519 43.9903 57.4712 44.8937 55.6861 46.9075C54.2057 48.5838 53.705 50.9785 54.0316 53.1881C54.369 55.3978 55.4684 57.4333 56.8617 59.1749C60.5844 63.8337 66.5494 66.6094 72.5035 66.457C78.4685 66.3046 84.2811 63.2132 87.7425 58.3585C90.9536 53.863 92.0965 48.2463 94.415 43.2283C97.7241 36.1095 103.558 30.1881 110.634 26.7919C113.496 25.4204 117.078 24.1904 118.874 21.3821C119.538 20.3371 119.135 19.5534 118.634 18.5302C117.861 16.9737 117.023 15.4389 116.065 13.9803C114.988 12.3475 113.758 10.7801 112.375 9.37591Z"/><path fill="#A8DADC" d="M50.1781 63.5072C16.6196 72.433 8.71705 116.931 6.38765 133.835C4.05826 150.74 6.81217 168.972 17.1856 182.513C27.5699 196.054 46.5207 203.587 62.5326 197.687C68.2255 195.586 73.4938 191.755 76.2042 186.334C79.437 179.89 78.7186 172.292 78.588 165.086C78.3812 153.494 79.9051 141.869 83.1053 130.722C86.2946 119.62 103.547 101.735 96.3197 84.08C90.6813 70.3104 70.8814 58.0103 50.1781 63.5072Z"/><path fill="#94C0C2" d="M94.5997 107.679C74.7454 113.252 53.77 104.359 37.5622 93.55C40.0113 115.636 52.2896 146.31 27.7439 161.026C31.423 161.026 33.883 161.026 37.5622 159.796C31.6298 171.661 18.6658 172.989 9.1958 167.405C11.0571 172.815 13.6804 177.931 17.1854 182.502C27.5697 196.043 46.5205 203.576 62.5324 197.676C68.2253 195.575 73.4936 191.744 76.204 186.323C79.4369 179.879 78.7184 172.281 78.5878 165.076C78.381 153.483 79.9049 141.858 83.1051 130.712C84.8467 124.681 90.7464 116.615 94.5997 107.679Z"/><path fill="#1D3557" d="M134.907 51.2613C135.266 50.5647 134.166 50.0204 133.807 50.728C130.455 57.1937 126.373 63.2566 121.605 68.7645C117.643 73.3471 112.658 78.7678 106.05 78.5828C102.752 78.4848 99.4977 76.5473 98.4418 73.3253C98.1915 72.5742 97.0377 72.977 97.2771 73.728C98.2241 76.6343 100.76 78.7025 103.667 79.4753C106.616 80.2699 109.817 79.6168 112.516 78.2997C115.64 76.7758 118.198 74.3376 120.528 71.8123C123.216 68.906 125.709 65.8255 128.006 62.5927C130.564 58.9788 132.871 55.1908 134.907 51.2613Z"/><path fill="#2A4E80" d="M138.053 41.4541C138.183 32.7461 134.384 24.1686 126.58 19.1615C117.85 13.5558 106.192 14.6225 98.4313 21.4039C90.2131 28.588 84.7161 41.7262 88.0361 52.4915C91.4975 63.7139 103.787 70.147 115.053 67.8285C122.487 66.3046 130.716 61.8744 134.439 55.1257C136.779 50.8805 137.987 46.1455 138.053 41.4541Z"/><path fill="#1D3557" d="M135.788 43.2286C135.908 35.1084 132.371 27.1079 125.099 22.4491C116.957 17.2243 106.094 18.2148 98.8664 24.539C91.2142 31.2333 86.0765 43.479 89.1787 53.515C92.4116 63.9755 103.863 69.9731 114.367 67.8179C121.3 66.392 128.963 62.2665 132.436 55.975C134.591 52.0237 135.723 47.6044 135.788 43.2286Z"/><path fill="#FFC9B9" d="M93.0543 46.0151C86.5015 53.5911 79.4045 60.7535 71.8938 67.3389C70.3699 68.6669 69.4121 70.5064 69.4229 72.1392C69.4447 76.6238 71.3387 80.4118 74.6042 82.4038C76.2696 83.4161 79.0126 82.4908 80.8522 80.3574C85.0756 75.4373 89.2555 70.931 93.9687 66.1851C96.1021 58.5873 95.3075 51.9475 93.0543 46.0151Z"/><path fill="#FFAB90" d="M93.9796 66.1851C96.1021 58.5982 95.3184 51.9475 93.0652 46.0151C91.3454 48.0071 89.582 49.9664 87.7751 51.9039C84.4987 60.2745 82.3979 69.8642 83.8565 76.9504C87.0893 73.3148 90.3766 69.8098 93.9796 66.1851Z"/><path fill="#FFC9B9" d="M126.134 61.7875C114.193 72.1935 96.461 77.1789 93.9684 73.8916C85.7284 62.9848 92.5751 49.0955 92.673 48.9431C92.5751 49.0955 90.6375 47.8438 89.8865 46.8968C89.1463 45.9606 89.1245 43.8489 89.4184 42.706C89.9844 40.5072 91.3124 37.5792 93.8268 37.1438C96.8529 36.6213 100.195 39.8215 98.9428 42.9999C107.912 42.8366 112.027 40.0827 117.055 37.1873C124.827 40.5943 128.811 44.8068 132.349 52.7311C132.948 54.0482 127.233 60.8296 126.134 61.7875Z"/><path fill="#1D3557" d="M120.702 49.1718C119.135 46.7988 116.914 44.9266 114.334 43.7401C113.605 43.4027 113.17 44.5783 113.899 44.9157C116.283 46.0151 118.286 47.7894 119.733 49.9664C119.918 50.2494 120.375 50.2494 120.615 50.0535C120.898 49.8249 120.887 49.4657 120.702 49.1718Z"/><path fill="#1D3557" d="M126.449 60.5247C126.939 58.7178 126.536 56.7367 125.317 55.2999C125.1 55.0495 124.686 54.9842 124.436 55.2128C124.185 55.4414 124.12 55.8333 124.349 56.0945C124.479 56.2469 124.599 56.3993 124.708 56.5626C124.719 56.5734 124.751 56.6279 124.751 56.6388C124.762 56.6605 124.784 56.6932 124.795 56.7149C124.838 56.7911 124.882 56.8782 124.925 56.9653C125.013 57.1395 125.089 57.3245 125.154 57.5096C125.176 57.5531 125.187 57.6075 125.208 57.6619C125.208 57.6728 125.219 57.7055 125.23 57.7273C125.241 57.749 125.252 57.8252 125.263 57.8361C125.274 57.8905 125.285 57.9341 125.296 57.9885C125.339 58.1735 125.372 58.3586 125.394 58.5436C125.404 58.6416 125.415 58.7287 125.415 58.8266C125.415 58.8484 125.415 58.8593 125.415 58.8702C125.415 58.8702 125.415 58.8702 125.415 58.8811C125.415 58.9355 125.415 58.9899 125.415 59.0335C125.415 59.2185 125.404 59.4036 125.372 59.5886C125.361 59.6866 125.339 59.7954 125.317 59.8934C125.306 59.926 125.306 59.9587 125.296 59.9804C125.296 59.9913 125.263 60.0893 125.263 60.0893C125.176 60.4159 125.296 60.7751 125.633 60.8948C125.938 61.0145 126.362 60.8621 126.449 60.5247Z"/><path fill="#FFAB90" d="M100.445 69.3852C99.6179 68.2749 98.7906 67.1646 97.9742 66.0544C97.7783 65.7931 97.332 65.7496 97.0925 65.9673C96.8313 66.2067 96.7986 66.566 97.0055 66.849C97.8327 67.9592 98.66 69.0695 99.4764 70.1798C99.6723 70.441 100.119 70.4846 100.358 70.2669C100.619 70.0383 100.652 69.6682 100.445 69.3852Z"/><path fill="#FFAB90" d="M115.129 61.4068C115.401 60.6448 114.247 60.1332 113.975 60.8952C113.409 62.43 112.723 64.041 111.341 65.0315C110.187 65.8588 108.587 66.0547 107.488 65.0315C106.889 64.4764 106.094 65.456 106.693 66.0111C108.086 67.2956 110.165 67.2194 111.722 66.2942C113.496 65.2383 114.443 63.279 115.129 61.4068Z"/><path fill="#1D3557" d="M112.571 55.3C112.625 54.9843 112.386 54.6034 112.048 54.5816C111.363 54.5272 110.71 54.2333 110.307 53.7543C110.056 53.4604 109.937 53.2427 109.817 52.9053C109.719 52.6223 109.665 52.2522 109.686 51.9801C109.708 51.6426 109.523 51.3161 109.164 51.2617C108.848 51.2181 108.467 51.4467 108.445 51.7841C108.38 52.7529 108.652 53.7326 109.284 54.4836C109.937 55.2456 110.862 55.7463 111.863 55.8225C112.179 55.8551 112.506 55.6592 112.571 55.3Z"/><path fill="#1D3557" d="M119.657 65.5427C119.603 65.1726 119.32 64.9876 118.96 64.9767C119.048 64.9767 118.982 64.9767 118.928 64.9658C118.884 64.9658 118.841 64.9549 118.797 64.9441C118.765 64.9332 118.732 64.9332 118.688 64.9223C118.667 64.9223 118.677 64.9223 118.667 64.9223C118.59 64.9005 118.514 64.8679 118.438 64.8352C118.394 64.8134 118.351 64.7917 118.318 64.7808C118.297 64.7699 118.286 64.759 118.275 64.759C118.22 64.7155 118.155 64.6828 118.101 64.6393C118.068 64.6066 118.035 64.5849 118.003 64.5522C117.992 64.5522 117.97 64.5195 117.948 64.5087C117.926 64.4869 117.894 64.4433 117.894 64.4433C117.872 64.4107 117.85 64.3889 117.828 64.3563C117.807 64.3236 117.774 64.2801 117.752 64.2474C117.741 64.2365 117.741 64.2256 117.73 64.2039C117.676 64.0841 117.622 63.9535 117.589 63.8229C117.589 63.8011 117.578 63.7902 117.578 63.7794C117.567 63.7358 117.567 63.6923 117.556 63.6487C117.545 63.5725 117.545 63.4963 117.545 63.4202C117.545 63.4093 117.545 63.4093 117.545 63.3984C117.556 63.3549 117.556 63.3113 117.556 63.2678C117.567 63.1916 117.578 63.1154 117.6 63.0392C117.6 63.0283 117.6 63.0392 117.6 63.0283C117.6 63.0283 117.6 63.0283 117.6 63.0174C117.622 62.9739 117.633 62.9412 117.643 62.8977C117.676 62.8215 117.72 62.7453 117.752 62.6691C117.916 62.3752 117.73 61.9507 117.426 61.8309C117.077 61.7003 116.762 61.8418 116.588 62.1575C116.12 62.9956 116.163 64.0406 116.62 64.857C117.11 65.7387 118.068 66.2176 119.058 66.2394C119.429 66.2503 119.701 65.8584 119.657 65.5427Z"/><path fill="#1D3557" d="M103.874 68.0244C102.818 66.2066 101.305 64.748 99.4656 63.7357C99.1717 63.5725 98.7799 63.801 98.671 64.084C98.5404 64.4215 98.7254 64.7154 99.0193 64.8786C98.954 64.8351 99.1173 64.9331 99.1064 64.9331C99.1499 64.9548 99.2044 64.9875 99.2479 65.0202C99.3459 65.0855 99.4547 65.1399 99.5527 65.2052C99.7377 65.3249 99.9119 65.4447 100.086 65.5753C100.282 65.7168 100.467 65.8692 100.652 66.0216C100.739 66.0869 100.815 66.1631 100.902 66.2393C101 66.3264 101.033 66.359 101.098 66.4243C101.425 66.74 101.73 67.0883 102.013 67.4475C102.154 67.6326 102.285 67.8176 102.415 68.0027C102.568 68.2312 102.622 68.3183 102.753 68.536C102.916 68.819 103.243 68.9932 103.569 68.8408C103.852 68.7102 104.048 68.3183 103.874 68.0244Z"/><path fill="#FFAB90" d="M94.8282 39.0706C94.186 38.6025 93.4676 39.593 94.1098 40.0611C94.7847 40.5509 95.133 41.3782 95.0133 42.1837C94.8935 42.9347 94.3384 43.5878 93.6091 43.8709C93.3043 43.9906 93.1737 44.3933 93.3043 44.6872C93.4458 45.0029 93.8051 45.1118 94.1207 44.992C95.231 44.5457 96.0582 43.5008 96.2324 42.3252C96.4066 41.0952 95.8297 39.7999 94.8282 39.0706Z"/><path fill="#94C0C2" d="M79.8727 84.2649C77.1297 85.669 73.9186 84.6023 71.7742 82.6321C69.238 80.3027 67.9754 77.0263 66.7671 73.8914C66.4732 73.1404 65.265 73.4996 65.5589 74.2615C66.9413 77.8427 68.4325 81.6525 71.5457 84.0907C74.1036 86.1044 77.5542 86.8664 80.5476 85.3425C81.2551 84.9724 80.5911 83.8948 79.8727 84.2649Z"/><path fill="#1D3557" d="M118.525 47.996C112.985 48.4532 107.303 46.8966 102.774 43.6855C101.849 43.0215 100.88 42.1398 100.88 41.0078C100.87 39.7234 102.056 38.7981 103.166 38.1559C107.88 35.4456 113.409 34.1829 118.841 34.5856C121.192 34.7598 123.521 35.2605 125.742 36.0333C126.863 36.4252 127.951 36.8824 129.007 37.4157C130.031 37.9273 131.119 38.4825 132.033 39.19C133.644 40.4527 132.414 42.1072 131.184 43.0542C129.475 44.3822 127.581 45.4707 125.579 46.287C123.576 47.1034 121.464 47.6586 119.32 47.9198C119.048 47.9416 118.786 47.9742 118.525 47.996Z"/><path fill="#213A4A" d="M67.8446 183.036C77.8589 155.714 87.6771 140.595 104.908 117.149C112.375 106.982 122.792 96.2713 135.31 97.8278C142.342 98.7095 150.135 109.453 151.072 122.221C152.595 142.99 155.828 200.757 162.697 234.979C155.839 236.427 148.731 236.449 141.874 237.885C129.476 217.759 124.175 180.783 125.35 162.572C120.223 176.94 114.073 241.858 68.8352 239.986C57.6345 239.518 48.2951 229.145 43.6799 218.924C39.032 208.626 38.9449 199.635 45.5521 181.044L67.8446 183.036Z"/><path fill="#FFAB90" d="M161.51 125.138C160.073 124.05 158.114 123.941 156.546 124.844C152.04 127.424 147.74 130.385 143.724 133.705C142.396 134.793 141.003 136.11 140.861 137.809C140.698 139.67 142.102 141.205 143.408 142.478C145.215 144.252 147.338 146.157 149.907 146.016C152.095 145.896 153.967 144.318 155.48 142.685C158.811 139.104 161.39 134.826 163.012 130.243C163.665 128.382 163.067 126.325 161.51 125.138Z"/><path fill="#FFAB90" d="M141.503 135.925C139.881 137.939 138.26 139.964 136.638 141.977C137.367 143.948 137.955 145.983 138.673 147.942C140.056 148.889 141.667 150.163 143.049 151.11C143.561 149.401 142.526 147.137 140.85 146.495C140.763 145.526 140.284 144.296 140.208 143.327C141.503 141.727 142.679 139.746 143.974 138.146L141.503 135.925Z"/><path fill="#FFAB90" d="M145.716 137.34C144.094 139.354 142.472 141.379 140.85 143.392C141.579 145.363 142.167 147.398 142.886 149.357C144.268 150.304 145.879 151.578 147.261 152.525C147.773 150.816 146.739 148.552 145.063 147.91C144.976 146.941 144.497 145.711 144.42 144.742C145.716 143.142 146.891 141.161 148.187 139.561L145.716 137.34Z"/><path fill="#FFAB90" d="M148.927 137.036C147.305 139.049 145.683 141.074 144.061 143.088C144.79 145.058 145.378 147.093 146.097 149.053C147.479 150 149.09 151.273 150.472 152.22C150.984 150.511 149.95 148.247 148.274 147.605C148.186 146.636 147.708 145.406 147.631 144.437C148.927 142.837 150.102 140.856 151.398 139.256L148.927 137.036Z"/><path fill="#FFAB90" d="M152.29 136.894C150.669 138.908 149.047 140.933 147.425 142.946C148.154 144.917 148.742 146.952 149.46 148.911C150.843 149.858 152.454 151.132 153.836 152.079C154.348 150.37 153.314 148.106 151.637 147.464C151.55 146.495 151.071 145.265 150.995 144.296C152.29 142.696 153.466 140.715 154.761 139.115L152.29 136.894Z"/><path fill="#213A4A" d="M33.7633 187.912C29.2896 188.718 24.7397 188.685 20.2768 187.814C19.504 187.662 19.3624 188.881 20.1353 189.034C24.6852 189.926 29.3767 189.948 33.9484 189.121C34.7212 188.979 34.5362 187.771 33.7633 187.912Z"/><path fill="#345C75" d="M39.4779 184.495C49.4922 157.173 59.3104 142.054 76.5414 118.607C84.0086 108.441 94.4255 97.73 106.943 99.2866C113.975 100.168 121.769 110.912 122.705 123.68C124.229 144.449 127.472 204.664 134.341 238.887C127.483 240.324 120.375 240.356 113.518 241.793C101.12 221.667 95.797 182.252 96.9835 164.042C91.8567 178.41 85.7066 243.328 40.4685 241.456C29.2678 240.988 19.9284 230.614 15.3132 220.393C10.6653 210.096 10.5782 201.105 17.1854 182.513L39.4779 184.495Z"/><path fill="#213A4A" d="M57.9278 144.775C49.8185 156.607 43.712 169.788 39.9566 183.623C38.9117 187.487 38.0409 191.406 37.3442 195.347C37.2136 196.13 38.4327 196.261 38.5634 195.488C41.0016 181.523 45.7801 167.96 52.6704 155.573C54.597 152.122 56.6761 148.759 58.9075 145.493C59.3647 144.84 58.3741 144.122 57.9278 144.775Z"/><path fill="#213A4A" d="M34.3622 188.5C32.5988 191.113 30.8245 193.725 29.0612 196.348C28.6149 197.001 29.6054 197.731 30.0517 197.067C31.8151 194.454 33.5893 191.842 35.3527 189.219C35.7881 188.576 34.8084 187.847 34.3622 188.5Z"/><path fill="#213A4A" d="M98.0829 165.075C98.3768 162.224 98.7904 159.372 99.302 156.552C99.4435 155.769 98.2244 155.638 98.0829 156.411C96.2869 166.36 95.8297 176.537 96.744 186.606C97.0053 189.512 97.3863 192.408 97.8761 195.292C98.0067 196.065 99.2258 195.88 99.0843 195.107C97.3971 185.191 97.0488 175.068 98.0829 165.075Z"/><path fill="#213A4A" d="M128.561 232.835C124.065 233.629 119.57 234.424 115.074 235.218C114.302 235.36 114.487 236.568 115.259 236.427C119.755 235.632 124.251 234.837 128.746 234.043C129.53 233.912 129.345 232.693 128.561 232.835Z"/><path fill="#A8DADC" d="M98.7037 130.907C93.3047 131.081 87.6445 131.277 81.2985 131.408C73.7225 113.981 65.0472 96.4562 57.4603 79.0293C56.0126 75.6985 54.369 72.15 51.2232 70.3431C47.8162 68.3946 43.288 69.1022 40.1531 71.4751C37.0182 73.848 33.731 85.2011 35.0154 92.7444C39.1844 117.181 50.6354 131.19 65.4935 151.034C76.3132 150.99 87.4921 150.087 98.6057 148.4C97.4084 142.554 97.6914 136.731 98.7037 130.907Z"/><path fill="#94C0C2" d="M73.1456 143.86C71.9156 143.86 75.5948 138.951 74.3756 136.502C73.1456 138.951 69.4665 140.181 68.2365 142.641C52.8995 124.017 37.5843 103.444 36.2128 79.1599C34.9719 83.4486 34.3188 88.6516 35.0154 92.7444C39.1844 117.181 50.6354 131.19 65.4935 151.034C76.3132 150.99 87.4921 150.087 98.6057 148.4C98.4642 147.714 98.3445 147.039 98.2465 146.353C89.8106 147.605 81.1244 147.18 73.1456 143.86Z"/><path fill="#94C0C2" d="M78.1415 124.072C72.6337 113.295 67.1259 102.508 61.6072 91.7322L56.9375 82.5887C56.5783 81.8921 55.4354 82.3275 55.7946 83.035C61.3024 93.8112 66.8102 104.598 72.3289 115.374C73.8855 118.422 75.442 121.47 76.9986 124.518C77.3578 125.204 78.5007 124.779 78.1415 124.072Z"/><path fill="#FFC9B9" d="M140.654 131.332C124.359 130.134 112.462 130.45 98.7033 130.896C97.691 136.72 97.3971 142.554 98.6162 148.378C113.18 146.168 127.625 142.63 141.002 137.972C140.894 135.664 140.763 133.65 140.654 131.332Z"/><path fill="#FFC9B9" d="M129.323 131.56C135.059 129.231 141.057 127.478 147.163 126.346C148.85 126.031 150.755 125.813 152.149 126.793C153.683 127.87 153.956 129.927 154.097 131.745C154.293 134.271 154.391 137.112 152.628 138.995C151.136 140.595 148.72 141.008 146.488 141.117C140.48 141.422 134.395 140.181 129.029 137.558L129.323 131.56Z"/><path fill="#FFC9B9" d="M150.309 126.085C152.9 126.139 155.479 126.194 158.07 126.248C159.115 128.066 160.291 129.829 161.336 131.647C161.172 133.323 161.118 135.37 160.944 137.046C159.3 136.339 158.233 134.085 158.81 132.398C158.125 131.713 157.493 130.559 156.807 129.873C154.75 129.84 152.475 129.459 150.418 129.427L150.309 126.085Z"/><path fill="#FFC9B9" d="M148.687 130.211C151.278 130.265 153.857 130.32 156.448 130.374C157.493 132.192 158.669 133.955 159.714 135.773C159.55 137.449 159.496 139.496 159.322 141.172C157.678 140.464 156.611 138.211 157.188 136.524C156.502 135.838 155.871 134.684 155.185 133.999C153.128 133.966 150.853 133.585 148.796 133.552L148.687 130.211Z"/><path fill="#FFC9B9" d="M146.391 132.475C148.981 132.529 151.561 132.583 154.152 132.638C155.197 134.456 156.372 136.219 157.417 138.037C157.254 139.713 157.199 141.76 157.025 143.436C155.382 142.728 154.315 140.475 154.892 138.788C154.206 138.102 153.575 136.948 152.889 136.263C150.832 136.23 148.557 135.849 146.499 135.816L146.391 132.475Z"/><path fill="#FFC9B9" d="M144.115 134.968C146.706 135.022 149.286 135.076 151.876 135.131C152.921 136.949 154.097 138.712 155.142 140.53C154.978 142.206 154.924 144.252 154.75 145.929C153.106 145.221 152.04 142.968 152.616 141.281C151.931 140.595 151.299 139.441 150.614 138.755C148.556 138.723 146.281 138.342 144.224 138.309L144.115 134.968Z"/></svg>