<svg width="196" height="200" viewBox="0 0 196 200" fill="none" xmlns="http://www.w3.org/2000/svg">
<mask id="mask0_394:962" style="mask-type:alpha" maskUnits="userSpaceOnUse" x="0" y="0" width="321" height="200">
<rect width="321" height="200" rx="25" fill="#C4C4C4"/>
</mask>
<g mask="url(#mask0_394:962)">
<path d="M321 -39H-1V541H321V-39Z" fill="#F1FAEE"/>
<path opacity="0.09" d="M-1 -39V83.6089C40.9278 65.2464 80.23 40.0447 123.243 20.665C189.175 -8.8597 256.38 -1.98043 321 18.7778V-39H-1Z" fill="#457B9D"/>
<path d="M81.9178 197.398C82.8426 197.398 83.5923 196.649 83.5923 195.725C83.5923 194.801 82.8426 194.052 81.9178 194.052C80.9931 194.052 80.2434 194.801 80.2434 195.725C80.2434 196.649 80.9931 197.398 81.9178 197.398Z" fill="#A8DADC"/>
<path d="M58.3151 195.725C58.3151 194.801 59.0652 194.052 59.9895 194.052C60.9138 194.052 61.6639 194.801 61.6639 195.725C61.6639 196.648 60.9138 197.398 59.9895 197.398C59.0652 197.411 58.3151 196.662 58.3151 195.725Z" fill="#A8DADC"/>
<path d="M36.4 195.725C36.4 194.801 37.1502 194.052 38.0745 194.052C38.9987 194.052 39.7489 194.801 39.7489 195.725C39.7489 196.648 38.9987 197.398 38.0745 197.398C37.1502 197.411 36.4 196.662 36.4 195.725Z" fill="#A8DADC"/>
<path d="M14.4851 195.725C14.4851 194.801 15.2353 194.052 16.1595 194.052C17.0838 194.052 17.834 194.801 17.834 195.725C17.834 196.648 17.0838 197.398 16.1595 197.398C15.2353 197.411 14.4851 196.662 14.4851 195.725Z" fill="#A8DADC"/>
<path d="M80.23 174.029C80.23 173.106 80.9801 172.356 81.9044 172.356C82.8287 172.356 83.5788 173.106 83.5788 174.029C83.5788 174.953 82.8287 175.702 81.9044 175.702C80.9801 175.702 80.23 174.953 80.23 174.029Z" fill="#A8DADC"/>
<path d="M58.3151 174.029C58.3151 173.106 59.0652 172.356 59.9895 172.356C60.9138 172.356 61.6639 173.106 61.6639 174.029C61.6639 174.953 60.9138 175.702 59.9895 175.702C59.0652 175.702 58.3151 174.953 58.3151 174.029Z" fill="#A8DADC"/>
<path d="M36.4 174.029C36.4 173.106 37.1502 172.356 38.0745 172.356C38.9987 172.356 39.7489 173.106 39.7489 174.029C39.7489 174.953 38.9987 175.702 38.0745 175.702C37.1502 175.702 36.4 174.953 36.4 174.029Z" fill="#A8DADC"/>
<path d="M14.4851 174.029C14.4851 173.106 15.2353 172.356 16.1595 172.356C17.0838 172.356 17.834 173.106 17.834 174.029C17.834 174.953 17.0838 175.702 16.1595 175.702C15.2353 175.702 14.4851 174.953 14.4851 174.029Z" fill="#A8DADC"/>
<path d="M122.604 78.3452C113.267 79.4694 103.475 75.2803 97.8221 67.772C96.2682 65.7109 94.9823 63.2884 95.0359 60.7053C95.0894 58.1223 96.871 55.4589 99.4296 55.1243C102.872 54.6826 105.565 58.8584 104.667 62.1909C103.77 65.5369 100.474 67.7452 97.1255 68.6419C91.8209 70.0606 86.1681 68.9498 80.9304 67.2634C75.7062 65.577 70.6159 63.3419 65.1908 62.4586C59.7656 61.5753 53.7645 62.2445 49.5985 65.818C45.4325 69.3914 44.0394 76.3911 47.7231 80.4732C50.5629 83.6318 55.9479 84.0734 59.2566 81.4235C62.5787 78.7601 63.3154 73.4333 60.8506 69.9669C57.9974 65.9652 52.4651 65.2424 48.0714 63.0341C41.6014 59.7819 37.3014 51.872 39.6055 45.0062C41.9095 38.1403 51.7551 34.6605 57.0865 39.5589C59.1226 41.4327 60.3416 44.1764 62.726 45.595C65.5658 47.2948 69.4103 46.5319 71.9689 44.444C74.5274 42.3428 75.9741 39.1708 76.7912 35.9721C77.7691 32.1443 77.97 28.1426 79.1087 24.355C80.2473 20.5673 82.6049 16.8467 86.3288 15.5083C90.3876 14.0628 94.9823 15.883 98.2642 18.6668C101.559 21.4507 103.957 25.1312 106.877 28.2898C109.811 31.4484 113.602 34.2322 117.915 34.3259C122.229 34.4196 126.73 30.739 126.154 26.483C125.658 22.8292 121.425 20.3666 117.835 21.2232C114.232 22.0663 111.646 25.613 111.298 29.2802C110.95 32.9607 112.544 36.6279 115.008 39.3983C119.483 44.4307 126.917 46.6256 133.414 44.8455C137.875 43.6142 142.255 39.559 141.317 35.0352C140.46 30.913 135.356 28.7448 131.297 29.8959C127.239 31.0469 124.292 34.6069 122.456 38.3946C120.621 42.1822 119.643 46.3311 117.969 50.1991C116.294 54.067 113.696 57.8011 109.824 59.4606C103.756 62.0437 96.7237 58.671 91.8745 54.2008C87.0254 49.7306 83.1943 44.0559 77.595 40.5761C71.9957 37.0963 63.4896 36.7484 59.7522 42.1822C60.9578 36.8554 62.3108 31.3948 65.5926 27.0317C68.8745 22.6686 74.5676 19.6573 79.8186 21.1295C85.0696 22.6017 88.3381 29.762 84.8821 33.9779C82.2566 37.1766 77.0592 37.7655 75.1704 41.4461C73.9514 43.8284 74.648 46.8799 76.4296 48.8875C78.1978 50.8816 80.8501 51.939 83.5024 52.2736C87.7755 52.8223 92.5041 51.4705 95.1028 48.0443C97.7149 44.6046 97.4068 39.0102 93.8972 36.5208C89.1285 33.1481 82.3638 37.0428 79.2292 41.968C76.0947 46.8933 74.6346 52.9695 70.4418 57.0382C66.316 61.0533 60.1005 62.4051 54.3806 61.669C48.6608 60.9195 43.3428 58.323 38.4267 55.3251C41.2263 55.74 44.1733 53.6521 44.6957 50.8683C45.2182 48.0844 43.2356 45.0597 40.4762 44.4306C37.5827 43.7748 34.7295 45.4612 32.3049 47.1609C27.0807 50.8147 21.8967 55.1644 19.7802 61.1604C17.6637 67.1697 19.9007 75.1063 25.9153 77.2076C31.8227 79.2687 38.1855 74.9591 41.7085 69.7796C45.2315 64.6134 47.1873 58.4167 51.2461 53.6387C55.3049 48.8741 62.8466 45.9832 67.8163 49.7976C71.7144 52.7955 72.2502 58.4301 71.9019 63.3419C71.5536 68.2538 70.7365 73.4735 73.0003 77.85C75.0766 81.8785 79.7784 84.3679 84.2927 83.8459C88.7936 83.3239 92.7988 79.8174 93.8972 75.4141C94.8885 71.4927 93.6963 67.3705 93.7097 63.3286C93.7231 59.2867 95.7726 54.5488 99.7912 54.0402C104.172 53.4781 107.212 58.0554 110.856 60.5581C117.179 64.8945 127.172 61.9367 130.105 54.8566C131.793 50.7746 131.565 45.5817 134.954 42.7309C138.424 39.7999 144.117 40.8839 147.519 37.8726C150.533 35.2092 150.359 30.1501 148.015 26.8845C145.671 23.6189 141.719 21.879 137.808 20.9421C128.779 18.7739 118.92 20.2328 110.923 24.9305C104.359 28.785 99.1617 34.5936 92.7586 38.7158C80.3276 46.7059 63.5431 47.3483 50.5228 40.362C46.1023 37.993 41.7085 33.9244 42.1238 28.9322C42.5659 23.7527 47.9106 20.487 52.9071 19.0416C64.4272 15.7224 77.3806 17.7434 87.3335 24.4219C70.5891 32.2916 53.8314 40.1746 37.0871 48.0443" stroke="#457B9D" stroke-miterlimit="10" stroke-linecap="round"/>
<path d="M200.618 250.881L189.334 307.808C178.915 307.416 168.497 305.605 158.257 302.538C158.257 298.818 158.274 295.245 158.323 291.835C158.584 268.551 159.874 252.823 159.874 252.823C155.253 220.68 150.599 188.537 145.961 156.378C144.638 147.225 143.364 137.615 146.549 128.935C149.749 120.255 159.009 113.043 167.941 115.458L179.585 163.655L200.618 250.881Z" fill="#457B9D"/>
<path d="M167.958 115.458C159.025 113.027 149.766 120.255 146.565 128.935C143.381 137.615 144.655 147.225 145.977 156.395C150.615 188.537 155.253 220.68 159.891 252.823C159.891 252.823 158.601 268.568 158.323 291.835C164.659 248.597 175.519 206.746 179.569 163.623L167.958 115.458Z" fill="#457B9D"/>
<path d="M200.618 250.881L189.35 307.792H189.334C178.915 307.4 168.497 305.589 158.257 302.522C158.257 298.802 158.274 295.228 158.323 291.818C164.659 248.597 175.502 206.73 179.585 163.639L200.618 250.881Z" fill="#3B6A87"/>
<path d="M254.002 95.6993C248.188 93.6271 241.82 93.8392 235.026 94.035C226.273 94.2634 217.553 95.1771 208.93 96.7109C192.061 99.7293 175.633 105.228 160.38 113.043C154.518 116.045 150.501 123.796 151.791 130.24C152.77 135.152 154.959 139.72 157.033 144.272C167.647 167.588 175.829 192.013 181.463 217.009C184.37 229.866 186.591 242.887 188.126 255.988C188.877 262.352 190.771 297.333 190.2 303.713C189.138 315.477 275.378 324.141 304.299 293.564C310.587 286.907 298.159 217.254 296.314 203.63C292.656 176.578 286.009 149.852 276.244 124.35C272.994 115.882 268.961 107.153 262.281 100.839C259.669 98.3588 256.909 96.7435 254.002 95.6993Z" fill="#457B9D"/>
<path d="M188.126 255.972C186.591 242.87 184.37 229.867 181.463 216.993C176.678 195.782 170.032 174.996 161.654 154.927C182.59 188.587 186.248 229.736 204.799 265.697C208.604 272.566 211.315 282.502 220.541 285.765C214.744 286.483 202.627 283.595 204.619 287.756C226.273 324.761 276.26 314.417 305.736 289.257C305.459 291.329 305.002 292.798 304.316 293.532C275.395 324.125 189.154 315.461 190.216 303.681C190.771 297.317 188.877 262.336 188.126 255.972Z" fill="#3B6A87"/>
<path d="M184.647 135.641C187.178 136.702 190.053 135.886 192.404 134.744C194.723 133.618 196.846 132.1 198.708 130.322C202.415 126.732 205.06 122.05 206.22 117.024C206.873 114.202 207.036 111.297 206.693 108.426C206.595 107.594 207.885 107.545 207.983 108.361C209.306 119.374 203.117 130.958 193.106 135.837C190.298 137.207 187.064 138.056 184.059 136.816C183.292 136.489 183.88 135.331 184.647 135.641Z" fill="#3B6A87"/>
<path d="M182.671 106.517C174.294 91.2783 165.9 76.0227 157.523 60.7835C159.548 60.0003 158.927 56.215 157.817 54.355C156.706 52.495 153.816 52.0218 152.166 53.4413C151.595 51.4997 148.688 49.3133 146.679 49.0686C144.671 48.8238 142.548 49.8681 141.519 51.6139C138.727 49.6723 133.272 50.4228 131.394 53.2618C129.173 52.6255 127.426 52.5602 125.221 53.2292C123 53.8981 121.188 56.4108 122.151 58.5156C120.584 57.3408 116.762 57.814 114.933 58.5482C113.121 59.2661 111.733 60.9793 111.406 62.9209C110.279 62.4967 108.891 63.1657 107.699 63.1004C106.507 63.0188 105.233 63.3451 104.417 64.2262C103.6 65.1073 103.437 66.592 104.237 67.4894C101.787 67.6363 98.7337 68.3052 96.6597 69.6268C94.6021 70.9484 93.2957 73.8038 94.5204 75.9248C92.3975 75.778 90.5685 77.6054 90.1113 79.6775C89.654 81.7497 90.8951 84.0829 92.8874 84.8497C91.581 86.2529 90.8951 90.3809 91.9892 91.9636C93.0834 93.5462 95.3206 94.1989 97.1006 93.4646C96.676 95.031 97.6722 97.0052 98.848 98.1147C100.024 99.2405 101.836 99.6484 103.371 99.1426C112.859 103.205 122.004 108.231 129.729 115.067L182.671 106.517Z" fill="#1D3557"/>
<path d="M91.9728 91.9304C90.8786 90.3477 91.5645 86.2197 92.8709 84.8166C90.8786 84.0497 89.6375 81.7328 90.0948 79.6443C90.552 77.5722 92.381 75.7448 94.504 75.8917C93.2792 73.7706 94.5693 70.9152 96.6432 69.5936C98.7009 68.272 101.771 67.6031 104.22 67.4562C103.42 66.5752 103.6 65.0741 104.4 64.193C105.217 63.312 106.49 62.9856 107.683 63.0672C108.875 63.1488 110.279 62.4798 111.389 62.8877C111.716 60.9624 113.104 59.2492 114.917 58.515C116.729 57.7971 120.567 57.3076 122.135 58.4824C121.188 56.3776 123 53.8649 125.205 53.196C127.426 52.527 129.157 52.5923 131.378 53.2286C133.272 50.3896 138.71 49.6391 141.503 51.5807C142.531 49.8349 144.638 48.7906 146.663 49.0354C148.672 49.2801 151.578 51.4665 152.15 53.4081C153.799 51.9886 156.69 52.4618 157.8 54.3218C158.911 56.1818 159.531 59.9671 157.506 60.7503C160.331 65.8736 163.14 71.0131 165.965 76.1364C164.234 74.4232 162.52 72.6774 160.903 70.85C159.597 69.3815 158.323 67.8641 157.114 66.3141C156.298 65.2699 155.416 64.2256 154.795 63.0509C153.995 61.5335 153.358 59.6245 151.938 58.5803C150.582 57.5687 149.21 58.1071 148.1 59.0371C147.643 58.0908 146.99 57.226 146.026 56.8181C144.834 56.3123 143.74 56.7529 142.858 57.5197C141.846 56.7692 140.67 56.4755 139.412 57.1118C138.22 57.7155 137.355 58.825 136.587 59.9019C135.101 59.2819 133.403 59.0371 131.884 59.6735C130.463 60.2608 129.614 61.4519 129.19 62.8388C127.148 62.3167 125.025 61.9577 123 62.8061C121.923 63.263 121.188 64.0299 120.649 65.0578C120.241 65.8409 119.996 67.0483 119.31 67.6357C118.575 68.272 117.04 67.8315 116.174 67.7336C115.096 67.6031 113.953 67.4399 112.892 67.7173C110.589 68.321 109.103 70.0668 108.123 72.09C106.066 72.2858 104.008 72.8895 102.424 74.1621C100.269 75.908 99.9909 78.4696 100.938 80.8517C99.1254 81.7981 96.9208 83.2665 97.3128 85.4855C97.6884 87.574 100.138 88.765 102.049 89.5482C101.787 90.8861 101.787 92.2893 102.62 93.4641C103.469 94.6878 104.906 95.1936 106.327 95.3731C106.752 97.3962 107.307 99.3379 108.042 101.198C106.49 100.464 104.923 99.7458 103.339 99.0768C101.787 99.5826 99.9909 99.1747 98.8152 98.0489C97.6394 96.9231 96.6432 94.9651 97.0678 93.3988C95.3041 94.1657 93.0669 93.513 91.9728 91.9304Z" fill="#294B7A"/>
<path d="M163.712 87.5581C174.637 93.9703 186.035 99.632 197.744 104.445C200.504 105.587 202.415 108.231 202.398 111.233C202.382 118.102 199.687 124.318 194.805 128.936C192.437 131.155 188.926 131.644 186.084 130.078C178.997 126.162 171.812 122.116 164.79 118.281L163.712 87.5581Z" fill="#BC6C25"/>
<path d="M163.712 87.5581C170.032 91.2619 176.498 94.7209 183.096 97.9025C186.656 104.233 187.636 111.396 186.705 119.162C186.052 122.426 184.99 125.672 183.537 128.675C177.282 125.199 170.962 121.659 164.773 118.281L163.712 87.5581Z" fill="#6B3E15"/>
<path d="M166.814 126.847C181.414 110.4 175.257 96.5318 166.161 89.7606C168.937 86.53 168.905 81.5047 166.063 78.3393C164.545 76.6425 162.324 75.5493 160.054 75.6472C157.8 75.7614 155.579 77.1156 154.697 79.2041C153.799 81.2762 154.452 83.9684 156.314 85.2574L147.806 85.2247C143.854 82.8752 139.461 79.6609 135.526 77.3114C125.646 83.0873 118.232 91.6206 113.316 101.949C115.635 105.245 120.453 110.172 120.943 110.498C137.894 122.589 155.04 140.112 166.814 126.847Z" fill="#BC6C25"/>
<path d="M159.221 86.0404C157.849 84.6209 156.314 82.9404 156.363 80.8193C156.412 79.0571 157.669 77.344 159.515 77.3276C159.841 77.3276 160.086 77.6866 160.054 77.9803C160.021 78.3392 159.727 78.5024 159.401 78.5187C158.176 78.535 157.49 80.0687 157.572 81.1293C157.669 82.8098 159.074 84.1641 160.168 85.3062C160.397 85.5346 160.299 85.9589 160.07 86.1546C159.792 86.3668 159.45 86.2689 159.221 86.0404Z" fill="#6B3E15"/>
<path d="M160.446 121.903C161.148 121.12 161.85 120.337 162.552 119.554C162.765 119.325 163.124 119.211 163.385 119.423C163.614 119.603 163.744 120.011 163.516 120.255C162.814 121.038 162.111 121.822 161.409 122.605C161.197 122.833 160.838 122.947 160.576 122.735C160.348 122.556 160.217 122.164 160.446 121.903Z" fill="#6B3E15"/>
<path d="M128.847 95.6178C130.953 95.9768 132.374 94.0026 133.533 92.5667C134.97 90.7557 136.424 88.9446 137.861 87.1335C138.335 86.5298 139.314 87.2314 138.824 87.8351C137.191 89.8909 135.575 91.9467 133.925 93.9862C132.652 95.5689 130.937 97.1842 128.716 96.8089C127.981 96.6784 128.095 95.4873 128.847 95.6178Z" fill="#1D3557"/>
<path d="M121.367 108.377C122.233 107.153 123.115 105.929 123.98 104.706C124.405 104.118 124.829 103.531 125.254 102.927C125.417 102.683 125.646 102.373 125.662 102.063C125.662 101.916 125.613 101.622 125.433 101.589C124.682 101.442 124.797 100.251 125.564 100.398C126.315 100.545 126.822 101.149 126.854 101.916C126.903 102.846 126.25 103.596 125.744 104.314C124.617 105.913 123.474 107.496 122.347 109.095C121.873 109.715 120.91 108.997 121.367 108.377Z" fill="#1D3557"/>
<path d="M140.751 116.926C140.229 116.323 139.902 115.572 139.559 114.87C139.135 114.006 138.694 113.125 138.269 112.26C137.387 110.481 136.506 108.687 135.624 106.908C135.281 106.207 136.326 105.554 136.685 106.272C137.453 107.822 138.22 109.388 138.988 110.938C139.739 112.456 140.408 114.038 141.258 115.49C143.005 118.525 146.516 115.523 149.015 115.409C149.815 115.376 149.847 116.616 149.047 116.649C147.479 116.714 146.157 117.644 144.654 117.954C143.217 118.281 141.748 118.085 140.751 116.926Z" fill="#6B3E15"/>
<path d="M142.27 93.5623C142.401 96.026 140.784 98.4408 138.465 99.2729C137.469 99.6319 138.008 101.166 139.004 100.807C142.025 99.7298 144.083 96.6297 143.903 93.4318C143.838 92.3875 142.205 92.5018 142.27 93.5623Z" fill="#1D3557"/>
<path d="M133.55 106.99C133.076 107.023 132.798 107.431 132.798 107.872C132.798 108.067 132.782 108.247 132.733 108.508C132.701 108.638 132.684 108.769 132.635 108.899C132.619 108.948 132.603 108.997 132.586 109.046C132.586 109.063 132.554 109.144 132.537 109.16C132.341 109.683 132.129 110.025 131.835 110.401C131.198 111.184 130.447 111.689 129.451 111.934C129.026 112.032 128.814 112.587 128.945 112.978C129.108 113.419 129.549 113.582 129.99 113.484C132.57 112.848 134.383 110.368 134.415 107.774C134.432 107.3 133.958 106.958 133.55 106.99Z" fill="#1D3557"/>
<path d="M163.516 111.036C160.054 111.934 156.902 113.859 154.502 116.518C153.799 117.302 155.024 118.378 155.726 117.595C157.947 115.131 160.838 113.402 164.038 112.57C164.463 112.456 164.675 111.917 164.545 111.526C164.398 111.101 163.94 110.922 163.516 111.036Z" fill="#1D3557"/>
</g>
</svg>
