<svg width="29" height="29" viewBox="0 0 29 29" fill="none" xmlns="http://www.w3.org/2000/svg">
<path d="M20.8117 4.82421L24.1756 8.18652L20.8117 4.82421ZM22.9749 1.86214L13.879 10.958C13.4091 11.4273 13.0885 12.0253 12.9579 12.6765L12.1177 16.8821L16.3233 16.0404C16.9745 15.9101 17.5717 15.5909 18.0418 15.1208L27.1377 6.02492C27.411 5.75159 27.6278 5.4271 27.7758 5.06997C27.9237 4.71285 27.9998 4.33008 27.9998 3.94353C27.9998 3.55698 27.9237 3.17422 27.7758 2.81709C27.6278 2.45996 27.411 2.13547 27.1377 1.86214C26.8643 1.58881 26.5399 1.37199 26.1827 1.22406C25.8256 1.07614 25.4428 1 25.0563 1C24.6697 1 24.287 1.07614 23.9298 1.22406C23.5727 1.37199 23.2482 1.58881 22.9749 1.86214V1.86214Z" stroke="#61AEF2" stroke-width="2" stroke-linecap="round" stroke-linejoin="round"/>
<path d="M24.8236 20.0584V24.8232C24.8236 25.6656 24.489 26.4736 23.8932 27.0693C23.2975 27.665 22.4896 27.9996 21.6471 27.9996H4.17648C3.33403 27.9996 2.52608 27.665 1.93037 27.0693C1.33466 26.4736 1 25.6656 1 24.8232V7.35251C1 6.51005 1.33466 5.7021 1.93037 5.1064C2.52608 4.51069 3.33403 4.17603 4.17648 4.17603H8.94121" stroke="#61AEF2" stroke-width="2" stroke-linecap="round" stroke-linejoin="round"/>
</svg>
