<svg width="26" height="26" viewBox="0 0 26 26" fill="none" xmlns="http://www.w3.org/2000/svg">
<path d="M23.307 4.107L26 1.414L24.586 0L21.893 2.693L20.8 1.6C20.6195 1.41036 20.4023 1.25938 20.1616 1.15621C19.9209 1.05305 19.6618 0.99985 19.4 0.99985C19.1382 0.99985 18.8791 1.05305 18.6384 1.15621C18.3977 1.25938 18.1805 1.41036 18 1.6L0 19.6V26H6.4L24.4 8C24.5896 7.81946 24.7406 7.60227 24.8438 7.36161C24.947 7.12095 25.0002 6.86184 25.0002 6.6C25.0002 6.33816 24.947 6.07905 24.8438 5.83839C24.7406 5.59773 24.5896 5.38054 24.4 5.2L23.307 4.107ZM5.6 24H2V20.4L19.4 3L23 6.6L5.6 24Z" fill="#61AEF2"/>
<path d="M5 9.586L12.586 2L14 3.414L6.414 11L5 9.586Z" fill="#61AEF2"/>
</svg>
