<svg width="321" height="200" viewBox="0 0 321 200" fill="none" xmlns="http://www.w3.org/2000/svg">
<mask id="mask0_394:640" style="mask-type:alpha" maskUnits="userSpaceOnUse" x="0" y="0" width="321" height="200">
<rect width="321" height="200" rx="25" fill="#C4C4C4"/>
</mask>
<g mask="url(#mask0_394:640)">
<path d="M321 -210.957H-12.52V390.317H321V-210.957Z" fill="#F1FAEE"/>
<path opacity="0.09" d="M136.217 265.736C132.054 268.511 129.279 274.061 125.117 278.223C84.256 308.081 36.2773 335.262 -12.52 343.656V390.317H321V165.463C277.406 183.154 234.838 204.979 193.103 228.288C173.678 240.761 158.416 256.024 136.217 265.736Z" fill="#457B9D"/>
<path opacity="0.09" d="M-12.52 -210.957V-130.04C-9.63408 -128.805 -6.74814 -127.556 -3.87608 -126.294C39.968 -107.063 80.5514 -81.2702 117.555 -50.8985C175.968 -2.96147 247.381 28.2843 320.986 36.1513V-210.957H-12.52Z" fill="#457B9D"/>
<path d="M32.878 8.9707C33.8354 8.9707 34.6124 9.74769 34.6124 10.705C34.6124 11.6624 33.8354 12.4394 32.878 12.4394C31.9207 12.4394 31.1437 11.6624 31.1437 10.705C31.1437 9.76156 31.9207 8.9707 32.878 8.9707Z" fill="#A8DADC"/>
<path d="M55.3828 8.9707C56.3401 8.9707 57.1171 9.74769 57.1171 10.705C57.1171 11.6624 56.3401 12.4394 55.3828 12.4394C54.4254 12.4394 53.6484 11.6624 53.6484 10.705C53.6484 9.76156 54.4254 8.9707 55.3828 8.9707Z" fill="#A8DADC"/>
<path d="M77.8875 8.9707C78.8448 8.9707 79.6218 9.74769 79.6218 10.705C79.6218 11.6624 78.8448 12.4394 77.8875 12.4394C76.9301 12.4394 76.1531 11.6624 76.1531 10.705C76.1393 9.76156 76.9301 8.9707 77.8875 8.9707Z" fill="#A8DADC"/>
<path d="M100.392 8.9707C101.35 8.9707 102.127 9.74769 102.127 10.705C102.127 11.6624 101.35 12.4394 100.392 12.4394C99.4349 12.4394 98.6579 11.6624 98.6579 10.705C98.644 9.76156 99.421 8.9707 100.392 8.9707Z" fill="#A8DADC"/>
<path d="M105.467 84.4301C91.1667 75.6901 73.9867 70.0601 57.6267 73.6901C41.2667 77.3201 26.8167 92.3501 28.0767 109.06C29.7067 104.37 34.3667 101.17 39.2367 100.22C44.1167 99.2601 49.1767 100.23 53.8967 101.79C68.2967 106.53 80.4167 116.54 90.5367 127.82C100.657 139.1 109.077 151.79 118.507 163.65C122.677 168.9 127.207 174.11 133.127 177.26C140.457 181.14 151.517 181.29 156.027 173.12C159.217 167.35 159.457 161.43 157.497 155.33C154.647 146.46 151.747 137.76 147.387 129.48C142.827 120.8 137.177 112.7 130.617 105.41C123.297 97.2701 114.817 90.1501 105.467 84.4301Z" fill="#50B2B5"/>
<path d="M68.4867 102.66C93.6267 120.65 111.477 143.02 132.407 166.84C139.987 174.75 148.467 175.42 156.397 172.43C156.277 172.66 156.167 172.89 156.047 173.11C151.537 181.28 140.477 181.13 133.147 177.25C127.217 174.11 122.697 168.9 118.527 163.64C109.097 151.78 100.677 139.09 90.5567 127.81C80.4367 116.53 68.3067 106.52 53.9167 101.78C49.1967 100.23 44.1367 99.25 39.2567 100.21C34.3767 101.17 29.7267 104.36 28.0967 109.05C27.9767 107.4 28.0067 105.77 28.1767 104.16C37.5067 91.91 56.3967 93.3 68.4867 102.66Z" fill="#459A9D"/>
<path d="M59.5967 89.2502C67.6167 86.5002 76.3367 87.0802 84.3067 89.7302C93.2867 92.7202 101.077 98.3702 107.837 104.89C115.367 112.15 121.967 120.41 128.347 128.68C135.057 137.38 141.367 146.38 147.257 155.65C153.127 164.88 158.587 174.37 163.607 184.08C164.227 185.28 164.847 186.49 165.457 187.7C165.727 188.24 164.857 188.6 164.577 188.06C159.697 178.37 154.397 168.89 148.677 159.67C143.007 150.53 136.927 141.64 130.477 133.04C124.227 124.71 117.717 116.46 110.517 108.92C103.947 102.03 96.4467 95.7402 87.6067 92.0002C79.9267 88.7402 71.2567 87.3402 63.0467 89.2502C61.9967 89.4902 60.9767 89.8002 59.9567 90.1402C59.3767 90.3302 59.0167 89.4502 59.5967 89.2502Z" fill="#1D3557"/>
<path d="M68.9968 94.3801C73.8768 91.8401 79.3068 90.54 84.7868 90.51C80.8468 87.16 76.9068 83.8101 72.9568 80.4501C72.4968 80.0601 73.0668 79.3101 73.5368 79.7001C77.8068 83.3301 82.0868 86.9701 86.3568 90.6001C86.7368 90.9201 86.4668 91.4601 85.9968 91.4401C80.2268 91.2501 74.4668 92.5901 69.3468 95.2501C68.8168 95.5401 68.4668 94.6601 68.9968 94.3801Z" fill="#1D3557"/>
<path d="M97.9667 112.37C105.467 114.48 112.717 117.45 119.537 121.23C121.037 122.06 122.517 122.95 123.977 123.85C121.357 116.89 117.957 110.23 113.817 104.05C112.567 102.19 111.257 100.37 109.887 98.59C109.517 98.11 110.267 97.5299 110.637 98.0099C115.497 104.3 119.597 111.17 122.807 118.44C123.727 120.53 124.577 122.65 125.347 124.79C125.517 125.25 125.007 125.59 124.617 125.34C118.117 121.18 111.147 117.77 103.867 115.2C101.797 114.47 99.7067 113.81 97.5967 113.22C97.0167 113.08 97.3867 112.21 97.9667 112.37Z" fill="#1D3557"/>
<path d="M124.507 144.35C131.397 146.53 137.917 149.83 143.747 154.09C145.057 155.04 146.307 156.06 147.537 157.11C145.867 148.42 143.447 139.9 140.277 131.64C140.057 131.07 140.937 130.71 141.157 131.28C144.507 140.02 147.047 149.07 148.727 158.28C148.797 158.67 148.267 158.98 147.967 158.71C142.587 153.95 136.447 150.08 129.827 147.3C127.957 146.52 126.057 145.82 124.127 145.21C123.557 145.04 123.937 144.17 124.507 144.35Z" fill="#1D3557"/>
<path d="M90.3667 159.04C76.2867 160.83 59.9167 169.99 55.7167 185.7C52.3567 174.66 57.6267 162.22 66.6867 154.67C69.7567 153.39 72.9667 152.56 76.3067 152.27C78.2267 152.11 78.0667 149.12 76.1467 149.28C75.9567 149.3 75.7767 149.32 75.5867 149.34C83.7067 145.92 92.8067 145.18 101.757 146.15C105.137 147.69 108.327 149.69 111.107 152.16C112.547 153.44 114.547 151.21 113.107 149.93C112.147 149.07 111.127 148.27 110.077 147.52C110.977 147.72 111.867 147.93 112.747 148.15C118.877 149.71 124.827 151.91 130.527 154.65C134.647 158.47 138.167 163.08 141.517 167.43C142.687 168.95 145.207 167.33 144.037 165.81C142.307 163.57 140.547 161.28 138.687 159.05C145.677 163.26 152.147 168.33 157.917 174.11C163.507 179.72 168.027 186.02 172.547 192.49C175.657 196.94 176.937 201.78 175.797 207.24C175.787 207.31 175.767 207.38 175.747 207.45C151.217 184.41 125.057 156.64 90.3667 159.04Z" fill="#459A9D"/>
<path d="M90.3667 159.04C125.047 156.64 151.217 184.41 175.747 207.46C174.017 215.03 165.147 217.62 158.307 216.32C153.227 215.36 148.667 212.71 144.347 209.82C147.947 209.36 151.587 209.25 155.217 209.36C157.147 209.42 156.967 206.43 155.057 206.37C150.277 206.23 145.507 206.5 140.797 207.37C136.147 204.11 131.587 200.72 126.987 197.39C129.307 197.18 131.627 197.09 133.927 197.08C135.857 197.07 135.687 194.08 133.767 194.09C130.337 194.11 126.837 194.31 123.387 194.81C119.517 192.07 115.587 189.42 111.517 186.98C105.907 183.62 99.9567 180.66 93.7767 178.53C96.7767 177.23 99.8867 176.2 103.067 175.43C104.947 174.97 104.007 172.13 102.147 172.58C97.7467 173.65 93.6267 175.28 89.6667 177.25C85.0067 175.96 80.2267 175.17 75.3667 175.08C75.1267 175.08 74.8767 175.08 74.6367 175.08C75.0967 174.74 75.5467 174.41 75.9967 174.08C76.6567 173.6 76.9067 172.72 76.4467 172.01C76.0267 171.36 75.0267 171.08 74.3767 171.56C72.6967 172.79 70.9967 174.06 69.3967 175.45C67.1967 175.8 65.0667 176.42 63.1067 177.47C59.3967 179.46 56.4367 183.21 56.2867 187.41C56.0667 186.85 55.8767 186.28 55.6967 185.71C59.9167 169.99 76.2967 160.83 90.3667 159.04Z" fill="#50B2B5"/>
<path d="M76.8568 163.52C82.6568 159.29 89.8568 157.58 96.9568 157.74C104.967 157.92 112.677 160.54 119.777 164.12C127.677 168.11 135.077 173.14 142.307 178.24C149.907 183.6 157.257 189.3 164.337 195.33C171.387 201.33 178.167 207.64 184.657 214.24C185.457 215.06 186.257 215.88 187.057 216.71C187.417 217.08 186.797 217.59 186.437 217.22C180.067 210.6 173.417 204.26 166.487 198.23C159.617 192.25 152.487 186.58 145.117 181.24C137.987 176.07 130.657 171.02 122.957 166.72C115.917 162.79 108.287 159.58 100.207 158.76C93.1868 158.04 85.8268 159.08 79.6568 162.67C78.8768 163.13 78.1168 163.63 77.3868 164.16C76.9468 164.44 76.4368 163.82 76.8568 163.52Z" fill="#1D3557"/>
<path d="M85.7468 165.32C89.0568 162.05 93.1268 159.64 97.5568 158.25C93.5268 156.52 89.5068 154.8 85.4768 153.07C85.0068 152.87 85.2868 152.12 85.7568 152.32C90.1168 154.19 94.4868 156.06 98.8468 157.93C99.2368 158.1 99.1468 158.6 98.7668 158.7C94.0468 159.99 89.7268 162.51 86.2568 165.94C85.8868 166.3 85.3768 165.68 85.7468 165.32Z" fill="#1D3557"/>
<path d="M113.667 172.63C120.257 172.46 126.867 173.06 133.317 174.41C134.737 174.71 136.157 175.05 137.557 175.42C133.697 170.45 129.287 165.91 124.397 161.94C122.927 160.74 121.407 159.6 119.857 158.51C119.437 158.21 119.897 157.56 120.317 157.86C125.817 161.73 130.847 166.27 135.267 171.34C136.537 172.8 137.747 174.3 138.907 175.84C139.157 176.17 138.837 176.57 138.457 176.47C132.167 174.73 125.677 173.71 119.147 173.45C117.297 173.38 115.437 173.37 113.587 173.41C113.077 173.44 113.157 172.65 113.667 172.63Z" fill="#1D3557"/>
<path d="M143.117 191.87C149.227 191.91 155.337 192.95 161.117 194.94C162.407 195.39 163.677 195.89 164.937 196.43C161.417 189.82 157.327 183.53 152.707 177.65C152.387 177.25 153.007 176.74 153.327 177.14C158.227 183.37 162.537 190.05 166.197 197.08C166.347 197.38 165.997 197.76 165.687 197.62C160.147 195.11 154.217 193.52 148.167 192.93C146.467 192.76 144.747 192.68 143.037 192.67C142.527 192.66 142.607 191.86 143.117 191.87Z" fill="#1D3557"/>
<path d="M102.057 54.42C88.2668 51.06 69.6968 53.77 60.1768 66.96C60.9768 55.45 70.3468 45.71 81.4968 41.89C84.8268 41.79 88.1168 42.16 91.3368 43.09C93.1868 43.62 94.1068 40.77 92.2468 40.24C92.0668 40.19 91.8868 40.15 91.7068 40.1C100.517 39.8 109.277 42.36 117.287 46.46C119.897 49.11 122.167 52.11 123.877 55.41C124.767 57.12 127.427 55.75 126.537 54.04C125.947 52.9 125.277 51.79 124.567 50.7C125.337 51.2 126.087 51.72 126.837 52.25C132.007 55.89 136.777 60.08 141.127 64.67C143.617 69.71 145.257 75.27 146.837 80.53C147.387 82.37 150.327 81.76 149.767 79.92C148.957 77.22 148.117 74.44 147.177 71.7C152.207 78.13 156.437 85.17 159.757 92.63C162.977 99.86 164.947 107.37 166.857 115.02C168.177 120.28 167.647 125.26 164.627 129.96C164.587 130.02 164.547 130.08 164.507 130.14C149.837 99.84 135.307 64.56 102.057 54.42Z" fill="#459A9D"/>
<path d="M102.057 54.4202C135.317 64.5602 149.837 99.8302 164.527 130.12C160.207 136.58 150.997 135.83 145.077 132.17C140.677 129.46 137.357 125.35 134.357 121.12C137.887 121.97 141.327 123.17 144.677 124.57C146.457 125.31 147.357 122.46 145.587 121.72C141.167 119.88 136.627 118.43 131.907 117.57C128.727 112.87 125.677 108.07 122.567 103.32C124.807 103.95 127.007 104.7 129.157 105.5C130.967 106.18 131.867 103.32 130.067 102.65C126.857 101.45 123.517 100.38 120.117 99.6202C117.477 95.6802 114.757 91.8002 111.827 88.0702C107.787 82.9302 103.287 78.0402 98.2767 73.8402C101.547 73.7002 104.817 73.8402 108.067 74.2602C109.987 74.5102 110.127 71.5102 108.227 71.2702C103.737 70.7002 99.3067 70.7502 94.8967 71.1802C91.0067 68.3102 86.8167 65.8702 82.3167 64.0502C82.0867 63.9602 81.8567 63.8802 81.6367 63.7902C82.1867 63.6402 82.7267 63.4902 83.2667 63.3402C84.0467 63.1302 84.5967 62.4002 84.4267 61.5702C84.2667 60.8102 83.4367 60.2002 82.6567 60.4102C80.6467 60.9602 78.6067 61.5402 76.6167 62.2702C74.4367 61.8102 72.2267 61.6302 70.0267 61.9202C65.8567 62.4602 61.7467 64.9002 60.1067 68.7702C60.0967 68.1602 60.1267 67.5702 60.1667 66.9702C69.6967 53.7802 88.2667 51.0702 102.057 54.4202Z" fill="#50B2B5"/>
<path d="M87.8368 53.7799C94.7568 51.8999 102.097 52.8699 108.677 55.5499C116.097 58.5699 122.367 63.7799 127.717 69.6599C133.677 76.2099 138.797 83.5499 143.717 90.8899C148.897 98.6099 153.727 106.56 158.197 114.71C162.647 122.83 166.727 131.14 170.427 139.63C170.887 140.68 171.337 141.74 171.787 142.79C171.987 143.26 171.227 143.51 171.027 143.04C167.447 134.58 163.487 126.29 159.167 118.18C154.887 110.15 150.247 102.3 145.267 94.6799C140.447 87.2999 135.407 79.9699 129.747 73.1999C124.577 67.0199 118.587 61.2899 111.337 57.6399C105.037 54.4599 97.7868 52.7999 90.7468 53.9499C89.8468 54.0999 88.9668 54.2999 88.0868 54.5299C87.5868 54.6699 87.3368 53.9099 87.8368 53.7799Z" fill="#1D3557"/>
<path d="M95.4867 58.6299C99.7467 56.7599 104.407 55.9599 109.037 56.2399C105.897 53.1899 102.747 50.1399 99.6067 47.0899C99.2367 46.7299 99.7667 46.1299 100.137 46.4899C103.547 49.7999 106.957 53.0999 110.357 56.4099C110.657 56.6999 110.397 57.1399 110.007 57.0999C105.137 56.6199 100.207 57.4299 95.7367 59.3899C95.2667 59.5999 95.0267 58.8399 95.4867 58.6299Z" fill="#1D3557"/>
<path d="M118.967 75.43C125.187 77.63 131.147 80.54 136.687 84.11C137.907 84.9 139.107 85.72 140.287 86.57C138.457 80.55 135.957 74.74 132.807 69.29C131.857 67.65 130.847 66.04 129.787 64.46C129.497 64.03 130.167 63.59 130.457 64.01C134.217 69.59 137.297 75.62 139.607 81.94C140.267 83.75 140.867 85.59 141.397 87.44C141.507 87.84 141.067 88.1 140.757 87.87C135.497 83.99 129.797 80.73 123.797 78.16C122.097 77.43 120.367 76.76 118.617 76.14C118.117 75.98 118.487 75.26 118.967 75.43Z" fill="#1D3557"/>
<path d="M139.607 103.91C145.307 106.13 150.627 109.28 155.317 113.2C156.367 114.08 157.377 115.01 158.357 115.96C157.427 108.53 155.857 101.2 153.637 94.0501C153.487 93.5601 154.247 93.3001 154.397 93.8001C156.747 101.37 158.387 109.15 159.297 117.02C159.337 117.35 158.867 117.58 158.637 117.34C154.357 113.02 149.387 109.42 143.947 106.7C142.417 105.94 140.847 105.24 139.247 104.62C138.767 104.44 139.127 103.73 139.607 103.91Z" fill="#1D3557"/>
<path d="M232.1 112.93C245.63 106.65 261.4 103.41 275.5 108.28C289.6 113.14 300.85 127.91 298.05 142.56C297.08 138.24 293.29 134.95 289.07 133.61C284.85 132.27 280.28 132.61 275.94 133.51C262.73 136.24 250.99 143.87 240.9 152.82C230.81 161.77 222.08 172.14 212.53 181.67C208.31 185.89 203.78 190.04 198.22 192.22C191.34 194.91 181.55 193.92 178.39 186.24C176.15 180.81 176.54 175.56 178.89 170.36C182.31 162.8 185.76 155.4 190.45 148.52C195.37 141.31 201.18 134.71 207.72 128.94C215.03 122.47 223.25 117.04 232.1 112.93Z" fill="#50B2B5"/>
<path d="M262.96 132.8C238.9 146.16 220.85 164.13 199.93 183.08C192.42 189.31 184.86 189.04 178.15 185.59C178.23 185.8 178.31 186.02 178.39 186.23C181.55 193.91 191.35 194.9 198.22 192.21C203.78 190.03 208.31 185.88 212.53 181.66C222.07 172.12 230.8 161.76 240.9 152.81C250.99 143.86 262.73 136.24 275.94 133.5C280.27 132.6 284.85 132.26 289.07 133.6C293.29 134.94 297.08 138.24 298.05 142.55C298.33 141.1 298.46 139.65 298.47 138.21C291.45 126.43 274.6 125.74 262.96 132.8Z" fill="#459A9D"/>
<path d="M272.18 121.84C265.37 118.6 257.59 118.22 250.28 119.76C242.03 121.5 234.57 125.7 227.93 130.78C220.54 136.44 213.86 143.07 207.39 149.74C200.58 156.75 194.08 164.07 187.93 171.67C181.81 179.23 176.02 187.07 170.59 195.16C169.92 196.16 169.25 197.17 168.59 198.18C168.29 198.63 169.03 199.03 169.33 198.58C174.63 190.5 180.28 182.66 186.27 175.09C192.21 167.58 198.49 160.34 205.07 153.38C211.44 146.65 218.03 140.01 225.16 134.07C231.67 128.65 238.94 123.84 247.13 121.42C254.25 119.32 262.06 118.96 269.13 121.47C270.03 121.79 270.91 122.16 271.77 122.57C272.26 122.81 272.67 122.08 272.18 121.84Z" fill="#1D3557"/>
<path d="M263.34 125.43C259.28 122.69 254.61 120.99 249.77 120.41C253.6 117.85 257.42 115.28 261.25 112.72C261.7 112.42 261.27 111.7 260.82 112C256.67 114.78 252.53 117.56 248.38 120.34C248.01 120.59 248.2 121.09 248.61 121.12C253.73 121.54 258.69 123.3 262.95 126.17C263.39 126.47 263.79 125.73 263.34 125.43Z" fill="#1D3557"/>
<path d="M235.9 138.4C229.05 139.51 222.34 141.4 215.93 144.05C214.52 144.63 213.12 145.27 211.74 145.92C214.76 140.03 218.44 134.49 222.73 129.44C224.02 127.92 225.37 126.44 226.76 125.01C227.14 124.62 226.53 124.04 226.16 124.42C221.22 129.49 216.9 135.15 213.33 141.26C212.3 143.01 211.34 144.8 210.44 146.62C210.25 147.01 210.66 147.36 211.03 147.18C217.2 144.16 223.71 141.85 230.41 140.32C232.31 139.88 234.23 139.51 236.15 139.2C236.67 139.12 236.43 138.32 235.9 138.4Z" fill="#1D3557"/>
<path d="M209.19 163.99C202.88 165.22 196.77 167.48 191.18 170.66C189.93 171.37 188.71 172.14 187.52 172.95C189.87 165.44 192.88 158.14 196.52 151.16C196.77 150.68 196.03 150.27 195.78 150.76C191.93 158.15 188.77 165.89 186.35 173.87C186.25 174.21 186.68 174.53 186.98 174.33C192.22 170.67 198.04 167.87 204.18 166.08C205.91 165.58 207.66 165.16 209.43 164.81C209.96 164.7 209.72 163.89 209.19 163.99Z" fill="#1D3557"/>
<path d="M237.89 180.44C250.16 183.45 263.71 193.21 265.83 207.53C269.92 198.11 266.52 186.57 259.27 178.98C256.68 177.54 253.93 176.47 251.01 175.89C249.33 175.55 249.77 172.92 251.46 173.26C251.62 173.29 251.78 173.33 251.95 173.37C245.11 169.52 237.15 167.95 229.13 167.89C225.98 168.91 222.96 170.35 220.25 172.25C218.84 173.24 217.31 171.06 218.71 170.08C219.65 169.42 220.63 168.82 221.64 168.25C220.83 168.33 220.02 168.43 219.21 168.54C213.63 169.3 208.14 170.64 202.83 172.49C198.8 175.45 195.22 179.17 191.81 182.67C190.62 183.89 188.55 182.21 189.75 180.98C191.5 179.18 193.3 177.33 195.17 175.55C188.56 178.57 182.32 182.39 176.64 186.92C171.13 191.31 166.49 196.43 161.84 201.69C158.64 205.31 157.01 209.46 157.47 214.41C157.48 214.47 157.49 214.53 157.49 214.6C181.51 196.71 207.46 174.81 237.89 180.44Z" fill="#459A9D"/>
<path d="M237.89 180.44C207.46 174.8 181.51 196.71 157.48 214.61C158.24 221.48 165.83 224.67 172 224.21C176.59 223.87 180.9 221.99 185 219.88C181.86 219.11 178.65 218.64 175.43 218.37C173.72 218.23 174.18 215.6 175.88 215.74C180.13 216.1 184.31 216.82 188.39 218.07C192.83 215.66 197.21 213.13 201.62 210.65C199.59 210.23 197.54 209.91 195.52 209.67C193.81 209.46 194.27 206.84 195.97 207.04C199 207.41 202.08 207.93 205.07 208.73C208.77 206.7 212.51 204.75 216.36 203C221.66 200.59 227.22 198.58 232.9 197.32C230.38 195.87 227.74 194.64 225 193.63C223.38 193.04 224.5 190.62 226.1 191.2C229.88 192.59 233.36 194.45 236.66 196.6C240.91 195.93 245.22 195.72 249.52 196.13C249.74 196.15 249.95 196.18 250.17 196.2C249.8 195.85 249.43 195.51 249.07 195.18C248.54 194.69 248.4 193.89 248.88 193.3C249.32 192.77 250.23 192.62 250.76 193.11C252.13 194.37 253.5 195.67 254.77 197.06C256.68 197.59 258.5 198.36 260.12 199.49C263.19 201.63 265.44 205.24 265.14 208.97C265.39 208.49 265.62 208.01 265.83 207.52C263.71 193.21 250.16 183.45 237.89 180.44Z" fill="#50B2B5"/>
<path d="M249.39 185.77C244.69 181.44 238.5 179.2 232.2 178.62C225.1 177.96 218.01 179.5 211.37 181.95C203.98 184.68 196.92 188.38 190.02 192.15C182.76 196.12 175.68 200.42 168.81 205.03C161.97 209.62 155.33 214.51 148.92 219.69C148.13 220.33 147.34 220.98 146.55 221.63C146.2 221.92 146.69 222.43 147.05 222.14C153.35 216.93 159.88 212 166.62 207.37C173.3 202.78 180.18 198.49 187.24 194.51C194.07 190.66 201.06 186.93 208.31 183.91C214.93 181.15 222.01 179.08 229.24 179.17C235.52 179.25 241.93 180.91 247.02 184.71C247.67 185.19 248.29 185.71 248.88 186.26C249.21 186.58 249.73 186.08 249.39 185.77Z" fill="#1D3557"/>
<path d="M241.35 186.46C238.75 183.23 235.4 180.69 231.63 179.01C235.36 177.89 239.1 176.77 242.83 175.65C243.27 175.52 243.1 174.83 242.66 174.96C238.61 176.17 234.56 177.38 230.52 178.6C230.16 178.71 230.19 179.16 230.51 179.29C234.55 180.91 238.12 183.57 240.84 186.96C241.12 187.32 241.63 186.82 241.35 186.46Z" fill="#1D3557"/>
<path d="M215.91 190.1C210.1 189.28 204.19 189.14 198.35 189.68C197.06 189.8 195.78 189.96 194.5 190.15C198.42 186.14 202.78 182.58 207.5 179.57C208.92 178.66 210.38 177.81 211.87 177C212.27 176.78 211.93 176.16 211.53 176.38C206.27 179.25 201.36 182.75 196.95 186.79C195.68 187.95 194.46 189.16 193.28 190.4C193.03 190.67 193.27 191.06 193.61 191C199.35 190.09 205.2 189.86 210.99 190.29C212.64 190.41 214.28 190.59 215.91 190.82C216.36 190.88 216.36 190.16 215.91 190.1Z" fill="#1D3557"/>
<path d="M187.92 204.13C182.51 203.55 177.01 203.85 171.69 205.02C170.5 205.28 169.33 205.6 168.16 205.95C171.94 200.46 176.2 195.31 180.88 190.58C181.2 190.25 180.71 189.74 180.38 190.07C175.42 195.08 170.93 200.56 166.98 206.4C166.81 206.65 167.09 207.02 167.37 206.93C172.52 205.28 177.93 204.47 183.34 204.55C184.86 204.57 186.39 204.67 187.9 204.84C188.37 204.89 188.37 204.18 187.92 204.13Z" fill="#1D3557"/>
<path d="M238.16 86.7401C250.69 85.1701 266.84 89.4501 273.93 102.07C274.39 91.8101 267.09 82.2401 257.61 77.7401C254.68 77.3201 251.73 77.3101 248.79 77.8001C247.1 78.0801 246.58 75.4701 248.27 75.1901C248.43 75.1601 248.6 75.1401 248.76 75.1201C241 73.9601 233 75.3401 225.49 78.1501C222.91 80.2301 220.61 82.6501 218.75 85.4001C217.79 86.8201 215.58 85.3401 216.54 83.9201C217.18 82.9701 217.88 82.0501 218.62 81.1701C217.89 81.5401 217.17 81.9201 216.46 82.3101C211.52 85.0101 206.87 88.2201 202.57 91.8401C199.86 96.0501 197.85 100.8 195.92 105.29C195.24 106.86 192.71 106.02 193.39 104.45C194.38 102.14 195.4 99.7701 196.51 97.4401C191.41 102.62 186.95 108.42 183.26 114.67C179.68 120.74 177.18 127.18 174.71 133.75C173.01 138.27 172.98 142.73 175.16 147.19C175.19 147.25 175.22 147.3 175.25 147.36C191.3 122.06 207.72 92.3301 238.16 86.7401Z" fill="#459A9D"/>
<path d="M238.16 86.7404C207.72 92.3404 191.3 122.06 175.25 147.36C178.41 153.51 186.64 153.78 192.24 151.15C196.41 149.2 199.76 145.9 202.84 142.46C199.63 142.86 196.47 143.57 193.36 144.46C191.71 144.94 191.2 142.32 192.84 141.85C196.93 140.67 201.1 139.85 205.36 139.56C208.65 135.72 211.84 131.79 215.06 127.9C213.02 128.23 210.99 128.67 209.01 129.16C207.34 129.58 206.83 126.96 208.49 126.55C211.45 125.81 214.51 125.2 217.6 124.88C220.33 121.66 223.13 118.5 226.1 115.5C230.19 111.36 234.67 107.49 239.52 104.29C236.65 103.84 233.74 103.63 230.82 103.67C229.1 103.69 229.28 101.03 230.98 101.01C235.01 100.96 238.92 101.46 242.77 102.28C246.5 100.13 250.45 98.4003 254.62 97.2503C254.83 97.1903 255.04 97.1403 255.25 97.0903C254.78 96.9003 254.32 96.7103 253.85 96.5303C253.18 96.2603 252.77 95.5604 253.01 94.8504C253.23 94.2004 254.03 93.7403 254.69 94.0103C256.41 94.7003 258.16 95.4203 259.84 96.2703C261.81 96.0903 263.79 96.1503 265.71 96.6203C269.35 97.5203 272.73 100.09 273.79 103.68C273.86 103.15 273.89 102.61 273.92 102.08C266.84 89.4403 250.69 85.1704 238.16 86.7404Z" fill="#50B2B5"/>
<path d="M250.8 87.6101C244.87 85.2501 238.28 85.3601 232.19 87.0701C225.32 88.9901 219.25 92.9601 213.93 97.6201C208 102.81 202.73 108.78 197.63 114.77C192.27 121.07 187.19 127.61 182.41 134.37C177.66 141.1 173.2 148.04 169.07 155.17C168.56 156.05 168.05 156.94 167.55 157.83C167.32 158.23 167.97 158.53 168.2 158.13C172.23 151.01 176.56 144.08 181.21 137.35C185.81 130.68 190.71 124.21 195.88 117.97C200.89 111.93 206.09 105.96 211.78 100.55C216.98 95.6101 222.85 91.1501 229.64 88.6501C235.54 86.4801 242.11 85.7401 248.22 87.4801C249 87.7001 249.76 87.9701 250.51 88.2701C250.92 88.4301 251.23 87.7801 250.8 87.6101Z" fill="#1D3557"/>
<path d="M243.54 91.1302C239.96 89.0402 235.92 87.8602 231.8 87.6402C234.89 85.2602 237.98 82.8802 241.07 80.5102C241.43 80.2302 241.03 79.6402 240.66 79.9202C237.31 82.5002 233.96 85.0802 230.61 87.6502C230.31 87.8802 230.5 88.2902 230.85 88.3002C235.2 88.3702 239.48 89.5802 243.24 91.7802C243.63 92.0002 243.93 91.3602 243.54 91.1302Z" fill="#1D3557"/>
<path d="M221.08 103.6C215.36 104.91 209.79 106.89 204.53 109.48C203.37 110.05 202.23 110.66 201.1 111.29C203.33 106.15 206.13 101.26 209.47 96.7603C210.48 95.4003 211.53 94.0803 212.63 92.8003C212.93 92.4503 212.38 91.9903 212.09 92.3403C208.2 96.8903 204.86 101.92 202.18 107.27C201.41 108.81 200.7 110.37 200.04 111.96C199.9 112.3 200.26 112.58 200.57 112.4C205.61 109.5 210.98 107.2 216.55 105.53C218.13 105.06 219.73 104.64 221.34 104.27C221.77 104.17 221.52 103.5 221.08 103.6Z" fill="#1D3557"/>
<path d="M199.94 126.7C194.68 128.09 189.65 130.33 185.1 133.33C184.08 134 183.1 134.72 182.13 135.46C183.7 128.99 185.84 122.66 188.53 116.56C188.71 116.14 188.07 115.84 187.88 116.26C185.04 122.72 182.8 129.43 181.19 136.3C181.12 136.59 181.51 136.84 181.74 136.65C185.96 133.27 190.72 130.58 195.81 128.73C197.24 128.21 198.7 127.76 200.17 127.37C200.62 127.25 200.38 126.58 199.94 126.7Z" fill="#1D3557"/>
<path d="M142.537 14.74C136.497 20.11 133.227 27.9 135.397 36.11C136.847 41.61 140.427 47.4 137.927 52.51C135.787 56.89 130.297 58.21 126.367 61.09C122.107 64.2 119.587 69.55 119.887 74.82C120.197 80.09 123.317 85.11 127.917 87.7C130.617 89.23 133.847 90.03 135.897 92.36C138.297 95.09 138.377 99.07 139.107 102.63C141.477 114.2 152.937 123.2 164.747 122.76C169.717 122.58 175.027 120.55 177.387 116.17C179.137 112.92 179.067 108.81 181.317 105.89C184.417 101.87 190.327 101.84 195.097 100.11C200.777 98.05 205.287 93.01 206.697 87.13C208.107 81.25 206.387 74.71 202.257 70.3C199.627 67.49 196.157 65.54 193.647 62.62C190.427 58.87 189.077 53.81 188.787 48.87C188.497 43.93 189.177 38.99 189.517 34.06C190.057 26.24 189.567 16.14 182.737 10.97C172.197 2.99004 155.777 5.54003 145.407 12.54C144.397 13.19 143.437 13.94 142.537 14.74Z" fill="#2E548A"/>
<path d="M143.967 18.12C138.337 23.12 135.287 30.38 137.307 38.03C138.657 43.15 141.997 48.55 139.667 53.31C137.677 57.39 132.557 58.62 128.897 61.3C124.927 64.2 122.577 69.18 122.867 74.09C123.157 79 126.067 83.68 130.347 86.09C132.867 87.51 135.877 88.26 137.787 90.43C140.027 92.97 140.097 96.68 140.777 100C142.987 110.78 153.667 119.17 164.667 118.76C169.297 118.59 174.247 116.7 176.447 112.62C178.077 109.6 178.007 105.76 180.107 103.04C182.997 99.29 188.497 99.26 192.947 97.65C198.237 95.73 202.437 91.03 203.757 85.55C205.077 80.07 203.467 73.98 199.627 69.86C197.177 67.24 193.947 65.42 191.607 62.7C188.607 59.2 187.347 54.49 187.077 49.89C186.807 45.29 187.437 40.69 187.757 36.09C188.257 28.81 187.807 19.39 181.447 14.58C171.627 7.15001 156.327 9.52 146.667 16.04C145.707 16.68 144.807 17.38 143.967 18.12Z" fill="#1D3557"/>
<path d="M142.977 98.7003L127.907 117.08L123.097 122.95L104.127 146.1L97.4165 130.43L102.777 121.96L114.827 102.91L115.307 102.17L129.147 80.2803L142.017 97.4403L142.977 98.7003Z" fill="#FFB59E"/>
<path d="M142.977 98.7L127.907 117.08L123.097 122.95C118.607 117.02 115.647 109.83 114.827 102.91L115.307 102.16L129.147 80.27L142.017 97.43L142.977 98.7Z" fill="#FF8A65"/>
<path d="M142.977 98.7L127.907 117.08C126.437 116.32 124.877 114.97 123.337 113.28C120.457 110.15 117.607 105.87 115.307 102.16L129.147 80.27L142.017 97.43L142.977 98.7Z" fill="#457B9D"/>
<path d="M123.337 113.29C124.877 114.98 126.437 116.33 127.907 117.09L142.977 98.7099L142.027 97.4399C135.117 102.06 128.597 107.19 123.337 113.29Z" fill="#2E5269"/>
<path d="M104.417 127.55C99.9265 111.25 93.0865 95.8299 84.2865 82.1499C82.5565 83.6299 80.2665 84.2199 78.5465 85.6999C81.3665 101.03 84.1065 115.95 86.9265 131.28C87.6465 135.22 88.4065 139.26 90.2865 142.64C91.7665 145.3 93.9765 147.48 96.5965 148.29C99.2165 149.1 102.237 148.37 104.127 146.1C105.887 143.98 106.477 140.82 106.267 137.87C106.047 134.93 105.187 130.37 104.417 127.55Z" fill="#FFB59E"/>
<path d="M85.1065 82.6801C84.0865 80.8601 82.6965 79.2401 81.0365 77.9601C78.9165 77.7801 75.9865 77.5501 73.8665 77.3701C72.3565 77.9001 70.8165 78.5701 69.2965 79.1301C68.9565 79.2601 68.8665 79.7101 69.1365 79.9501C70.8365 81.4501 72.2365 81.2201 74.5365 80.0101C78.1765 81.1801 77.5465 84.2001 79.5365 84.8101C81.5265 85.4301 83.9865 84.4401 85.1065 82.6801Z" fill="#FFB59E"/>
<path d="M77.0465 83.8901C74.6965 84.2701 72.3365 84.6501 69.9865 85.0201C68.4165 84.3201 65.7765 83.7201 64.2065 83.0201C65.4965 82.3201 67.4265 81.0501 68.3365 79.8801C68.5765 79.5801 68.3265 79.1401 67.9465 79.2101C65.8965 79.5501 63.8565 80.0301 61.9965 80.9301C61.5765 81.1301 61.2965 81.5501 61.2365 82.0201C61.1165 82.9301 61.1265 83.6701 61.0865 84.5201C61.0665 85.0301 61.3065 85.5201 61.7265 85.7901C63.2265 86.7401 65.3165 87.3801 66.9265 87.7701C70.3265 88.5901 73.4965 88.7001 77.0465 88.1001V83.8901Z" fill="#FFB59E"/>
<path d="M64.9965 89.17C64.2265 87.55 64.0165 85.56 64.3765 83.99C65.8465 82.99 83.4265 80.42 84.1465 81.18C84.8365 81.92 87.1465 85.79 86.8565 86.75C86.4665 88.01 86.5465 89.47 85.4265 89.93C81.7465 91.44 74.2865 93.12 70.3265 93.59C67.5365 93.93 66.2965 91.9 64.9965 89.17Z" fill="#FFB59E"/>
<path d="M71.6265 84.75C68.1565 85.24 64.6965 85.74 61.2265 86.23C58.8765 85.33 56.1865 84.75 53.5465 84.76C52.9965 84.76 52.3565 84.83 52.0965 85.19C51.9065 85.46 52.0165 85.8 52.2565 86.05C52.4965 86.29 52.8565 86.46 53.1965 86.61C54.9765 87.42 58.8265 88.24 60.6065 89.05C64.7965 88.71 67.1165 89.09 71.0365 87.92C71.6565 87.74 72.2665 87.5 72.7165 87.14C73.1665 86.77 73.4465 86.25 73.2965 85.76C73.1565 85.28 72.2765 84.66 71.6265 84.75Z" fill="#FFB59E"/>
<path d="M73.1566 87.3501C69.6866 87.8401 66.2266 88.3401 62.7566 88.8301C60.4066 87.9301 57.7166 87.3501 55.0766 87.3601C54.5266 87.3601 53.8866 87.4301 53.6266 87.7901C53.4366 88.0601 53.5466 88.4001 53.7866 88.6501C54.0266 88.9001 54.3866 89.0601 54.7266 89.2101C56.5066 90.0201 60.3566 90.8401 62.1366 91.6501C66.3266 91.3101 68.6466 91.6901 72.5666 90.5201C73.1866 90.3401 73.7966 90.1001 74.2466 89.7401C74.6966 89.3701 74.9766 88.8501 74.8266 88.3601C74.6866 87.8801 73.8066 87.2601 73.1566 87.3501Z" fill="#FFB59E"/>
<path d="M76.1165 89.5103C72.6465 90.0003 69.1865 90.5003 65.7165 90.9903C63.3665 90.0903 60.6765 89.5103 58.0365 89.5203C57.4865 89.5203 56.8465 89.5903 56.5865 89.9503C56.3965 90.2203 56.5065 90.5603 56.7465 90.8103C56.9865 91.0503 57.3465 91.2203 57.6865 91.3703C59.4665 92.1803 63.3165 93.0003 65.0965 93.8103C69.2865 93.4703 71.6065 93.8502 75.5265 92.6802C76.1465 92.5002 76.7565 92.2603 77.2065 91.9003C77.6565 91.5303 77.9365 91.0103 77.7865 90.5203C77.6465 90.0403 76.7665 89.4203 76.1165 89.5103Z" fill="#FFB59E"/>
<path d="M83.4565 84.58C80.1565 85.55 76.5365 84.95 73.7265 82.98C73.3465 82.71 72.9565 83.32 73.3365 83.59C76.2965 85.67 80.1465 86.31 83.6165 85.29C84.0565 85.15 83.8965 84.45 83.4565 84.58Z" fill="#FF8A65"/>
<path d="M224.447 130.43L192.707 80.2803L178.887 98.7003L217.737 146.1L224.447 130.43Z" fill="#FFB59E"/>
<path d="M192.707 80.2803L207.027 102.91C206.197 109.83 203.247 117.02 198.757 122.95L178.877 98.7003L192.707 80.2803Z" fill="#FF8A65"/>
<path d="M192.707 80.2803L179.837 97.4403L178.887 98.7103L193.957 117.09C195.427 116.33 196.987 114.98 198.527 113.29C201.407 110.16 204.257 105.88 206.557 102.17L192.707 80.2803Z" fill="#457B9D"/>
<path d="M198.527 113.29C196.987 114.98 195.427 116.33 193.957 117.09L178.887 98.7099L179.837 97.4399C186.747 102.06 193.267 107.19 198.527 113.29Z" fill="#2E5269"/>
<path d="M217.447 127.55C221.937 111.25 228.777 95.8299 237.577 82.1499C239.307 83.6299 241.597 84.2199 243.317 85.6999C240.497 101.03 237.757 115.95 234.937 131.28C234.217 135.22 233.457 139.26 231.577 142.64C230.097 145.3 227.887 147.48 225.267 148.29C222.647 149.1 219.627 148.37 217.737 146.1C215.977 143.98 215.387 140.82 215.597 137.87C215.817 134.93 216.677 130.37 217.447 127.55Z" fill="#FFB59E"/>
<path d="M236.757 82.6801C237.777 80.8601 239.167 79.2401 240.827 77.9601C242.947 77.7801 245.877 77.5501 247.997 77.3701C249.507 77.9001 251.047 78.5701 252.567 79.1301C252.907 79.2601 252.997 79.7101 252.727 79.9501C251.027 81.4501 249.627 81.2201 247.327 80.0101C243.687 81.1801 244.317 84.2001 242.327 84.8101C240.337 85.4301 237.877 84.4401 236.757 82.6801Z" fill="#FFB59E"/>
<path d="M244.817 83.8901C247.167 84.2701 249.527 84.6501 251.877 85.0201C253.447 84.3201 256.087 83.7201 257.657 83.0201C256.367 82.3201 254.437 81.0501 253.527 79.8801C253.287 79.5801 253.537 79.1401 253.917 79.2101C255.967 79.5501 258.007 80.0301 259.867 80.9301C260.287 81.1301 260.567 81.5501 260.627 82.0201C260.747 82.9301 260.737 83.6701 260.777 84.5201C260.797 85.0301 260.557 85.5201 260.137 85.7901C258.637 86.7401 256.547 87.3801 254.937 87.7701C251.537 88.5901 248.367 88.7001 244.817 88.1001V83.8901Z" fill="#FFB59E"/>
<path d="M256.867 89.17C257.637 87.55 257.847 85.56 257.487 83.99C256.017 82.99 238.437 80.42 237.717 81.18C237.027 81.92 234.717 85.79 235.007 86.75C235.397 88.01 235.317 89.47 236.437 89.93C240.117 91.44 247.577 93.12 251.537 93.59C254.327 93.93 255.567 91.9 256.867 89.17Z" fill="#FFB59E"/>
<path d="M250.237 84.75C253.707 85.24 257.167 85.74 260.637 86.23C262.987 85.33 265.677 84.75 268.317 84.76C268.867 84.76 269.507 84.83 269.767 85.19C269.957 85.46 269.847 85.8 269.607 86.05C269.367 86.29 269.007 86.46 268.667 86.61C266.887 87.42 263.037 88.24 261.257 89.05C257.067 88.71 254.747 89.09 250.827 87.92C250.207 87.74 249.597 87.5 249.147 87.14C248.697 86.77 248.417 86.25 248.567 85.76C248.707 85.28 249.577 84.66 250.237 84.75Z" fill="#FFB59E"/>
<path d="M248.707 87.3501C252.177 87.8401 255.637 88.3401 259.107 88.8301C261.457 87.9301 264.147 87.3501 266.787 87.3601C267.337 87.3601 267.977 87.4301 268.237 87.7901C268.427 88.0601 268.317 88.4001 268.077 88.6501C267.837 88.8901 267.477 89.0601 267.137 89.2101C265.357 90.0201 261.507 90.8401 259.727 91.6501C255.537 91.3101 253.217 91.6901 249.297 90.5201C248.677 90.3401 248.067 90.1001 247.617 89.7401C247.167 89.3701 246.887 88.8501 247.037 88.3601C247.177 87.8801 248.057 87.2601 248.707 87.3501Z" fill="#FFB59E"/>
<path d="M245.747 89.5103C249.217 90.0003 252.677 90.5003 256.147 90.9903C258.497 90.0903 261.187 89.5103 263.827 89.5203C264.377 89.5203 265.017 89.5903 265.277 89.9503C265.467 90.2203 265.357 90.5603 265.117 90.8103C264.877 91.0503 264.517 91.2203 264.177 91.3703C262.397 92.1803 258.547 93.0003 256.767 93.8103C252.577 93.4703 250.257 93.8502 246.337 92.6802C245.717 92.5002 245.107 92.2603 244.657 91.9003C244.207 91.5303 243.927 91.0103 244.077 90.5203C244.217 90.0403 245.097 89.4203 245.747 89.5103Z" fill="#FFB59E"/>
<path d="M238.407 84.58C241.707 85.55 245.327 84.95 248.137 82.98C248.517 82.71 248.907 83.32 248.527 83.59C245.567 85.67 241.717 86.31 238.247 85.29C237.807 85.15 237.967 84.45 238.407 84.58Z" fill="#FF8A65"/>
<path d="M193.256 158.92C190.876 155.29 188.216 151.88 185.356 148.79C180.986 148.54 147.356 148.56 143.386 148.79C139.496 152.99 135.956 157.79 133.026 162.91C153.036 166.23 173.896 165.06 193.256 158.92Z" fill="#FFB59E"/>
<path d="M129.156 80.2801C129.156 80.2801 157.976 67.3001 192.716 80.2801L185.356 148.79C167.506 155.96 143.386 148.79 143.386 148.79L129.156 80.2801Z" fill="#457B9D"/>
<path d="M236.157 168.11C235.177 165.45 232.237 163.91 229.397 163.78C226.567 163.65 223.807 164.65 221.187 165.73C214.357 168.52 207.757 171.89 201.477 175.78C199.567 169.95 196.717 164.21 193.247 158.92C173.897 165.06 153.027 166.23 133.017 162.92C130.647 167.06 128.677 171.4 127.247 175.79C120.977 171.9 114.377 168.53 107.537 165.74C104.907 164.67 102.157 163.66 99.3265 163.79C96.4965 163.92 93.5465 165.46 92.5665 168.12C91.3365 171.47 91.1465 175.49 92.6765 178.72C94.2065 181.95 96.6265 184.65 99.0965 187.24C107.207 195.76 116.177 203.59 126.457 209.31C136.737 215.02 148.417 218.55 160.177 218.11C160.117 214.88 160.237 214.88 160.177 218.11C171.927 218.54 191.987 215.02 202.267 209.31C212.547 203.6 221.517 195.76 229.627 187.24C232.087 184.65 234.517 181.95 236.047 178.72C237.577 175.48 237.387 171.46 236.157 168.11Z" fill="#457B9D"/>
<path d="M91.6365 172.75C91.5265 174.81 91.8265 176.89 92.6865 178.71C94.2165 181.94 96.6365 184.64 99.1065 187.23C107.217 195.75 116.187 203.58 126.467 209.3C136.747 215.01 148.427 218.54 160.187 218.1C160.127 214.87 160.247 214.87 160.187 218.1C171.937 218.53 191.997 215.01 202.277 209.3C212.557 203.59 221.527 195.75 229.637 187.23C232.097 184.64 234.527 181.94 236.057 178.71C237.587 175.48 237.397 171.46 236.167 168.11C235.827 167.18 235.237 166.39 234.507 165.75C217.987 170.96 203.247 182.33 189.227 194.08C177.807 203.66 161.377 204.55 149.017 196.21C131.447 184.34 111.147 174.8 91.6365 172.75Z" fill="#2E5269"/>
<path d="M157.187 58.9399L156.697 71.7599C156.637 73.2999 155.877 74.6899 154.727 75.7199C154.597 75.8399 154.477 75.9699 154.367 76.1099C153.847 76.8099 153.667 77.8599 153.897 78.7599C154.127 79.6399 162.467 94.2099 166.917 90.4199C167.597 89.8399 171.807 80.0699 172.197 79.1799C172.587 78.2799 172.677 77.1299 172.247 76.2599C172.117 75.9999 171.937 75.7799 171.727 75.6099C170.557 74.6899 169.617 73.5099 169.327 72.0499C168.517 67.8999 168.117 63.6299 168.047 59.3599L157.187 58.9399Z" fill="#FFB59E"/>
<path d="M166.037 67.7799C166.927 67.6399 167.757 67.2899 168.537 66.8199C168.257 64.3499 168.097 61.8699 168.047 59.3699L157.177 58.9399C157.107 60.6499 157.047 62.3699 156.977 64.0799C159.617 65.9999 162.947 68.2699 166.037 67.7799Z" fill="#FF8A65"/>
<path d="M150.847 43.2199C150.147 42.9099 149.417 42.5899 148.657 42.5199C147.887 42.4499 147.047 42.6799 146.577 43.2899C146.047 43.9799 146.107 44.9799 146.447 45.7799C147.087 47.2599 148.647 48.2899 150.257 48.2999L150.847 43.2199Z" fill="#FF8A65"/>
<path d="M175.237 43.2199C175.937 42.9099 176.667 42.5899 177.427 42.5199C178.197 42.4499 179.037 42.6799 179.507 43.2899C180.037 43.9799 179.977 44.9799 179.637 45.7799C178.997 47.2599 177.437 48.2899 175.827 48.2999L175.237 43.2199Z" fill="#FF8A65"/>
<path d="M163.327 63.0201C159.507 63.19 151.467 58.54 150.467 51.17L149.907 46.65L148.617 38.22C148.617 29.57 155.197 23.29 163.317 23.29C164.357 35.16 178.017 29.97 178.017 38.22L176.207 48.91C176.117 49.41 176.087 49.92 176.057 50.43C175.597 58.21 168.107 62.8101 163.327 63.0201Z" fill="#FFB59E"/>
<path d="M165.797 56.34C164.027 56.84 162.157 56.85 160.377 56.36C160.047 56.27 159.877 56.78 160.217 56.87C162.077 57.38 164.057 57.38 165.917 56.86C166.247 56.77 166.137 56.25 165.797 56.34Z" fill="#FF8A65"/>
<path d="M158.187 42.0602C156.457 42.6802 154.567 42.6502 152.867 41.9702C152.547 41.8402 152.387 42.3502 152.707 42.4802C154.487 43.2002 156.507 43.2402 158.307 42.5902C158.627 42.4702 158.507 41.9502 158.187 42.0602Z" fill="#1D3557"/>
<path d="M174.127 42.0602C172.397 42.6802 170.507 42.6502 168.807 41.9702C168.487 41.8402 168.327 42.3502 168.647 42.4802C170.427 43.2002 172.447 43.2402 174.247 42.5902C174.567 42.4702 174.447 41.9502 174.127 42.0602Z" fill="#1D3557"/>
<path d="M220.417 167.1C198.857 184.86 172.127 208.7 150.567 226.45C153.907 233.24 152.927 232.52 156.267 239.3C180.817 230.3 211.177 217.66 230.657 200.22C234.177 197.06 237.637 193.74 240.107 189.71C242.577 185.68 244.007 180.83 243.147 176.18C242.237 171.23 238.637 166.87 233.947 165.03C229.277 163.2 224.297 163.9 220.417 167.1Z" fill="#FFB59E"/>
<path d="M243.157 176.18C242.247 171.23 238.647 166.87 233.957 165.03C229.277 163.2 224.297 163.89 220.417 167.09C204.567 180.14 185.937 196.47 168.607 211.27C176.307 217.9 185.507 221.43 195.157 223.03C208.327 216.54 220.867 208.99 230.657 200.22C234.177 197.06 237.637 193.74 240.107 189.71C242.587 185.68 244.017 180.83 243.157 176.18Z" fill="#FFB59E"/>
<path d="M108.317 167.1C129.877 184.86 156.607 208.7 178.167 226.45C174.827 233.24 175.717 232.09 172.367 238.87C147.817 229.87 117.547 217.66 98.0765 200.22C94.5565 197.06 91.0965 193.74 88.6265 189.71C86.1565 185.68 84.7265 180.83 85.5865 176.18C86.4965 171.23 90.0965 166.87 94.7865 165.03C99.4565 163.2 104.437 163.9 108.317 167.1Z" fill="#FFB59E"/>
<path d="M163.467 50.2902C162.967 50.7402 162.197 50.6602 161.817 50.1002C161.447 49.5602 161.437 48.8302 161.407 48.2002C161.327 46.4502 161.327 44.7002 161.387 42.9502C161.407 42.4902 160.687 42.4502 160.667 42.9202C160.627 44.0402 160.617 45.1502 160.627 46.2702C160.637 47.2402 160.627 48.2402 160.767 49.2002C160.867 49.9202 161.157 50.6902 161.817 51.0702C162.497 51.4702 163.377 51.3402 163.957 50.8202C164.297 50.5102 163.817 49.9802 163.467 50.2902Z" fill="#FF8A65"/>
<path d="M165.857 53.67C164.277 55.28 161.687 55.35 160.067 53.77C159.737 53.45 159.207 53.93 159.537 54.26C161.427 56.1 164.487 56.1 166.347 54.21C166.667 53.87 166.177 53.34 165.857 53.67Z" fill="#1D3557"/>
<path d="M163.106 93.58C159.146 89.92 155.076 86.15 152.656 81.25C151.996 79.93 151.486 78.54 151.146 77.1C151.036 76.65 150.337 76.81 150.447 77.26C151.707 82.58 155.217 86.94 159.027 90.71C160.187 91.86 161.386 92.96 162.576 94.07C162.916 94.38 163.446 93.9 163.106 93.58Z" fill="#2E5269"/>
<path d="M173.377 81.3903C171.987 84.5503 170.587 87.7103 169.197 90.8703C169.007 91.2903 169.697 91.5103 169.887 91.0903C171.277 87.9303 172.677 84.7703 174.067 81.6103C174.257 81.1903 173.567 80.9703 173.377 81.3903Z" fill="#2E5269"/>
<path d="M213.957 168.36C204.617 172.34 196.017 178.02 188.707 185.06C186.667 187.03 184.717 189.1 182.887 191.26C182.437 191.79 183.307 192.43 183.757 191.9C190.237 184.28 198.117 177.84 206.887 173.01C209.327 171.66 211.847 170.45 214.407 169.35C215.037 169.08 214.597 168.09 213.957 168.36Z" fill="#2E5269"/>
<path d="M149.757 194.1C144.647 188 138.757 182.55 132.257 177.96C130.377 176.63 128.447 175.38 126.477 174.2C125.887 173.84 125.237 174.72 125.837 175.07C132.617 179.14 138.877 184.07 144.387 189.75C145.957 191.37 147.477 193.06 148.927 194.79C149.357 195.31 150.207 194.63 149.757 194.1Z" fill="#2E5269"/>
<path d="M190.737 165.42C177.337 170.7 162.647 172.58 148.347 170.91C144.297 170.44 140.277 169.68 136.327 168.64C135.657 168.46 135.257 169.47 135.927 169.65C150.117 173.4 165.207 173.56 179.477 170.11C183.457 169.15 187.377 167.91 191.187 166.41C191.837 166.15 191.387 165.17 190.737 165.42Z" fill="#2E5269"/>
<path d="M158.087 190.11C156.407 183.58 156.147 176.77 157.337 170.13C157.457 169.44 156.387 169.32 156.257 170.01C155.057 176.73 155.316 183.67 157.016 190.28C157.186 190.95 158.257 190.79 158.087 190.11Z" fill="#F1FAEE"/>
<path d="M172.047 170.76C171.677 170.17 170.847 170.86 171.207 171.44C174.947 177.43 176.087 184.85 174.417 191.7C174.247 192.38 175.327 192.49 175.497 191.82C177.237 184.67 175.947 176.99 172.047 170.76Z" fill="#F1FAEE"/>
<path d="M174.347 36.83C172.177 35.87 169.677 35.84 167.477 36.72C166.827 36.98 167.277 37.96 167.927 37.71C169.867 36.94 172.057 37 173.957 37.84C174.597 38.12 174.987 37.11 174.347 36.83Z" fill="#1D3557"/>
<path d="M157.967 36.7299C155.677 35.9999 153.117 36.2599 151.057 37.5099C150.807 37.6599 150.657 37.9399 150.787 38.2299C150.897 38.4699 151.247 38.6499 151.507 38.4999C153.317 37.3999 155.547 37.0899 157.577 37.7399C158.227 37.9499 158.627 36.9399 157.967 36.7299Z" fill="#1D3557"/>
<path d="M143.747 129.39C149.157 130.47 155.657 131.55 161.067 129.39C149.707 126.55 141.667 116.26 134.757 107.21L143.397 148.79C143.397 148.79 167.507 155.96 185.367 148.79L185.457 147.96C170.037 149.57 153.677 143.05 143.747 129.39Z" fill="#2E5269"/>
</g>
</svg>
